<?xml version="1.0" encoding="UTF-8" standalone="no"?>
<svg
   xmlns:dc="http://purl.org/dc/elements/1.1/"
   xmlns:cc="http://creativecommons.org/ns#"
   xmlns:rdf="http://www.w3.org/1999/02/22-rdf-syntax-ns#"
   xmlns:svg="http://www.w3.org/2000/svg"
   xmlns="http://www.w3.org/2000/svg"
   width="38mm"
   height="38mm"
   viewBox="0 0 134.64566 134.64567"
   id="svg2"
   version="1.1">
  <defs
     id="defs4" />
  <metadata
     id="metadata7">
    <rdf:RDF>
      <cc:Work
         rdf:about="">
        <dc:format>image/svg+xml</dc:format>
        <dc:type
           rdf:resource="http://purl.org/dc/dcmitype/StillImage" />
        <dc:title></dc:title>
      </cc:Work>
    </rdf:RDF>
  </metadata>
  <rect
     ry="10"
     rx="10"
     y="0.32283464"
     x="0.32282701"
     height="134"
     width="134"
     id="rect4141"
     style="fill:#e6e4e0;fill-opacity:1;stroke:none;stroke-width:5;stroke-linecap:butt;stroke-linejoin:round;stroke-miterlimit:4;stroke-dasharray:none;stroke-opacity:1" />
  <g
     id="layer1"
     transform="translate(-275.08648,-452.40594)">
    <g
       id="g4155"
       transform="matrix(0.70710678,0.70710678,-0.70710678,0.70710678,460.36943,-92.970025)">
      <circle
         r="51.174572"
         cy="509.23004"
         cx="342.40945"
         id="path3349"
         style="fill:#ff8900;fill-opacity:1;stroke:none;stroke-width:6;stroke-linecap:butt;stroke-linejoin:round;stroke-miterlimit:4;stroke-dasharray:none;stroke-opacity:1" />
      <rect
         y="506.40271"
         x="336.75482"
         height="53.719162"
         width="56.82922"
         id="rect4153"
         style="fill:#ff8900;fill-opacity:1;stroke:none;stroke-width:6;stroke-linecap:butt;stroke-linejoin:round;stroke-miterlimit:4;stroke-dasharray:none;stroke-opacity:1" />
      <circle
         style="fill:#d5d8dc;fill-opacity:1;stroke:none;stroke-width:6;stroke-linecap:butt;stroke-linejoin:round;stroke-miterlimit:4;stroke-dasharray:none;stroke-opacity:1"
         id="path4203"
         cx="-117.95997"
         cy="602.20007"
         r="22.335863"
         transform="matrix(0.70710678,-0.70710678,0.70710678,0.70710678,0,0)" />
      <path
         style="fill:#fdd300;fill-opacity:1;stroke:none;stroke-width:6;stroke-linecap:butt;stroke-linejoin:round;stroke-miterlimit:4;stroke-dasharray:none;stroke-opacity:1"
         d="m 63.003906,8.7871094 a 51.174572,51.174572 0 0 0 -36.423828,14.9667966 51.174572,51.174572 0 0 0 0,72.371094 51.174572,51.174572 0 0 0 36.423828,14.94727 l 0,-102.2851606 z"
         transform="matrix(0.70710678,-0.70710678,0.70710678,0.70710678,255.64329,511.22927)"
         id="path3349-5" />
      <path
         style="fill:#fdd300;fill-opacity:1;stroke:none;stroke-width:6;stroke-linecap:butt;stroke-linejoin:round;stroke-miterlimit:4;stroke-dasharray:none;stroke-opacity:1"
         d="m 60.767578,53.941406 -37.986328,37.986328 40.185547,40.183596 0.03711,-0.0371 0,-75.896486 -2.236328,-2.236328 z"
         transform="matrix(0.70710678,-0.70710678,0.70710678,0.70710678,255.64329,511.22927)"
         id="rect4153-3" />
      <path
         style="fill:#ffffff;fill-opacity:1;stroke:none;stroke-width:6;stroke-linecap:butt;stroke-linejoin:round;stroke-miterlimit:4;stroke-dasharray:none;stroke-opacity:1"
         d="m 62.767578,37.603516 a 22.335863,22.335863 0 0 0 -22.335937,22.335937 22.335863,22.335863 0 0 0 22.335937,22.335938 22.335863,22.335863 0 0 0 0.236328,-0.0078 l 0,-44.652344 a 22.335863,22.335863 0 0 0 -0.236328,-0.01172 z"
         transform="matrix(0.70710678,-0.70710678,0.70710678,0.70710678,255.64329,511.22927)"
         id="path4203-5" />
    </g>
  </g>
</svg>
