<?xml version="1.0" encoding="utf-8"?>
<!-- Generator: Adobe Illustrator 19.0.1, SVG Export Plug-In . SVG Version: 6.00 Build 0)  -->
<!DOCTYPE svg PUBLIC "-//W3C//DTD SVG 1.1//EN" "http://www.w3.org/Graphics/SVG/1.1/DTD/svg11.dtd">
<svg version="1.1" xmlns="http://www.w3.org/2000/svg" xmlns:xlink="http://www.w3.org/1999/xlink" x="0px" y="0px"
	 viewBox="0 0 301 45" enable-background="new 0 0 301 45" xml:space="preserve">
<g id="Layer_1">
	<g>
		<g>
			<g>
				<path d="M0.7,20.1C0.7,10.6,8.5,2.9,18,2.9c9.5,0,17.2,7.7,17.2,17.2c0,9.5-7.7,17.2-17.2,17.2C8.5,37.3,0.7,29.6,0.7,20.1
					L0.7,20.1z"/>
				<g>
					<path fill="#FFFFFF" d="M23.1,9.8l-4.3,12.8l1.9,5.8c0.8-2.3,3.1-9.1,3.3-9.6c0,3.9,0,11.7,0,11.7h4.3V9.8H23.1z"/>
					<path fill="#FFFFFF" d="M13,9.8H7.7v20.7h4.3c0,0,0-7.7,0-11.7c0.2,0.6,4.1,11.7,4.1,11.7H20L13,9.8L13,9.8z"/>
				</g>
				<path d="M66.3,41.5c-0.9,0.6-1.3,0.8-1.9,0.9c-0.4,0.1-0.7,0.2-1.2,0.2c-0.9,0-1.7-0.4-2.2-1.1c-0.2-0.4-0.3-0.7-0.3-1.5
					c0.2,0,6.6,0,6.6,0v-1.1c0-2.7-1.7-4.6-4.2-4.6c-2.9,0-5.1,2.4-5.1,5.5c0,3,1.9,5,4.9,5c1.2,0,2.2-0.2,3.3-0.7
					c0.2-0.1,0.6-0.3,1.1-0.5l0.1,0L66.3,41.5L66.3,41.5z M62.9,36.3c1.1,0,1.6,0.6,1.7,1.9h-3.7C61.1,37,61.9,36.3,62.9,36.3z
					 M49.2,40.7l-3.4-10h-3.6v13.8h2.6c0,0,0-6.1,0-8.7c0.1,0.4,3.1,8.7,3.1,8.7h2.6c1-3,3-8.3,3.1-8.6c0,1,0,8.6,0,8.6h2.6V30.7
					h-3.6L49.2,40.7z M74.4,41.5L74.4,41.5c-0.7,0.5-1.1,0.6-1.4,0.6c-0.3,0-0.4-0.2-0.4-1.3c0,0,0-4.1,0-4.3c0.1,0,2.2,0,2.2,0v-2
					c0,0-2,0-2.2,0v-3c0-0.2-0.1-0.4-0.1-0.4L70,31.5c0,0,0,2.9,0,3c-0.1,0-1.5,0.3-1.5,0.3v1.7c0,0,1.3,0,1.5,0c0,0.1,0,6,0,6
					c0,1.5,0.6,2.2,2,2.2c0.7,0,1.5-0.2,2.3-0.7l0.3-0.2l0.7-0.4l0-0.1L74.4,41.5z M81.5,34.4c-0.8,0-1.4,0.6-2.3,2.1
					c0-0.4-0.1-2-0.1-2h-2.4v10h2.7v-4.6c0-0.7,0.2-1.3,0.7-1.8c0.4-0.5,0.8-0.7,1.2-0.7c0.3,0,0.5,0.1,0.7,0.3l0.1,0.1l0.9-2.6l0,0
					C82.6,34.6,82.1,34.4,81.5,34.4z M88.7,34.3c-2.9,0-5.1,2.3-5.1,5.2c0,3,2.2,5.3,5.1,5.3c2.9,0,5.1-2.3,5.1-5.3
					C93.8,36.5,91.6,34.3,88.7,34.3z M88.7,42.6c-1.3,0-2.3-1.4-2.3-3.1c0-1.7,1-3.1,2.3-3.1c1.2,0,2.3,1.4,2.3,3.1
					C91,41.2,90,42.6,88.7,42.6z"/>
			</g>
			<g>
				<path fill="#231F20" d="M93.8,34.7c-0.6,0-1-0.5-1-1c0-0.6,0.5-1,1-1c0.6,0,1,0.5,1,1C94.8,34.2,94.4,34.7,93.8,34.7z
					 M93.8,32.8c-0.5,0-0.9,0.4-0.9,0.9c0,0.5,0.4,0.9,0.9,0.9c0.5,0,0.9-0.4,0.9-0.9C94.7,33.2,94.3,32.8,93.8,32.8z M94.1,34.3
					l-0.4-0.5h-0.1v0.5h-0.2v-1.2h0.4c0.3,0,0.4,0.1,0.4,0.3c0,0.2-0.1,0.3-0.3,0.3l0.4,0.5H94.1z M94,33.3c0,0-0.1,0-0.2,0h-0.2
					v0.4h0.2c0.2,0,0.3-0.1,0.3-0.2C94,33.4,94,33.3,94,33.3z"/>
			</g>
		</g>
		<g>
			<g>
				<defs>
					<path id="SVGID_27_" d="M289.7,17.7h6.3h5.5V24l-5.5,0v15.8h-6.3V24l-4.7,0v9.5c0,3.5-2.8,6.3-6.3,6.3h-6.3
						c-3.5,0-6.3-2.8-6.3-6.3c0,3.5-2.8,6.3-6.3,6.3h-5.9l-7.2-22.2h13.1c3.5,0,6.3,2.8,6.3,6.3c0-3.5,2.8-6.3,6.3-6.3h6.3
						c2.4,0,4.4,1.3,5.5,3.2l0-3.2H289.7L289.7,17.7z M273.8,23.9h3.2c0.9,0,1.6,0.7,1.6,1.6v6.3c0,0.9-0.7,1.6-1.6,1.6h-3.2
						c-0.9,0-1.6-0.7-1.6-1.6v-6.3C272.3,24.6,273,23.9,273.8,23.9L273.8,23.9z M258,23.9c0.9,0,1.6,0.7,1.6,1.6v6.3
						c0,0.9-0.7,1.6-1.6,1.6h-4.7v-9.5H258L258,23.9z M236.8,17.7h1.8h5.2h1.8l7.2,22.2h-6.9l-1-3.2h-7.2l-1,3.2h-6.9L236.8,17.7
						L236.8,17.7z M241.1,25.6l-2,6.3h4.1L241.1,25.6L241.1,25.6z M214.8,33.5l5.2-15.8h6.9l-5.1,15.8h8.9l-2.1,6.3h-8.9h-6.9
						L214.8,33.5L214.8,33.5z"/>
				</defs>
				<use xlink:href="#SVGID_27_"  overflow="visible" fill-rule="evenodd" clip-rule="evenodd"/>
				<clipPath id="SVGID_2_">
					<use xlink:href="#SVGID_27_"  overflow="visible"/>
				</clipPath>
				<path clip-path="url(#SVGID_2_)" fill="none" stroke="#FFFFFF" stroke-width="0.1985" stroke-miterlimit="3.8637" d="
					M210.6,38.2h98.3 M210.6,36.6h98.3 M210.6,35.1h98.3 M210.5,33.5h98.3 M210.5,31.9h98.3 M210.5,30.3h98.3 M210.4,28.7h98.3
					 M210.4,27.2h98.3 M210.4,25.6h98.3 M210.3,24h98.3 M210.3,22.4h98.3 M210.3,20.8h98.3 M210.2,19.2h98.3"/>
			</g>
		</g>
		<g>
			<path d="M156.7,0.3c0.2-0.2,0.5-0.2,0.7-0.2c0.1,0.1,0.2,0.1,0.3,0.3c0.2-0.1,0.5-0.3,0.8-0.2c0.3,0,0.4,0.5,0.7,0.2
				c0.2-0.1,0.4,0,0.6,0.1c0,0.1,0.1,0.2,0.2,0.3c0.2-0.2,0.4-0.2,0.7-0.2c0.3,0,0.4,0.7,0.8,0.3c0.2,0,0.4,0.1,0.6,0.2
				c0,0.1,0.1,0.1,0.1,0.2c0.2-0.1,0.5-0.2,0.7,0c0.3,0.1,0.3,0.7,0.6,0.3c0.3,0,0.6,0.1,0.7,0.4c0.1,0.3,0.5,0,0.7,0.1
				c0.3,0.1,0.2,0.5,0.5,0.4c0.2-0.1,0.5,0,0.7,0.2c0.1,0.1,0.1,0.2,0.2,0.3c0.3,0,0.6,0,0.7,0.2c0.1,0.1,0.1,0.3,0.2,0.4
				c0.3-0.1,0.6,0,0.7,0.2c0.1,0.1,0.1,0.2,0.1,0.4c0.3,0,0.7,0,0.9,0.4c-0.1,0.5,0.4,0.1,0.6,0.3c0.4,0.1,0.1,0.9,0.7,0.6
				c0.3,0.1,0.4,0.5,0.4,0.7c0.2,0,0.4,0,0.6,0.2c0.4,0.2-0.1,0.9,0.6,0.7c0.2,0.1,0.3,0.3,0.3,0.4c-0.2,0.6,0.6,0.2,0.7,0.7
				c0.1,0.1,0,0.3,0,0.5c0.3,0,0.5,0.1,0.7,0.4c0,0.1,0.1,0.3,0,0.5c0.2,0,0.5,0.2,0.6,0.4c0,0.1,0.1,0.3,0,0.5
				c0.2,0.1,0.5,0.2,0.6,0.4c0,0.2,0.1,0.4,0,0.6c0.3,0,0.5,0.2,0.6,0.5c0.1,0.2-0.1,0.5,0.1,0.5c0.2,0,0.3,0.2,0.4,0.4
				c0.2,0.3-0.4,0.7,0.2,0.7c0.2,0.2,0.3,0.4,0.2,0.7c-0.3,0.2,0.1,0.2,0.2,0.4c0.1,0.2,0.2,0.4,0.1,0.7c-0.3,0.4,0.4,0.3,0.4,0.7
				c0.2,0.3-0.5,0.7,0.1,0.8c0.2,0.2,0.2,0.5,0.1,0.7c-0.3,0.3,0.5,0.5,0.3,0.9c0,0.2-0.1,0.3-0.2,0.5c0.2,0.1,0.4,0.4,0.4,0.6
				c0,0.2-0.1,0.4-0.2,0.5c0.2,0.1,0.3,0.3,0.3,0.6c0,0.2-0.1,0.4-0.2,0.5c0.2,0.2,0.4,0.5,0.3,0.8c-0.1,0.1-0.1,0.2-0.3,0.3
				c0.2,0.1,0.3,0.3,0.3,0.6c0,0.2-0.1,0.4-0.3,0.6c0.2,0.2,0.3,0.5,0.2,0.8c0,0.1-0.2,0.2-0.3,0.4c0.2,0.2,0.2,0.5,0.2,0.7
				c0,0.3-0.5,0.3-0.1,0.6c0.1,0.2,0,0.5-0.1,0.6c-0.5,0.2,0.2,0.5,0,0.8c0,0.4-0.8,0.4-0.3,0.8c0,0.2,0,0.4-0.2,0.6
				c-0.1,0.1-0.2,0.1-0.3,0.2c0.2,0.2,0.1,0.5,0,0.8c-0.6,0.2-0.1,0.5-0.3,0.9c0,0.3-0.5,0.2-0.4,0.5c0.1,0.2,0,0.5-0.2,0.7
				c-0.1,0.1-0.2,0.1-0.3,0.2c0.1,0.2,0.1,0.5,0,0.7c0,0.4-0.8,0.1-0.4,0.6c0,0.2-0.1,0.5-0.4,0.6c-0.1,0.1-0.2,0-0.3,0.1
				c0.1,0.2,0,0.4,0,0.6c-0.1,0.2-0.4,0.2-0.6,0.4c0.1,0.2,0,0.5-0.2,0.7c-0.1,0.1-0.3,0.1-0.4,0.1c0,0.3-0.1,0.7-0.4,0.8
				c-0.1,0-0.2,0-0.3,0c0,0.2,0,0.5-0.2,0.7c-0.2,0.1-0.4,0.2-0.6,0.2c0,0.2,0,0.4-0.2,0.6c-0.1,0.2-0.4,0.2-0.6,0.2
				c0,0.3-0.1,0.6-0.4,0.7c-0.2,0-0.3,0.1-0.5,0.1c0,0.2-0.1,0.5-0.3,0.6c-0.1,0.1-0.3,0.1-0.5,0c-0.1,0.2-0.2,0.5-0.4,0.6
				c-0.1,0-0.3,0.1-0.5,0c-0.1,0.2-0.2,0.5-0.5,0.6c-0.2,0-0.3,0-0.5,0c-0.1,0.2-0.2,0.6-0.5,0.6c-0.2,0.1-0.5-0.1-0.5,0.1
				c0,0.2-0.2,0.4-0.4,0.5c-0.3,0.1-0.6-0.2-0.6,0.2c-0.2,0.2-0.5,0.3-0.7,0.2c-0.1-0.1-0.2-0.1-0.3,0c0,0.3-0.3,0.4-0.6,0.4
				c-0.1,0-0.3-0.1-0.4-0.1c-0.1,0.2-0.2,0.5-0.5,0.5c-0.3,0.2-0.6-0.4-0.7,0.1c-0.2,0.2-0.4,0.3-0.7,0.2c-0.3-0.4-0.3,0.3-0.6,0.3
				c-0.2,0-0.5,0.1-0.7-0.1c-0.2,0.2-0.4,0.4-0.6,0.4c-0.3,0.2-0.5-0.6-0.7,0c-0.2,0.1-0.5,0.2-0.7,0.1c-0.1,0-0.2-0.1-0.2-0.2
				c-0.2,0.3-0.5,0.4-0.9,0.3c-0.1,0-0.2-0.1-0.3-0.2c-0.1,0.2-0.3,0.2-0.5,0.3c-0.4,0.1-0.5-0.7-0.8-0.1c-0.1,0.1-0.4,0.1-0.6,0.1
				c-0.1,0-0.2-0.2-0.3-0.2c-0.2,0.2-0.5,0.3-0.7,0.2c-0.1-0.1-0.3-0.2-0.3-0.3c-0.2,0.2-0.6,0.3-0.8,0.1c-0.1-0.1-0.2-0.2-0.3-0.3
				c-0.2,0.1-0.5,0.2-0.7,0.1c-0.3-0.1-0.4-0.6-0.7-0.2c-0.2,0.1-0.4,0-0.6-0.1c-0.2-0.6-0.6,0.2-1-0.2c-0.2-0.1-0.3-0.6-0.6-0.3
				c-0.2,0-0.5,0-0.6-0.2c-0.1-0.1-0.1-0.2-0.2-0.3c-0.1,0.1-0.4,0.1-0.6,0.1c-0.4,0-0.3-0.8-0.8-0.4c-0.3,0-0.5-0.1-0.6-0.4
				c-0.1-0.3-0.4,0-0.6-0.1c-0.4,0-0.2-0.8-0.7-0.5c-0.3,0-0.5-0.2-0.6-0.4c-0.1-0.4-0.6,0-0.8-0.3c-0.1-0.1-0.2-0.3-0.2-0.4
				c-0.2,0-0.5,0-0.7-0.1c-0.1-0.1-0.2-0.3-0.2-0.5c-0.2,0-0.5,0-0.7-0.2c-0.1-0.1-0.2-0.3-0.2-0.5c-0.3,0-0.6-0.1-0.8-0.4
				c0-0.1,0-0.2,0-0.3c-0.2,0-0.5,0-0.7-0.2c-0.1-0.1-0.1-0.3-0.2-0.5c-0.3,0-0.6-0.1-0.7-0.4c-0.1-0.1,0-0.3,0-0.4
				c-0.3,0-0.5-0.1-0.7-0.4c-0.1-0.1,0-0.4-0.1-0.5c-0.3,0-0.5-0.2-0.6-0.4c0-0.1,0-0.3,0-0.5c-0.2,0-0.5-0.2-0.6-0.4
				c-0.1-0.2,0-0.4,0-0.5c-0.2,0-0.5-0.2-0.6-0.4c0-0.1,0-0.3,0-0.5c-0.3-0.1-0.5-0.2-0.6-0.5c-0.2-0.3,0.2-0.7-0.3-0.7
				c-0.2-0.1-0.3-0.4-0.2-0.7c0.2-0.2-0.2-0.2-0.3-0.4c-0.1-0.2-0.2-0.4-0.1-0.6c0.3-0.3-0.5-0.4-0.4-0.8c0-0.2,0.1-0.3,0.1-0.4
				c-0.2-0.1-0.4-0.3-0.5-0.6c-0.1-0.3,0.4-0.6-0.1-0.7c-0.2-0.2-0.2-0.4-0.1-0.7c0.4-0.3-0.4-0.4-0.3-0.8c0-0.2,0-0.3,0.2-0.5
				c-0.2-0.2-0.5-0.5-0.3-0.9c0.1-0.1,0.1-0.2,0.2-0.3c-0.2-0.1-0.3-0.3-0.4-0.6c0-0.2,0.1-0.4,0.3-0.6c-0.3-0.2-0.3-0.5-0.3-0.8
				c0-0.1,0.2-0.2,0.2-0.3c-0.2-0.2-0.3-0.5-0.2-0.8c0-0.1,0.1-0.2,0.2-0.3c-0.2-0.2-0.3-0.5-0.2-0.7c0-0.1,0.2-0.2,0.3-0.3
				c-0.2-0.2-0.2-0.5-0.1-0.7c0.1-0.1,0.2-0.3,0.3-0.4c-0.1-0.2-0.2-0.4-0.2-0.7c0-0.4,0.6-0.4,0.2-0.8c0-0.2,0-0.4,0.1-0.5
				c0.1-0.1,0.2-0.1,0.3-0.2c-0.1-0.2-0.1-0.5-0.1-0.7c0.1-0.3,0.7-0.4,0.3-0.9c0-0.3,0.2-0.5,0.5-0.6c0-0.2-0.1-0.5,0-0.7
				c0-0.3,0.8-0.2,0.4-0.6c0-0.2,0-0.4,0.2-0.6c0.6,0,0.1-0.5,0.3-0.8c0-0.5,0.9-0.2,0.5-0.7c0-0.2,0.1-0.5,0.4-0.6
				c0.5,0.1,0-0.5,0.3-0.7c0.1-0.2,0.3-0.2,0.5-0.3c0-0.2,0-0.5,0.1-0.7c0.1-0.1,0.3-0.2,0.5-0.2c0-0.2,0-0.5,0.2-0.7
				c0.1-0.1,0.3-0.1,0.4-0.1c0-0.2,0-0.5,0.2-0.6c0.1-0.1,0.3-0.2,0.5-0.2c0-0.3,0.1-0.7,0.5-0.8c0.1,0,0.2,0,0.3,0
				c0-0.1,0-0.4,0.2-0.6c0.1-0.1,0.4-0.2,0.6-0.2c0.1-0.2,0.1-0.6,0.4-0.7c0.1,0,0.3,0,0.4,0c0-0.3,0.2-0.6,0.5-0.7
				c0.1-0.1,0.3,0,0.5,0c0-0.2,0.2-0.5,0.4-0.6c0.1,0,0.3,0,0.5,0c0.1-0.2,0.2-0.5,0.5-0.6c0.1,0,0.3,0,0.5,0
				c0.1-0.2,0.2-0.5,0.5-0.5c0.3-0.1,0.7,0.2,0.7-0.3c0.2-0.2,0.5-0.3,0.8-0.2c0.2,0.2,0.2-0.2,0.3-0.3c0.2-0.2,0.5-0.2,0.7-0.1
				c0.2,0.1,0.2-0.2,0.4-0.3c0.2-0.1,0.5-0.2,0.7,0c0.2,0.2,0.2-0.2,0.4-0.3c0.2-0.1,0.4-0.2,0.7-0.1c0.4,0.3,0.3-0.4,0.7-0.3
				c0.4-0.2,0.7,0.6,0.9-0.1c0.2-0.1,0.5-0.2,0.7-0.1c0.3,0.4,0.4-0.1,0.6-0.2c0.3-0.1,0.6,0,0.8,0.2c0-0.2,0.2-0.3,0.4-0.4
				c0.2,0,0.6,0,0.8,0.2c0.1-0.2,0.3-0.3,0.5-0.3c0.2,0,0.4,0.1,0.6,0.3c0.1-0.2,0.3-0.2,0.4-0.3C156.3-0.1,156.5,0.1,156.7,0.3z"/>
			<path fill="#FFFFFF" d="M156.6,0.5c0,0.2-0.1,0.4-0.3,0.5c-0.2,0.1-0.5,0-0.6-0.2c-0.1-0.2,0-0.4,0.2-0.6
				C156.2,0.2,156.5,0.3,156.6,0.5z"/>
			<path fill="#FFFFFF" d="M155.4,0.5c0.1,0.2,0,0.3-0.1,0.4c-0.1,0.1-0.4,0.2-0.5,0.1c-0.2-0.1-0.3-0.4-0.2-0.6
				c0-0.1,0.2-0.2,0.3-0.2C155.1,0.2,155.3,0.3,155.4,0.5z"/>
			<path fill="#FFFFFF" d="M157.6,0.6c0,0.2-0.1,0.4-0.2,0.5c-0.2,0.1-0.5,0-0.6-0.3c0-0.2,0-0.4,0.2-0.5
				C157.3,0.2,157.5,0.4,157.6,0.6z"/>
			<path fill="#FFFFFF" d="M154.3,0.6c0,0.2,0,0.4-0.1,0.5c-0.1,0.1-0.4,0.2-0.5,0.1c-0.2-0.1-0.2-0.4-0.2-0.5
				c0-0.1,0.1-0.2,0.2-0.3C153.9,0.3,154.2,0.4,154.3,0.6z"/>
			<path fill="#FFFFFF" d="M158.7,0.6c0.1,0.2,0,0.4-0.1,0.5c-0.1,0.1-0.3,0.1-0.5,0.1c-0.1-0.1-0.3-0.3-0.2-0.6
				c0.1-0.1,0.2-0.2,0.3-0.3C158.5,0.4,158.6,0.5,158.7,0.6z"/>
			<path fill="#FFFFFF" d="M153.1,0.8c0.1,0.2-0.1,0.4-0.3,0.5c-0.2,0-0.4-0.1-0.5-0.3c0-0.2,0-0.4,0.2-0.5
				C152.8,0.4,153.1,0.5,153.1,0.8z"/>
			<path fill="#FFFFFF" d="M159.8,0.8c0,0.2,0,0.3-0.1,0.5c-0.1,0.1-0.3,0.1-0.5,0.1c-0.2-0.1-0.3-0.3-0.2-0.5
				c0-0.1,0.2-0.2,0.3-0.3C159.5,0.5,159.7,0.6,159.8,0.8z"/>
			<path fill="#FFFFFF" d="M152,0.8c0.1,0.2,0,0.5-0.3,0.6c-0.1,0.1-0.3,0-0.4-0.1c-0.1-0.1-0.2-0.3-0.1-0.5c0-0.1,0.1-0.2,0.3-0.2
				C151.7,0.6,151.9,0.6,152,0.8z"/>
			<path fill="#FFFFFF" d="M160.9,1.1c0,0.2-0.1,0.4-0.3,0.5c-0.1,0.1-0.3,0-0.4-0.1c-0.1-0.1-0.1-0.3-0.1-0.4
				c0-0.1,0.2-0.3,0.3-0.3C160.6,0.8,160.9,0.9,160.9,1.1z"/>
			<path fill="#FFFFFF" d="M150.9,1.2c0,0.2-0.1,0.4-0.2,0.5c-0.2,0-0.4,0-0.5-0.1c-0.1-0.1-0.1-0.3-0.1-0.5
				c0.1-0.1,0.2-0.2,0.3-0.2C150.6,0.8,150.9,0.9,150.9,1.2z"/>
			<path fill="#FFFFFF" d="M156.4,1.3c0.1,0,0.2-0.1,0.2-0.2c0.2,0.2,0.5,0.3,0.7,0.2c0.1,0,0.2-0.1,0.3-0.2
				c0.1,0.2,0.3,0.3,0.5,0.3c0.2,0,0.3-0.1,0.5-0.2c0.1,0.2,0.3,0.4,0.6,0.4c0.1,0,0.3,0,0.5-0.2c0.2,0.2,0.5,0.5,0.9,0.3
				c0.1,0,0.1-0.1,0.2-0.1c0.1,0.2,0.2,0.3,0.4,0.4c0.3,0.2,0.7-0.4,0.7,0.1c0.2,0.2,0.5,0.3,0.8,0.2c0.2-0.2,0.1,0.2,0.3,0.2
				c0.1,0.2,0.4,0.2,0.6,0.2c0.1,0,0.1-0.1,0.2-0.1c0.1,0.2,0.2,0.4,0.4,0.5c0.3,0.2,0.7-0.3,0.7,0.2c0.2,0.5,0.9-0.1,0.9,0.5
				c0.2,0.4,0.9,0,0.9,0.5c0.1,0.2,0.4,0.3,0.6,0.4c0.4-0.2,0.2,0.5,0.6,0.5c0.1,0.1,0.3,0.1,0.5,0.1c0,0.2,0.2,0.5,0.4,0.6
				c0.1,0.1,0.3,0,0.4,0c0,0.2,0.1,0.3,0.2,0.5c0.2,0.2,0.4,0.2,0.6,0.2c0,0.3,0.1,0.6,0.4,0.7c0.1,0,0.2,0.1,0.4,0.1
				c0,0.3,0,0.5,0.2,0.7c0.1,0.1,0.3,0.1,0.5,0.2c0,0.3,0,0.5,0.2,0.6c0.1,0.1,0.3,0.2,0.5,0.2c-0.1,0.2,0,0.5,0.1,0.7
				c0.1,0.1,0.3,0.2,0.5,0.2c-0.1,0.2,0,0.5,0.2,0.7c0.1,0.1,0.2,0.2,0.4,0.2c0,0.3,0,0.6,0.2,0.8c0.1,0.2,0.6,0.1,0.3,0.4
				c-0.1,0.3,0.2,0.6,0.4,0.7c0.3,0,0,0.2,0,0.4c0,0.3,0.2,0.6,0.5,0.6c-0.1,0.2-0.1,0.5,0,0.7c0.1,0.3,0.6,0.3,0.3,0.6
				c-0.2,0.5,0.8,0.5,0.4,1.1c-0.2,0.5,0.6,0.6,0.3,1c-0.1,0.2,0,0.5,0.1,0.6c0.1,0.1,0.2,0.1,0.3,0.2c-0.2,0.2-0.2,0.4-0.1,0.7
				c0,0.1,0.2,0.3,0.3,0.4c-0.2,0.2-0.2,0.5-0.2,0.7c0.1,0.1,0.2,0.3,0.3,0.4c-0.2,0.2-0.2,0.5-0.2,0.8c0,0.1,0.2,0.2,0.3,0.3
				c-0.2,0.2-0.3,0.5-0.2,0.8c0.1,0.1,0.1,0.2,0.2,0.3c-0.2,0.1-0.3,0.4-0.3,0.6c0,0.2,0.1,0.4,0.3,0.5c-0.2,0.2-0.4,0.5-0.3,0.8
				c0,0.1,0.1,0.2,0.2,0.3c-0.2,0.1-0.3,0.3-0.3,0.6c0,0.2,0.2,0.3,0.1,0.5c-0.2,0.1-0.3,0.3-0.3,0.6c0,0.1,0.1,0.3,0.2,0.4
				c-0.1,0.2-0.4,0.3-0.4,0.6c0,0.2,0,0.4,0.1,0.5c-0.2,0.1-0.4,0.4-0.4,0.6c0,0.1,0,0.3,0.1,0.4c-0.2,0.1-0.4,0.3-0.4,0.5
				c-0.2,0.3,0.3,0.6-0.1,0.6c-0.2,0.2-0.3,0.5-0.2,0.8c0.1,0.2-0.1,0.1-0.2,0.2c-0.2,0.1-0.3,0.3-0.3,0.6c0,0.1,0.1,0.2,0.1,0.3
				c-0.2,0-0.5,0.2-0.6,0.5c-0.1,0.2,0,0.3,0,0.5c-0.2,0-0.4,0.2-0.5,0.4c-0.1,0.3,0,0.6-0.4,0.6c-0.5,0.2,0,1-0.6,0.9
				c-0.2,0.2-0.4,0.4-0.3,0.8c-0.2,0-0.5,0.2-0.6,0.4c0,0.1-0.1,0.3,0,0.4c-0.3,0-0.6,0.2-0.7,0.4c0,0.1,0,0.2,0,0.4
				c-0.3,0-0.6,0.1-0.7,0.4c0,0.1-0.1,0.2,0,0.4c-0.2-0.1-0.5,0-0.7,0.2c-0.1,0.1-0.2,0.3-0.1,0.4c-0.2,0.1-0.4,0-0.6,0.1
				c-0.2,0.1-0.2,0.3-0.2,0.6c-0.3-0.1-0.5,0-0.7,0.2c-0.1,0.1-0.2,0.2-0.2,0.4c-0.3-0.1-0.6,0-0.7,0.2c-0.2,0.1-0.1,0.6-0.4,0.3
				c-0.3,0-0.5,0.2-0.7,0.4c0,0.3-0.4,0-0.6,0.1c-0.3,0.1-0.3,0.5-0.5,0.5c-0.3-0.1-0.5,0-0.7,0.2c-0.1,0.1-0.1,0.2-0.1,0.3
				c-0.2-0.1-0.5-0.1-0.7,0c-0.3,0-0.2,0.7-0.5,0.3c-0.3,0-0.5,0-0.7,0.3c0,0.3-0.2,0.1-0.4,0c-0.6-0.2-0.6,0.8-1.1,0.3
				c-0.5-0.2-0.6,0.8-1,0.3c-0.2-0.1-0.4,0-0.5,0.1c-0.1,0.1-0.2,0.2-0.2,0.3c-0.2-0.2-0.5-0.2-0.7-0.2c-0.1,0-0.2,0.2-0.4,0.3
				c-0.2-0.2-0.5-0.2-0.8-0.2c-0.1,0.1-0.2,0.1-0.3,0.3c-0.2-0.2-0.5-0.2-0.7-0.2c-0.1,0-0.3,0.1-0.4,0.3c-0.1-0.2-0.3-0.3-0.6-0.3
				c-0.2,0-0.4,0.1-0.5,0.2c-0.2-0.2-0.5-0.3-0.8-0.2c-0.1,0-0.2,0.1-0.3,0.2c-0.1-0.2-0.3-0.3-0.6-0.3c-0.2,0-0.4,0.2-0.6,0.1
				c-0.1-0.2-0.3-0.3-0.6-0.3c-0.2-0.1-0.5,0.5-0.6,0c-0.1-0.2-0.4-0.2-0.6-0.2c-0.4,0.4-0.5-0.5-0.9-0.3c-0.2-0.1-0.5,0.3-0.5-0.1
				c-0.2-0.3-0.5-0.3-0.8-0.2c0,0-0.1,0.1-0.1,0c-0.1-0.2-0.2-0.4-0.4-0.4c-0.2-0.2-0.6,0.2-0.7-0.1c-0.2-0.3-0.5-0.4-0.8-0.3
				c-0.2,0.1-0.1-0.1-0.2-0.2c-0.2-0.5-1,0-1-0.5c-0.2-0.5-1,0-0.9-0.6c-0.2-0.5-0.9,0-0.9-0.6c-0.2-0.1-0.3-0.4-0.6-0.3
				c-0.3,0.2-0.2-0.2-0.3-0.4c-0.2-0.4-0.9,0-0.8-0.6c-0.1-0.2-0.4-0.4-0.7-0.4c-0.1,0-0.1-0.2-0.1-0.3c-0.2-0.2-0.4-0.4-0.7-0.4
				c0-0.3-0.1-0.5-0.4-0.7c-0.1,0-0.2,0-0.3-0.1c0-0.3,0-0.5-0.2-0.7c-0.1-0.1-0.3-0.1-0.4-0.2c0-0.2,0-0.4-0.1-0.6
				c-0.2-0.2-0.7-0.2-0.5-0.6c0-0.6-0.9-0.3-0.6-1c-0.1-0.2-0.3-0.4-0.6-0.4c0.1-0.2,0-0.5-0.1-0.7c-0.1-0.1-0.2-0.2-0.4-0.2
				c0.1-0.2,0-0.5-0.1-0.7c-0.1-0.1-0.2-0.3-0.4-0.3c0.1-0.2,0.1-0.6-0.1-0.8c-0.1-0.2-0.5-0.2-0.2-0.5c0-0.2,0-0.4-0.1-0.6
				c-0.6-0.1,0-0.5-0.2-0.9c0-0.3-0.8-0.3-0.3-0.6c0-0.2,0-0.4-0.1-0.6c-0.1-0.1-0.2-0.1-0.3-0.2c0.2-0.2,0.2-0.5,0.1-0.8
				c-0.1-0.1-0.2-0.2-0.3-0.3c0.1-0.2,0.2-0.5,0.1-0.7c0-0.1-0.2-0.2-0.3-0.4c0.2-0.2,0.2-0.4,0.2-0.7c0-0.1-0.2-0.3-0.3-0.4
				c0.1-0.2,0.3-0.5,0.2-0.7c0-0.1-0.2-0.2-0.2-0.3c0.2-0.2,0.3-0.5,0.2-0.7c-0.1-0.1-0.1-0.2-0.2-0.3c0.2-0.1,0.3-0.5,0.3-0.7
				c0-0.1-0.1-0.2-0.2-0.3c0.2-0.2,0.4-0.4,0.3-0.8c-0.5-0.4,0.5-0.6,0.1-1.2c-0.4-0.3,0.3-0.4,0.2-0.8c0-0.2,0-0.3-0.1-0.5
				c0.3-0.2,0.5-0.5,0.4-0.9c0,0-0.1-0.1-0.1-0.1c0.2,0,0.4-0.3,0.4-0.5c0.3-0.3-0.4-0.7,0.1-0.7c0.2-0.2,0.3-0.4,0.2-0.7
				c0,0-0.1-0.1-0.1-0.1c0.3-0.1,0.5-0.4,0.5-0.7c0-0.1,0-0.2,0-0.3c0.2,0,0.4-0.2,0.5-0.5c0.2-0.2-0.3-0.6,0.2-0.6
				c0.2-0.2,0.4-0.5,0.3-0.8c0.2,0,0.5-0.2,0.6-0.5c0-0.1,0-0.3,0-0.4c0.2,0,0.5-0.2,0.6-0.5c0-0.3,0-0.5,0.3-0.5
				c0.3-0.1,0.4-0.4,0.4-0.6c0-0.1,0.2-0.1,0.4-0.2c0.2-0.2,0.4-0.4,0.3-0.7c0.3,0,0.6-0.1,0.7-0.4c0-0.1,0-0.3,0.1-0.4
				c0.3,0,0.5-0.2,0.7-0.4c0-0.1,0-0.1,0-0.2c0.3,0,0.7-0.1,0.8-0.4c0-0.1,0-0.2,0-0.3c0.2,0,0.4,0,0.5-0.1c0.2-0.2,0.3-0.4,0.3-0.6
				c0.2,0,0.4,0,0.6-0.1c0.2-0.1,0.3-0.3,0.3-0.5c0.2,0,0.5,0,0.7-0.2c0.2-0.1,0.1-0.4,0.4-0.4c0.2,0.1,0.5,0,0.7-0.2
				c0.1-0.1,0.1-0.2,0.2-0.3c0.2,0.1,0.4,0.1,0.6,0c0.2-0.1,0.3-0.4,0.5-0.4c0.1,0.1,0.4,0.1,0.5,0c0.4,0,0.2-0.7,0.7-0.4
				c0.2,0,0.4,0,0.6-0.2c0-0.1,0.1-0.2,0.2-0.3c0.2,0.1,0.5,0.2,0.7,0.1c0.2,0,0.3-0.2,0.3-0.4c0.2,0,0.5,0.2,0.7,0.1
				c0.2-0.1,0.3-0.2,0.4-0.4c0.2,0.1,0.4,0.2,0.7,0.1c0.2-0.1,0.3-0.2,0.4-0.4c0.2,0.2,0.4,0.2,0.7,0.2c0.2-0.1,0.3-0.2,0.4-0.4
				c0.2,0.2,0.4,0.3,0.7,0.2c0.1-0.1,0.3-0.2,0.4-0.3c0.2,0.2,0.5,0.3,0.8,0.2c0.1,0,0.2-0.2,0.3-0.2C155.8,1.3,156.1,1.3,156.4,1.3
				z"/>
			<path fill="#FFFFFF" d="M161.9,1.3c0.1,0.2-0.1,0.5-0.3,0.5c-0.2,0-0.5-0.1-0.5-0.3c-0.1-0.2,0.1-0.4,0.2-0.5
				C161.6,1,161.9,1.1,161.9,1.3z"/>
			<path fill="#FFFFFF" d="M149.8,1.4c0.1,0.2-0.1,0.5-0.3,0.6c-0.2,0.1-0.5-0.1-0.6-0.3c-0.1-0.2,0.1-0.4,0.3-0.5
				C149.5,1.1,149.7,1.2,149.8,1.4z"/>
			<path fill="#FFFFFF" d="M163,1.7c0,0.2-0.1,0.4-0.3,0.5c-0.2,0.1-0.5,0-0.6-0.2c-0.1-0.2,0-0.4,0.2-0.6
				C162.7,1.3,163,1.5,163,1.7z"/>
			<path fill="#FFFFFF" d="M148.7,1.8c0,0.2,0,0.4-0.2,0.5c-0.2,0.1-0.4,0-0.5-0.1c-0.1-0.1-0.2-0.3-0.1-0.5c0-0.1,0.2-0.2,0.3-0.2
				C148.4,1.4,148.6,1.6,148.7,1.8z"/>
			<path d="M157.9,2c-0.2,0.8-0.7-0.3-1.2,0.1c-0.1,0-0.2,0.2-0.2,0.3c0.4,0.5,1.4,0.4,1.4,1.3c0,0.3-0.1,0.5-0.2,0.7
				c-0.4,0.4-1,0.3-1.5,0.3c-0.2-0.1-0.5-0.2-0.7-0.4c0.1-0.2,0.2-0.3,0.3-0.5c0.2,0.2,0.4,0.5,0.7,0.6c0.3,0,0.5-0.1,0.6-0.3
				c-0.1-0.8-1.2-0.4-1.4-1.3c0-0.2,0-0.5,0.1-0.7c0.4-0.4,1-0.4,1.6-0.3C157.6,1.8,157.8,1.9,157.9,2z"/>
			<path d="M155,2.5c0.3,0.6,0.2,1.4-0.2,1.9c-0.4,0.4-0.8,0.6-1.3,0.5c-0.6-0.1-1-0.7-1.1-1.3c-0.1-0.7,0.2-1.3,0.8-1.7
				c0.2-0.1,0.6-0.2,0.9-0.1C154.5,1.9,154.8,2.1,155,2.5z"/>
			<path fill="#FFFFFF" d="M164.1,2c0.1,0.2,0,0.3-0.1,0.4c-0.1,0.2-0.4,0.1-0.6,0.1c-0.2-0.1-0.2-0.4-0.1-0.6
				C163.5,1.6,164,1.7,164.1,2z"/>
			<path fill="#FFFFFF" d="M147.7,2.2c0,0.2,0,0.4-0.2,0.5c-0.2,0.1-0.5,0-0.6-0.3c-0.1-0.2,0.1-0.5,0.3-0.6
				C147.4,1.9,147.6,2,147.7,2.2z"/>
			<path fill="#FFFFFF" d="M154.1,2.6c0.2,0.6,0.3,1.4-0.1,1.9c-0.2,0-0.4-0.1-0.5-0.3c-0.2-0.6-0.4-1.4,0.1-2
				C153.9,2.1,154.1,2.4,154.1,2.6z"/>
			<path fill="#FFFFFF" d="M165.1,2.5c0,0.1,0,0.3-0.1,0.4C164.9,3,164.6,3,164.5,3c-0.2-0.1-0.2-0.4-0.2-0.6
				C164.4,2.1,165,2.1,165.1,2.5z"/>
			<path fill="#FFFFFF" d="M146.6,2.6c0.1,0.2,0,0.5-0.2,0.6c-0.2,0.1-0.4,0-0.5-0.1c-0.2-0.1-0.1-0.4,0-0.6
				C146,2.3,146.5,2.3,146.6,2.6z"/>
			<path d="M150.7,2.7c0.2,0.7,0.3,1.5,0.6,2.2c0.4,0,0.9-0.1,1.1-0.5c0,0.2,0.1,0.4,0.1,0.7c-0.6,0.1-1.2,0.3-1.8,0.4
				c-0.1-0.8-0.4-1.7-0.7-2.6c-0.1-0.1-0.2-0.1-0.2-0.2c0.3-0.1,0.7-0.2,1-0.3C150.8,2.5,150.7,2.6,150.7,2.7z"/>
			<path d="M162.2,3c-0.5,0.2-0.1,0.8-0.2,1.2c0,0.6,0,1.3,0.2,1.8c-0.4-0.1-0.8-0.3-1.1-0.4c0.3-0.1,0.2-0.4,0.2-0.7
				c-0.3-0.2-0.7-0.3-1.1-0.3c-0.1,0.2-0.4,0.4-0.3,0.7c-0.2-0.1-1.4,0-0.5-0.4c0.5-0.7,1-1.4,1.5-2c0-0.1,0-0.2-0.1-0.3
				C161.4,2.6,161.8,2.8,162.2,3z"/>
			<path fill="#FFFFFF" d="M166.1,2.9c0.1,0.2,0,0.3-0.1,0.5c-0.1,0.1-0.4,0.2-0.5,0c-0.2-0.1-0.2-0.4-0.1-0.6
				c0-0.1,0.2-0.2,0.3-0.2C165.8,2.6,166,2.8,166.1,2.9z"/>
			<path fill="#FFFFFF" d="M145.6,3.2c0,0.1,0,0.3-0.1,0.4c-0.1,0.1-0.3,0.1-0.5,0.1c-0.2-0.1-0.3-0.4-0.2-0.6
				C145,2.7,145.5,2.8,145.6,3.2z"/>
			<path fill="#FFFFFF" d="M167,3.5c0,0.2,0,0.3-0.1,0.5c-0.1,0.1-0.3,0.1-0.4,0.1c-0.2,0-0.2-0.2-0.3-0.3c0-0.2,0.1-0.5,0.3-0.5
				C166.7,3.2,167,3.3,167,3.5z"/>
			<path fill="#FFFFFF" d="M161.2,4.4c-0.2,0-0.6-0.1-0.6-0.2c0.2-0.3,0.3-0.6,0.6-0.8C161.2,3.7,161.2,4,161.2,4.4z"/>
			<path fill="#FFFFFF" d="M144.7,3.7c0,0.2-0.1,0.4-0.3,0.5c-0.2,0-0.5-0.1-0.5-0.3c0-0.2,0-0.4,0.3-0.5
				C144.3,3.3,144.6,3.5,144.7,3.7z"/>
			<path d="M147.9,3.9c-0.4-0.1-0.9,0.2-1.3,0.4c0.1,0.2,0.2,0.6,0.4,0.6c0.3-0.1,0.5-0.3,0.7-0.5c0.1,0.2,0.2,0.4,0.3,0.7
				c-0.3-0.1-0.6,0.1-0.9,0.2c0,0.3,0.3,0.6,0.4,1c0.8,0.3-0.4,0.5-0.6,0.7c0-0.1,0-0.2-0.1-0.4c-0.3-0.7-0.7-1.3-1-2
				c0-0.1-0.2-0.1-0.3-0.1c0.6-0.4,1.4-0.7,2.1-1C147.8,3.6,147.9,3.7,147.9,3.9z"/>
			<path d="M164.4,3.9c-0.1,0.6-0.1,1.4,0,2.1c0.3-0.4,0.5-1,0.8-1.4c0-0.1,0-0.2,0-0.3c0.2,0,0.5,0.2,0.7,0.4
				c-0.2,0-0.4,0.2-0.5,0.4c-0.3,0.7-0.7,1.3-1,2c-0.2,0-0.4-0.2-0.6-0.3c-0.1-0.8,0-1.5,0-2.3c-0.3,0.6-0.5,1.2-0.7,1.7
				c0.1,0.4-0.3,0-0.5,0c-0.1-0.1,0.1-0.2,0.1-0.3c0.2-0.7,0.6-1.3,0.8-2c0-0.1,0-0.2,0-0.3C163.8,3.5,164.1,3.7,164.4,3.9z"/>
			<path fill="#FFFFFF" d="M168,4c0.1,0.1,0,0.3-0.1,0.5c-0.1,0.1-0.4,0.1-0.5,0c-0.2-0.1-0.2-0.3-0.1-0.5c0-0.2,0.2-0.2,0.3-0.3
				C167.7,3.8,167.9,3.9,168,4z"/>
			<path fill="#FFFFFF" d="M143.7,4.2c0.1,0.2,0,0.3,0,0.5c-0.1,0.1-0.3,0.1-0.4,0.1c-0.1,0-0.3-0.1-0.3-0.3c0-0.2,0-0.5,0.3-0.5
				C143.4,4,143.6,4,143.7,4.2z"/>
			<path fill="#FFFFFF" d="M168.9,4.6c0.1,0.2,0,0.3-0.1,0.5c-0.1,0.1-0.4,0.1-0.5,0.1c-0.2-0.1-0.2-0.4-0.2-0.6
				c0.1-0.1,0.2-0.2,0.3-0.2C168.6,4.4,168.8,4.5,168.9,4.6z"/>
			<path fill="#FFFFFF" d="M142.8,4.9c0,0.2,0,0.5-0.3,0.5c-0.1,0-0.3,0-0.4-0.1C142,5.2,141.9,5,142,4.8c0.1-0.1,0.2-0.2,0.4-0.2
				C142.5,4.6,142.7,4.8,142.8,4.9z"/>
			<path d="M146,5.8c0.3,0.5,0.3,1.3,0,1.8c-0.2,0.2-0.4,0.3-0.7,0.5c-0.7,0.2-1.3-0.2-1.7-0.7c-0.2-0.4-0.4-1.2-0.1-1.6
				c0.2-0.3,0.5-0.6,0.9-0.6C145.1,5,145.6,5.2,146,5.8z"/>
			<path fill="#FFFFFF" d="M169.8,5.3c0.1,0.2,0,0.5-0.3,0.5c-0.2,0.1-0.4-0.1-0.5-0.3c-0.1-0.2,0.1-0.4,0.3-0.5
				C169.5,5,169.7,5.1,169.8,5.3z"/>
			<path d="M156.2,5.4c0,0.1,0,0.1,0,0.1c0.3-0.1,0.8,0.3,1-0.1c0.1-0.1,0.3-0.1,0.5-0.1c0.2,0.2,0.3,0.5,0.6,0.4
				c0.1-0.2,0.3-0.4,0.6-0.2c0.3,0.1,0.2,0.6,0.6,0.5c0.2-0.1,0.4-0.2,0.7-0.1c0.2,0.2,0.2,0.6,0.6,0.5c0.1-0.2,0.3-0.2,0.5-0.2
				c0.2,0.1,0.3,0.3,0.3,0.4c0.1,0.1,0.3,0.2,0.4,0.2c0.1-0.1,0.4-0.2,0.6-0.1c0.3,0.1,0.1,0.6,0.5,0.6c0.1-0.2,0.4-0.2,0.6-0.1
				c0.4,0.1,0,0.7,0.5,0.7c0.2-0.1,0.4-0.2,0.6,0c0.4,0.2,0,0.7,0.5,0.8c0.1-0.1,0.4-0.2,0.6,0c0.4,0.2-0.1,0.7,0.4,0.8
				c0.2,0,0.4-0.1,0.6,0c0.5,0.2-0.2,0.7,0.4,0.9c0.1-0.1,0.4-0.1,0.5,0c0.1,0.1,0.1,0.3,0.1,0.5c0.1,0,0.3,0,0.5,0
				c0,0.3,0,0.6,0.1,0.8c0.1-0.1,0.4-0.1,0.5,0c0.2,0.1,0.3,0.4,0.2,0.7c-0.2,0.3,0.2,0.5,0.3,0.8c0.2,0.1,0.6,0,0.6,0.3
				c0.1,0.3-0.3,0.5,0,0.8c0.2,0,0.5,0,0.6,0.3c0.1,0.3-0.3,0.5,0,0.8c0.2,0.1,0.5,0.1,0.6,0.4c0.2,0.3-0.4,0.5-0.1,0.8
				c0.2,0.1,0.5,0.1,0.5,0.4c0,0.3-0.3,0.5-0.1,0.8c0.2,0.1,0.4,0.2,0.5,0.4c0.1,0.4-0.4,0.6-0.1,0.9c0.1,0,0.3,0.2,0.4,0.3
				c0.1,0.1,0,0.3-0.1,0.4c-0.2,0.1-0.1,0.3-0.1,0.4c0.1,0.1,0.4,0.2,0.4,0.4c0,0.1,0,0.3-0.1,0.4c-0.1,0.1-0.3,0.2-0.2,0.4
				c0.1,0.2,0.5,0.4,0.3,0.7c0,0.1-0.2,0.2-0.3,0.3c0.1,0.2-0.2,0.6,0.2,0.7c0.1,0.1,0.1,0.3,0,0.5c-0.3,0.1-0.3,0.4-0.3,0.6
				c0.1,0.2,0.3,0.4,0.2,0.7c-0.5,0.1-0.4,0.7-0.5,1.2c0.2,0.2,0.4,0.4,0.3,0.8c-0.1,0.2-0.3,0.3-0.5,0.3c-0.1,0.3-0.5,0.8,0,1.1
				c0.1,0.2-0.1,0.4-0.3,0.5c-0.3-0.1-0.2,0.2-0.4,0.3c0.1,0.2,0.2,0.4,0.1,0.6c-0.1,0.4-0.7,0.1-0.7,0.6c0.1,0.2,0.2,0.4,0.1,0.6
				c-0.1,0.4-0.7,0-0.7,0.6c0.1,0.1,0.1,0.3,0.1,0.5c-0.2,0.4-0.7,0-0.8,0.5c0.1,0.1,0.1,0.3,0.1,0.5c-0.2,0.5-0.7,0-0.8,0.4
				c0.1,0.1,0.1,0.3,0.1,0.5c-0.1,0.2-0.3,0.3-0.6,0.2c-0.2,0-0.2,0.2-0.4,0.3c0.1,0.1,0.1,0.3,0,0.5c-0.1,0.1-0.4,0.2-0.6,0.1
				c-0.5,0.2,0,0.8-0.6,0.9c-0.3,0-0.5-0.1-0.7,0.2c0,0.2,0,0.4-0.1,0.5c-0.1,0.1-0.3,0.1-0.5,0.1c-0.1-0.1-0.3,0.1-0.4,0.2
				c0,0.2,0,0.4-0.1,0.5c-0.1,0.1-0.3,0.1-0.5,0c0,0-0.1,0-0.1-0.1c-0.3,0.3-1,0.2-0.9,0.9c-0.1,0.2-0.4,0.3-0.7,0.2
				c-0.2-0.4-0.6,0-0.9,0.1c-0.1,0.2-0.2,0.5-0.5,0.5c-0.3,0-0.5-0.3-0.7-0.1c0,0.2-0.1,0.4-0.3,0.5c-0.4,0.2-0.6-0.5-1-0.1
				c-0.1,0.2-0.2,0.3-0.3,0.4c-0.4,0.1-0.5-0.5-0.9-0.2c-0.1,0.2-0.2,0.4-0.4,0.4c-0.4,0.1-0.4-0.5-0.9-0.3
				c-0.1,0.1-0.1,0.3-0.3,0.4c-0.1,0-0.3,0-0.5-0.1c0-0.3-0.3-0.2-0.5-0.2c-0.1,0.1-0.2,0.3-0.3,0.3c-0.5,0.1-0.6-0.8-1-0.2
				c-0.1,0.1-0.3,0.1-0.5,0.1c-0.2-0.2-0.3-0.5-0.6-0.4c-0.1,0.2-0.3,0.3-0.6,0.2c-0.3-0.2-0.3-0.5-0.7-0.5
				c-0.1,0.2-0.4,0.3-0.7,0.2c-0.3-0.1-0.1-0.6-0.6-0.5c-0.1,0.2-0.3,0.2-0.5,0.2c-0.3-0.1-0.1-0.5-0.4-0.5c-0.3,0-0.7-0.5-0.9-0.1
				c-0.2,0.1-0.4,0-0.6,0c-0.2-0.2-0.3-0.4-0.2-0.7c-0.3-0.1-0.7-0.6-1-0.2c-0.2,0-0.4-0.1-0.5-0.3c0-0.2,0-0.4-0.3-0.5
				c-0.2,0.1-0.4,0.1-0.6,0c-0.3-0.2,0.1-0.7-0.4-0.8c-0.2,0.1-0.4,0.1-0.6,0c-0.1-0.1-0.1-0.3-0.1-0.5c0-0.1-0.2-0.3-0.3-0.4
				c-0.1,0.1-0.3,0.1-0.4,0c-0.2-0.1-0.3-0.4-0.2-0.6c0-0.2-0.2-0.3-0.3-0.4c-0.2,0-0.3,0.1-0.5,0c-0.1-0.1-0.2-0.3-0.1-0.5
				c0.1-0.1,0-0.2,0-0.3c-0.1-0.1-0.4,0-0.5-0.1c-0.2-0.1-0.2-0.4-0.2-0.6c0.1,0,0.1-0.2,0-0.3c-0.1-0.3-0.7,0-0.7-0.4
				c-0.1-0.3,0.3-0.5,0-0.8c-0.2,0.1-0.5-0.1-0.6-0.3c0-0.2,0-0.3,0.1-0.4c0-0.2-0.1-0.3-0.2-0.4c-0.2,0.1-0.4,0-0.5-0.2
				c-0.1-0.1,0-0.3,0.1-0.5c0.1-0.1,0-0.3-0.1-0.4c-0.2,0-0.4-0.1-0.5-0.3c0-0.2,0-0.4,0.2-0.6c-0.2-0.3,0-1.1-0.6-1
				c-0.2-0.2-0.3-0.4-0.2-0.7c0.5-0.2,0.2-0.7,0.2-1.1c-0.1-0.1-0.3-0.1-0.4-0.3c-0.1-0.2,0-0.3,0.1-0.4c0.2-0.1,0.3-0.3,0.2-0.5
				c-0.1-0.1-0.4-0.1-0.4-0.4c0-0.2,0.1-0.4,0.3-0.6c0.2,0,0.1-0.3,0.1-0.5c-0.2,0-0.3-0.1-0.4-0.3c0-0.2,0.1-0.5,0.3-0.6
				c0,0,0.1,0,0.1,0c0-0.1,0-0.2,0-0.3c-0.1-0.1-0.3-0.2-0.3-0.3c0-0.2,0.1-0.5,0.3-0.5c0.1,0,0.2,0,0.2-0.1c0.2-0.5-0.5-0.5-0.2-1
				c0.1-0.2,0.5-0.1,0.5-0.4c-0.2-0.1-0.3-0.4-0.3-0.6c0.1-0.4,0.7-0.1,0.6-0.6c-0.2-0.1-0.3-0.4-0.2-0.6c0.1-0.3,0.7-0.1,0.6-0.5
				c-0.1-0.2-0.3-0.4-0.2-0.6c0.1-0.2,0.3-0.2,0.4-0.2c0.2,0,0.2-0.2,0.3-0.3c-0.1-0.2-0.3-0.4-0.1-0.6c0.1-0.5,0.8,0,0.8-0.5
				c-0.1-0.1-0.2-0.4-0.1-0.6c0.1-0.2,0.4-0.2,0.6-0.2c0,0,0,0,0,0c0.2-0.2,0.5-0.5,0.5-0.8c-0.1-0.1-0.2-0.4-0.1-0.6
				c0.1-0.2,0.3-0.3,0.4-0.4c0.2-0.1,0.4,0.2,0.5,0c0.1-0.3-0.3-1,0.4-0.8c0-0.2,0.1-0.4,0.3-0.5c0.1,0,0.3,0,0.4,0.1
				c0.2-0.1,0.4-0.3,0.3-0.5c0-0.2,0.1-0.3,0.2-0.4c0.3-0.1,0.6,0.2,0.8-0.2c-0.1-0.1,0-0.3,0-0.5c0.1-0.1,0.4-0.1,0.5-0.1
				c0.1,0.2,0.2,0,0.4-0.1c0-0.2,0-0.5,0.2-0.6c0.1,0,0.3,0,0.4,0c0.1,0.1,0.2,0,0.3,0c0.2-0.2,0-0.6,0.4-0.7c0.3-0.2,0.5,0.5,0.8,0
				c0.1-0.2,0.1-0.4,0.3-0.5c0.4-0.2,0.6,0.4,1,0c0-0.2,0.1-0.5,0.3-0.5c0.3-0.1,0.5,0.4,0.8,0.1c0.1-0.2,0.2-0.4,0.4-0.5
				c0.4-0.1,0.5,0.5,0.9,0.2c0.1-0.2,0.1-0.4,0.4-0.4c0.4-0.1,0.5,0.5,0.9,0.2c0-0.2,0.2-0.4,0.4-0.4c0.2,0,0.4,0.2,0.6,0.3
				c0.3-0.1,0.9,0.1,1-0.3c0.1-0.1,0.2-0.2,0.4-0.2C155.8,5.1,156.1,5.2,156.2,5.4z"/>
			<path d="M168.1,5.8c0,0.2-0.2,0.5-0.3,0.7c-0.1-0.3-0.3-0.7-0.6-0.8c-0.3-0.1-0.5,0-0.7,0.1c-0.4,0.4-0.8,0.9-0.7,1.5
				c0,0.1,0.2,0.2,0.3,0.3c0.4,0,0.6-0.5,0.7-0.8c0-0.1,0-0.2,0.1-0.1c0.2,0.2,0.5,0.3,0.8,0.5c-0.4,0.1-0.6,0.6-0.9,1
				c-0.6-0.1-1.3-0.1-1.6-0.8c-0.3-0.7-0.1-1.3,0.4-1.8c0.4-0.4,0.9-0.6,1.5-0.5C167.5,5.2,167.7,5.7,168.1,5.8z"/>
			<path fill="#FFFFFF" d="M141.9,5.6c0.1,0.2,0,0.5-0.2,0.6c-0.2,0.1-0.5,0-0.6-0.2c-0.1-0.2,0-0.5,0.3-0.6
				C141.6,5.3,141.8,5.4,141.9,5.6z"/>
			<path fill="#FFFFFF" d="M145.6,7.1c0,0.2,0,0.4-0.2,0.5c-0.7,0-1.1-0.9-1.3-1.4c0-0.2,0-0.5,0.2-0.6C145,5.7,145.4,6.5,145.6,7.1
				z"/>
			<path fill="#FFFFFF" d="M155.2,6c0.2,0.2,0.4,0.3,0.7,0.2c0.2-0.1,0.4-0.3,0.4-0.4c0.3,0,0.9-0.2,1,0.3c0.1,0.2,0.3,0.1,0.5,0.1
				c0.1-0.2,0.3-0.2,0.6-0.2c0,0.2,0.2,0.3,0.3,0.4c0.4,0.2,0.5-0.5,0.9-0.1c0,0.2,0.1,0.4,0.3,0.5c0.4,0.2,0.5-0.5,0.9-0.1
				c0,0.2,0.1,0.4,0.3,0.5c0.4,0.2,0.5-0.4,1,0c0,0.2,0.1,0.4,0.3,0.5c0.3,0.2,0.5-0.4,0.8,0c-0.1,0.2,0.1,0.4,0.3,0.5
				c0.3,0.2,0.6-0.3,0.8,0c-0.1,0.3,0,0.5,0.3,0.6c0.3,0.2,0.5-0.3,0.7,0c0.2,0.1,0,0.3,0.1,0.4c0.1,0.2,0.3,0.4,0.6,0.3
				c0.1-0.1,0.2,0,0.3,0c0.2,0.1,0,0.3,0.1,0.5c0.2,0.6,0.7,0,0.9,0.4c0,0.1-0.1,0.3-0.1,0.3H144c-0.1-0.2,0.1-0.4,0.2-0.5
				c0.2,0,0.3,0.1,0.5,0c0.4-0.1,0.1-1,0.7-0.8c0.2,0,0.5-0.1,0.5-0.3c0-0.2,0-0.4,0.2-0.5c0.1,0,0.4,0.1,0.6,0
				c0.4-0.2,0-0.7,0.5-0.7c0.1,0.1,0.3,0.1,0.5,0.1c0.4-0.1,0.1-0.7,0.5-0.7c0.2,0.1,0.4,0.2,0.6,0.1c0.4-0.1,0.1-0.7,0.6-0.6
				c0.2,0.1,0.4,0.2,0.6,0.2c0.1,0,0.2-0.2,0.3-0.3c-0.1-0.2,0.1-0.2,0.2-0.2c0.2,0,0.4,0.3,0.7,0.2c0.3-0.1,0.2-0.6,0.7-0.5
				c0.1,0.2,0.4,0.3,0.6,0.2c0.3-0.2,0.3-0.6,0.7-0.4c0.1,0.2,0.4,0.3,0.6,0.2c0.2,0,0.2-0.5,0.6-0.4C154.7,5.8,155.2,5.6,155.2,6z"
				/>
			<path fill="#FFFFFF" d="M170.6,6c0.1,0.2,0,0.5-0.3,0.6c-0.1,0.1-0.3,0-0.4-0.1c-0.1-0.1-0.1-0.3-0.1-0.5
				C169.9,5.7,170.5,5.7,170.6,6z"/>
			<path fill="#FFFFFF" d="M141.1,6.4c0,0.2-0.1,0.4-0.3,0.5c-0.2,0-0.4-0.1-0.5-0.2c-0.1-0.2,0-0.4,0.2-0.5
				C140.8,5.9,141.1,6.1,141.1,6.4z"/>
			<path fill="#FFFFFF" d="M171.4,6.7c0.1,0.2,0,0.5-0.3,0.6c-0.2,0-0.5,0-0.5-0.2c0-0.1,0-0.3,0.1-0.4
				C170.9,6.4,171.3,6.5,171.4,6.7z"/>
			<path d="M170.4,8.1c-0.1,0.2-0.4,0.7-0.3,0.1c-0.1-0.3-0.5-0.4-0.7-0.7c-0.2,0.2-0.4,0.4-0.6,0.6c0.2,0.3,0.4,0.5,0.7,0.6
				c-0.1,0.1-0.2,0.3-0.4,0.4c-0.1-0.3-0.4-0.5-0.6-0.6c-0.2,0.2-0.4,0.5-0.7,0.7c0.3,0.3,0.7,0.7,1.1,0.9c-0.2,0.1-0.4,0.1-0.6,0.1
				c-0.4-0.5-0.9-0.9-1.4-1.3c0.3,0,0.4-0.2,0.6-0.4c0.4-0.6,1.2-1.1,1.3-1.8C169.3,7,169.9,7.6,170.4,8.1z"/>
			<path d="M153.8,6.9c0,0.1,0,0.1,0,0.1c0.3,0,0.6-0.3,1-0.2c0.9,0.2,1.8,0.2,2.7,0c0.4,0,0.7,0.1,0.9,0.5c0,0.1,0,0.2,0.1,0.2
				c0.1-0.1,0.2-0.3,0.4-0.5c0.4-0.2,0.6,0.2,1,0.1c0,0.1-0.2,0.3,0,0.3c0.4,0,0.9,0.1,1.1,0.5c0.3,0.1,0.5,0.5,0.9,0.5
				c-0.3,0.1-0.5-0.2-0.7-0.4c-0.1,0.1-0.2,0.3-0.4,0.2c-0.2-0.2,0.4-0.3,0-0.5c-0.3-0.2-0.6-0.3-1-0.3c0,0.3,0.2,0.7-0.2,0.8
				c0,0-0.1,0-0.1,0.1c0,0.3,0.9,0.6,0.2,0.8c-0.1,0-0.1,0.1-0.2,0c-0.1,0.2,0,0.4,0,0.6c-0.3,0.2-0.6-0.1-0.9-0.2
				c-0.2-0.3-0.6,0-0.9-0.2c0.2-0.2,0.1-0.5,0.2-0.7c-0.2,0-0.5-0.1-0.7-0.3c0,0.1-0.2,0.1-0.1,0.2c0.2,0.1,0.1,0.3,0.1,0.5
				c-0.1,0.4-1,0.2-0.6,0.7c0,0.2-0.1,0.4-0.3,0.4c-0.2,0-0.3-0.1-0.4-0.3c-0.1,0.2-0.3,0.3-0.6,0.2c-0.2-0.1-0.2-0.4-0.2-0.6
				c0.2-0.2,0.1-0.3,0.1-0.5c-0.1,0-0.2,0-0.3,0.1c0,0.1-0.1,0.4-0.2,0.4c-0.1,0-0.3,0-0.4-0.2c-0.1-0.3,0.2-0.5,0.4-0.6
				c-0.2,0-0.4,0.2-0.6,0.1c-0.2,0-0.4,0.1-0.6,0.1c-0.2,0.6-0.9,0.7-1.4,0.7c0-0.1,0.2-0.2,0.2-0.4c0-0.2,0.1-0.5,0.3-0.7
				c-0.1-0.1-0.3,0-0.4-0.2c0-0.2,0.3-0.2,0.4-0.3c0.4-0.4-0.5,0-0.4-0.4c0,0,0,0-0.1,0c-0.8,0.3-1.5,0.8-2.4,0.8
				c0.1-0.7,0.9-0.4,1.2-0.8c0.5,0.1,0.9-0.5,1.4-0.4c0.2-0.1,0.2-0.3,0.2-0.4C152.9,6.9,153.5,6.4,153.8,6.9z"/>
			<path fill="#FFFFFF" d="M140.4,7.1c0,0.2-0.1,0.4-0.3,0.5c-0.1,0-0.3,0-0.4-0.1c-0.1-0.1-0.1-0.3-0.1-0.5
				C139.7,6.6,140.3,6.8,140.4,7.1z"/>
			<path fill="#FFFFFF" d="M153.6,7.1c-0.5,0.4-1,1-0.8,1.7c0.1-0.4,0.2-0.8,0.5-1.1c0.5-0.3,0.9-0.9,1.5-0.6c0.2,0.3,0,0.6-0.1,0.9
				c-0.2,0.5-0.9,0-1,0.4c0.3,0.1,0,0.4,0.1,0.5c-0.2,0.1-0.4-0.2-0.6,0c0,0.2-0.2,0.4-0.3,0.5c-0.2,0.1-0.4,0.2-0.7,0.2
				c0.3-0.2,0-0.7,0.4-0.9c0-0.1-0.1-0.1-0.2-0.2c-0.1,0-0.3,0-0.2-0.1c0.2-0.1,0.5-0.3,0.6-0.5c-0.1-0.2-1,0.2-0.6-0.5
				c0.1-0.1,0.4-0.3,0.3-0.5c0.3,0,0.7-0.2,1-0.1C153.6,6.9,153.6,7,153.6,7.1z"/>
			<path fill="#FFFFFF" d="M157.5,7c0.2,0,0.4,0.1,0.6,0.2c0,0.1,0.2,0.3,0.2,0.4c-0.1-0.2-0.2-0.5-0.4-0.6c-0.8,0-1.7,0.5-2.5,0
				c-0.1,0-0.4,0-0.4-0.1C155.9,7.3,156.7,7.2,157.5,7z"/>
			<path d="M141.9,9.3c0.3,0.3,0.6,0.6,1,0.7c-0.2,0.2-0.3,0.4-0.6,0.6c-0.4-1.1-1.7-0.9-2.6-1.3c0,0-0.1,0-0.2,0.1
				c0.2-0.3,0.5-0.7,0.8-0.9c0.1,0.4,0.7,0.3,1,0.5c0.2,0.1,0.1-0.2,0.1-0.3c-0.1-0.3,0-0.9-0.5-0.9c0.2-0.3,0.5-0.4,0.7-0.7
				C141.5,7.9,141.8,8.6,141.9,9.3z"/>
			<path fill="#FFFFFF" d="M159.7,7.5c-0.1,0.3,0.3,0.8-0.1,0.9c-0.1,0-0.1,0-0.2,0.1c0,0.2,0.1,0.3,0.2,0.5
				c0.1,0.1,0.2,0.1,0.2,0.2c-0.1,0.2-0.4-0.1-0.4,0.2c0,0.2,0.1,0.3,0,0.5c-0.3,0-0.6-0.2-0.8-0.5c-0.1,0-0.4,0.2-0.6,0.1
				c-0.3-0.3,0.7-1.1-0.2-0.8c-0.1,0.1-0.4,0-0.4-0.2c0.1-0.3-0.3-0.7,0.2-0.8c0.4,0,0.7,0.7,1.1,0.1c0.1-0.1,0.1-0.4,0.3-0.4
				C159.3,7.1,159.4,7.4,159.7,7.5z"/>
			<path fill="#FFFFFF" d="M155.5,7.6c-0.1,0.1-0.2,0.1-0.4,0c0-0.1,0-0.2,0-0.3C155.3,7.3,155.7,7.3,155.5,7.6z"/>
			<path fill="#FFFFFF" d="M158.1,7.5c-0.2-0.1-0.4,0-0.6,0c-0.3,0.4-0.8,0.1-1.1,0.2c0,0,0-0.1,0-0.1
				C156.9,7.6,157.6,7.1,158.1,7.5z"/>
			<path d="M152.7,7.4C152.7,7.4,152.7,7.4,152.7,7.4C152.7,7.3,153.1,7.3,152.7,7.4z"/>
			<path fill="#FFFFFF" d="M172.2,7.6c0,0.1,0,0.3-0.1,0.4c-0.1,0.1-0.3,0.2-0.5,0.1c-0.1,0-0.2-0.2-0.3-0.3
				c-0.1-0.2,0.1-0.4,0.3-0.5C171.9,7.3,172.1,7.4,172.2,7.6z"/>
			<path fill="#FFFFFF" d="M152,7.5c-0.8,0.3-1.5,0.7-2.3,0.9c0.2-0.5,0.9-0.3,1.3-0.7C151.4,7.8,151.7,7.5,152,7.5
				C152,7.5,152,7.5,152,7.5z"/>
			<path fill="#FFFFFF" d="M156.2,7.7c0,0.1-0.2,0.2-0.3,0.1c-0.2-0.1-0.1-0.3-0.1-0.4C155.9,7.5,156.2,7.4,156.2,7.7z"/>
			<path fill="#FFFFFF" d="M139.5,7.7c0.1,0.1,0.1,0.3,0.1,0.5c-0.1,0.1-0.1,0.2-0.3,0.3c-0.2,0-0.4-0.1-0.5-0.2
				c-0.1-0.1,0-0.3,0-0.4C139,7.6,139.3,7.5,139.5,7.7z"/>
			<path fill="#FFFFFF" d="M156.8,7.9c-0.1,0.1-0.2,0.4-0.3,0.3c-0.1-0.1-0.1-0.2,0-0.3C156.5,7.7,156.8,7.8,156.8,7.9z"/>
			<path fill="#FFFFFF" d="M157.2,8c0,0-0.1,0-0.2-0.1c-0.1,0,0,0,0-0.1C157.1,7.9,157.2,7.9,157.2,8z"/>
			<path fill="#FFFFFF" d="M155,8c0.1,0.1-0.1,0.3-0.2,0.3c0-0.1-0.2,0-0.2-0.1C154.8,8.1,154.9,7.7,155,8z"/>
			<path fill="#FFFFFF" d="M155.1,8.5c0,0-0.1,0-0.2,0c0.2,0,0.2-0.3,0.3-0.5C155.2,8.1,155.5,8.5,155.1,8.5z"/>
			<path fill="#FFFFFF" d="M155.9,8.1c0,0.1-0.1,0.2-0.2,0.2c-0.1,0-0.2,0-0.2-0.1c0-0.1,0-0.2,0.1-0.2C155.7,8,155.9,8,155.9,8.1z"
				/>
			<path fill="#FFFFFF" d="M156.2,8.2c-0.1,0.2-0.1-0.1-0.1-0.1C156.2,7.9,156.2,8.1,156.2,8.2z"/>
			<path d="M159.3,9.6c-0.4-0.4-0.4-1.1-0.7-1.6C159,8.4,158.9,9.1,159.3,9.6z"/>
			<path d="M158,8.2c-0.1,0-0.1,0-0.2-0.1C157.9,8.1,158,8.1,158,8.2z"/>
			<path fill="#FFFFFF" d="M157.2,8.2c0,0.1,0,0.3-0.1,0.4c-0.1,0-0.3,0-0.3-0.2c0-0.1,0.1-0.2,0.2-0.2C157,8.1,157.1,8.1,157.2,8.2
				z"/>
			<path fill="#FFFFFF" d="M172.9,8.4c0.1,0.2,0,0.5-0.3,0.6c-0.1,0-0.3,0-0.4-0.1c-0.1-0.1-0.2-0.3-0.1-0.5
				C172.3,8.1,172.8,8.1,172.9,8.4z"/>
			<path d="M153.5,8.5c-0.1,0.1,0-0.2-0.1-0.2C153.5,8.3,153.4,8.4,153.5,8.5z"/>
			<path fill="#FFFFFF" d="M156.4,8.6c0,0.1,0,0.1-0.1,0.2c-0.1,0-0.2,0-0.2-0.1c0-0.1,0-0.2,0.1-0.2C156.4,8.3,156.4,8.5,156.4,8.6
				z"/>
			<path fill="#FFFFFF" d="M138.9,8.6c0,0.2,0,0.4-0.1,0.5c-0.1,0.1-0.3,0.1-0.5,0.1c-0.2-0.1-0.3-0.3-0.2-0.6
				c0.1-0.1,0.2-0.2,0.4-0.3C138.6,8.4,138.8,8.5,138.9,8.6z"/>
			<path fill="#FFFFFF" d="M154.4,8.6c0,0.1,0,0.2-0.1,0.2c-0.1,0-0.2,0-0.3-0.1c0-0.1,0-0.2,0.1-0.3C154.3,8.4,154.4,8.5,154.4,8.6
				z"/>
			<path fill="#FFFFFF" d="M154.7,8.5c0,0.1,0,0.1-0.1,0.2C154.6,8.6,154.5,8.3,154.7,8.5z"/>
			<path fill="#FFFFFF" d="M156.7,8.7C156.6,8.7,156.6,8.8,156.7,8.7c-0.2,0,0-0.1,0-0.2C156.6,8.6,156.7,8.7,156.7,8.7z"/>
			<path fill="#FFFFFF" d="M155.5,8.7c0,0,0,0.1-0.1,0.1C155.4,8.7,155.3,8.6,155.5,8.7C155.5,8.5,155.6,8.6,155.5,8.7z"/>
			<path fill="#FFFFFF" d="M155.2,8.8c0,0.1,0,0.2-0.1,0.3c-0.1,0-0.2,0-0.3-0.1c0-0.1,0-0.2,0.1-0.3C155,8.7,155.2,8.7,155.2,8.8z"
				/>
			<path fill="#FFFFFF" d="M156,8.8c0,0.1,0,0.3-0.1,0.3c-0.1-0.1-0.4,0-0.3-0.3C155.7,8.7,156,8.6,156,8.8z"/>
			<path d="M171.4,9.5c-0.6,0.5-1.1,1-1.7,1.5c0.2,0.3,0.5,0.8,1,0.8c-0.9,0.7-1.1-0.8-1.8-1.2c-0.4-0.2,0.2-0.1,0.2-0.1
				c0.6-0.5,1.3-1.1,1.8-1.6c0.1,0,0-0.1,0.1-0.2c0.2,0.3,0.5,0.5,0.7,0.8C171.6,9.6,171.5,9.5,171.4,9.5z"/>
			<path fill="#FFFFFF" d="M157.2,9c0,0.1,0,0.2-0.1,0.3c-0.1,0.1-0.3,0-0.3-0.2c0-0.1,0.1-0.3,0.2-0.3C157.1,8.8,157.1,8.9,157.2,9
				z"/>
			<path d="M159.3,9.1c-0.1,0-0.1-0.1-0.1-0.2C159.2,9,159.4,9,159.3,9.1z"/>
			<path fill="#FFFFFF" d="M173.6,9.3c0.1,0.2,0,0.5-0.2,0.6c-0.1,0.1-0.3,0-0.4-0.1c-0.1-0.1-0.2-0.3-0.1-0.5
				C172.9,9,173.5,8.9,173.6,9.3z"/>
			<path fill="#FFFFFF" d="M155.8,9.3c0.1,0.3-0.2,0.3-0.4,0.2c-0.1-0.1-0.1-0.2,0-0.3C155.5,9.1,155.8,9,155.8,9.3z"/>
			<path fill="#FFFFFF" d="M156.6,9.4c0,0-0.1,0.1-0.1,0.1c-0.1,0-0.3,0-0.4-0.1c0-0.2,0-0.3,0.2-0.4C156.5,9.1,156.6,9.3,156.6,9.4
				z"/>
			<path fill="#FFFFFF" d="M154.8,9.3c0,0.1-0.1,0.2-0.1,0.2c-0.1,0-0.2,0-0.3-0.1c0-0.1,0-0.2,0.1-0.3
				C154.7,9.1,154.8,9.2,154.8,9.3z"/>
			<path fill="#FFFFFF" d="M138.2,9.5c0.1,0.3-0.1,0.5-0.3,0.6c-0.1,0-0.3,0-0.4-0.1c-0.1-0.1-0.1-0.3-0.1-0.5
				c0.1-0.1,0.2-0.1,0.3-0.2C138,9.3,138.2,9.3,138.2,9.5z"/>
			<path d="M139.9,9.9c-0.2,0-0.4,0.2-0.6,0.4c0,0,0,0.1,0,0.1c0.7,0.5,1.3,1,2.1,1.4c0,0,0,0,0.1,0c-0.2,0.3-0.4,0.6-0.6,0.8
				c-0.5-0.6-1.3-1-2-1.5c-0.2,0.2-0.2,0.6-0.2,0.9c-0.2-0.1-0.4-0.3-0.5-0.4c0.3-0.7,0.8-1.3,1.3-1.9
				C139.6,9.6,139.8,9.7,139.9,9.9z"/>
			<path fill="#FFFFFF" d="M156,9.6c0,0,0,0.1-0.1,0.1c0,0-0.1-0.1,0-0.2C155.9,9.5,155.9,9.6,156,9.6z"/>
			<path fill="#FFFFFF" d="M155.8,9.8c0,0.1,0,0.3-0.1,0.4c-0.1,0.1-0.3,0-0.3-0.2c0-0.1,0-0.3,0.2-0.4
				C155.6,9.6,155.7,9.7,155.8,9.8z"/>
			<path fill="#FFFFFF" d="M156.5,10c0,0.2-0.1,0.3-0.2,0.4c-0.1,0-0.2-0.1-0.2-0.2c0-0.2,0-0.3,0.2-0.4
				C156.4,9.7,156.5,9.8,156.5,10z"/>
			<path fill="#FFFFFF" d="M174.3,10.2c0,0.2,0,0.3-0.1,0.4c-0.1,0.1-0.3,0.1-0.5,0.1c-0.1-0.1-0.2-0.1-0.2-0.2
				c0-0.3,0.1-0.4,0.3-0.5C173.9,9.9,174.2,9.9,174.3,10.2z"/>
			<path fill="#FFFFFF" d="M137.6,10.5c0,0.2,0,0.4-0.2,0.5c-0.2,0.1-0.5,0-0.6-0.2c-0.1-0.2,0-0.5,0.2-0.6
				C137.3,10.1,137.5,10.2,137.6,10.5z"/>
			<path d="M173.7,12.5c-0.1,0.1-0.3,0.2-0.5,0.3c0.1-0.4-0.1-0.8-0.4-1.2c-0.2,0.1-0.4,0.2-0.6,0.4c0.1,0.2,0.3,0.5,0.6,0.6
				c-0.2,0.2-0.4,0.3-0.6,0.4c0-0.3-0.1-0.6-0.3-0.8c-0.3,0.1-0.6,0.3-0.8,0.5c0,0.3,0.3,0.7,0.5,1c0,0.1,0.3,0.1,0.2,0.2
				c-0.1,0-0.3,0-0.4,0.1c-0.4-0.6-0.7-1.2-1.1-1.8c0.1,0,0.3,0.1,0.4,0c0.7-0.4,1.3-0.9,1.9-1.3c0.1-0.1,0.1-0.2,0.1-0.2
				C173,11.3,173.3,11.9,173.7,12.5z"/>
			<path fill="#FFFFFF" d="M174.9,11.2c0,0.2-0.1,0.4-0.2,0.5c-0.1,0-0.3,0-0.5-0.1c-0.1-0.1-0.2-0.4-0.1-0.5
				c0.1-0.1,0.2-0.1,0.3-0.2C174.6,10.8,174.8,11,174.9,11.2z"/>
			<rect x="155.8" y="10.9" fill="#FFFFFF" width="12.6" height="8.9"/>
			<path fill="#FFFFFF" d="M137,11.4c0,0.2,0,0.5-0.3,0.5c-0.2,0-0.5,0-0.6-0.3c0-0.2,0-0.4,0.2-0.5C136.7,11,136.9,11.2,137,11.4z"
				/>
			<path d="M140.1,13.2c0.1,0,0.2,0,0.3,0c-0.2,0.3-0.3,0.6-0.5,0.9c-0.7-0.6-1.5-1-2.2-1.4c-0.1,0-0.2,0-0.4,0
				c0.1-0.3,0.4-0.6,0.5-1c0.1,0,0,0.2,0.2,0.3C138.7,12.4,139.4,12.9,140.1,13.2z"/>
			<path fill="#FFFFFF" d="M175.4,12.2c0,0.2-0.1,0.4-0.3,0.5c-0.2,0-0.5,0-0.5-0.3c0-0.2,0-0.5,0.3-0.6
				C175.1,11.8,175.4,11.9,175.4,12.2z"/>
			<path fill="#FFFFFF" d="M136.5,12.3c0.1,0.2,0,0.5-0.2,0.6c-0.2,0.1-0.5,0-0.6-0.2c-0.1-0.2,0-0.3,0.1-0.5
				C135.9,12,136.4,12,136.5,12.3z"/>
			<path fill="#FFFFFF" d="M142.7,31.2c0.5,2.3,3.2,3,5.1,3.6c2.7,1,5.9,1,7.9,3.7c2.9-3.3,7.3-2.9,10.9-4.6c1-0.6,2-1.6,2.1-2.8
				l0-18.5c0.1,0.2,0.3,0.1,0.5,0.1l0,0c0.1,0.3,0.7,0.6,0.4,0.9c0,0.2,0.1,0.4,0.3,0.5c0.2-0.1,0.3,0.1,0.4,0.3
				c-0.1,0.2-0.3,0.4-0.1,0.6c0.2,0.4,0.7,0,0.7,0.5c-0.1,0.2-0.3,0.5-0.1,0.7c0.1,0.3,0.7,0,0.6,0.5c-0.2,0.1-0.3,0.3-0.2,0.5
				c0,0.2,0.2,0.2,0.3,0.3c0.3-0.1,0.2,0.2,0.3,0.4c-0.1,0.1-0.4,0.3-0.2,0.6c0.1,0.4,0.7,0.1,0.5,0.7c-0.2,0.1-0.3,0.4-0.2,0.6
				c0.1,0.3,0.5,0.2,0.5,0.6c-0.2,0.1-0.3,0.4-0.3,0.6c0.1,0.3,0.5,0.2,0.4,0.6c-0.2,0-0.3,0.2-0.4,0.4c0,0.2,0,0.3,0.1,0.4
				c0.4,0,0.2,0.4,0.3,0.6c-0.2,0-0.3,0.1-0.4,0.3c0,0.2,0.1,0.4,0.3,0.5c0.1,0.1,0,0.3,0,0.5c-0.2,0-0.4,0.1-0.4,0.3
				c-0.1,0.3,0.1,0.5,0.3,0.6c-0.1,0.3,0,0.8-0.5,0.9c-0.2,0.1-0.2,0.3-0.3,0.5c0,0.2,0.1,0.5,0.4,0.6c0,0.2-0.2,0.4-0.2,0.7
				c-0.2,0-0.5,0.1-0.6,0.4c-0.1,0.4,0.5,0.5,0.1,0.8c-0.3-0.1-0.4,0.1-0.6,0.3c-0.1,0.1,0,0.3,0.1,0.4c0.2,0.1,0,0.3,0,0.4
				c-0.3-0.1-0.5,0.1-0.6,0.3c-0.1,0.3,0.4,0.5,0,0.7c-0.1,0-0.3,0-0.4,0.1c-0.2,0.1-0.2,0.3-0.2,0.5c0.1,0.1,0.1,0.3,0,0.4
				c-0.1,0-0.4,0-0.6,0.1c-0.4,0.3,0.2,0.6-0.2,0.8c-0.3-0.1-0.6,0-0.7,0.3c0,0.3,0.2,0.5-0.1,0.7c-0.1-0.1-0.4-0.1-0.5,0
				c-0.1,0.1-0.3,0.3-0.2,0.5c0.1,0.2-0.1,0.2-0.2,0.4c-0.2-0.1-0.4-0.1-0.6,0c-0.2,0.1-0.3,0.3-0.2,0.5c0.1,0.1-0.1,0.2-0.2,0.3
				c-0.1-0.1-0.4-0.1-0.6-0.1c-0.1,0.1-0.3,0.3-0.2,0.6c0.1,0.2-0.2,0.1-0.2,0.2c-0.2,0-0.3-0.1-0.6-0.1c-0.2,0.1-0.3,0.4-0.3,0.6
				c-0.3,0.1-0.7,0.7-1,0.1c-0.2-0.1-0.5,0-0.6,0.2c-0.1,0.1-0.2,0.4-0.1,0.6c-0.2,0.1-0.4,0.2-0.7,0.3c-0.1-0.2-0.4-0.2-0.6-0.2
				c-0.3,0.1-0.1,0.8-0.6,0.5c-0.1-0.1-0.3-0.3-0.6-0.2c-0.4,0.1-0.1,0.7-0.6,0.6c-0.1-0.2-0.4-0.3-0.6-0.3c-0.4,0-0.2,0.7-0.7,0.5
				c0-0.1-0.2-0.2-0.3-0.3c-0.2,0-0.4,0.1-0.5,0.3c0,0.2-0.2,0.1-0.3,0.1c-0.1,0-0.2-0.3-0.4-0.3c-0.2,0-0.5,0.1-0.6,0.3
				c0,0.2-0.2,0-0.4,0.1c0-0.2-0.2-0.3-0.4-0.4c-0.4-0.1-0.3,0.6-0.8,0.3c-0.1-0.1-0.2-0.3-0.4-0.4c-0.4-0.1-0.8,0.7-1,0
				c-0.1-0.1-0.3-0.3-0.6-0.2c-0.2,0.2-0.4,0.3-0.6,0.1c0-0.2-0.1-0.3-0.3-0.4c-0.2-0.1-0.4,0-0.5,0.1c-0.1,0.2-0.2,0-0.4,0
				c0-0.2-0.1-0.4-0.3-0.5c-0.2,0-0.4,0-0.6,0.2c-0.2-0.2-1-0.1-0.7-0.7c-0.1-0.1-0.2-0.3-0.4-0.4c-0.2,0-0.5,0-0.7,0.2
				c-0.2-0.2-0.9-0.2-0.7-0.7c-0.1-0.2-0.4-0.3-0.6-0.2c-0.1,0-0.1,0.2-0.2,0c-0.4-0.1,0-0.7-0.5-0.8c-0.3,0-0.5,0.2-0.7-0.1
				c0.1-0.1,0-0.3,0-0.5c-0.1-0.2-0.3-0.2-0.5-0.1c-0.2,0.1-0.3-0.1-0.4-0.2c0-0.2,0.1-0.3,0-0.5c-0.1-0.1-0.3-0.3-0.6-0.2
				c-0.2,0-0.3-0.2-0.4-0.3c0.1-0.1,0.1-0.4,0-0.5c-0.2-0.4-1,0-0.6-0.6c0-0.2-0.1-0.4-0.3-0.5c-0.3,0-0.5,0.1-0.6-0.2
				c0.1-0.1,0.1-0.4,0.1-0.5c-0.1-0.4-0.7,0-0.7-0.5c0.1-0.1,0.2-0.3,0.1-0.5c-0.1-0.1-0.2-0.2-0.3-0.3c-0.3,0.1-0.3-0.1-0.4-0.3
				c0.1-0.2,0.2-0.4,0.1-0.6c-0.2-0.3-0.6-0.1-0.6-0.5c0.1-0.2,0.3-0.5,0-0.7c-0.6,0-0.4-0.7-0.6-1c0.2,0,0.3-0.3,0.3-0.4
				c0-0.3-0.1-0.5-0.4-0.6c-0.4,0-0.2-0.5-0.4-0.7c0.2-0.2,0.3-0.4,0.3-0.6c-0.1-0.3-0.5-0.3-0.4-0.7c0.2-0.1,0.4-0.4,0.3-0.6
				c0-0.1-0.2-0.2-0.3-0.3c-0.3-0.6,0.7-0.5,0.3-1.1c-0.2-0.1-0.3-0.3-0.2-0.6c0.1,0,0.3-0.2,0.4-0.3c0.2-0.4-0.5-0.5-0.2-1
				c0.1-0.1,0.3-0.2,0.4-0.4c0.2-0.3-0.4-0.4-0.1-0.8c0.2,0,0.4-0.1,0.4-0.3c0.1-0.4-0.4-0.5-0.1-0.9c0.2,0,0.4-0.2,0.5-0.4
				c0-0.1-0.1-0.3-0.2-0.4c-0.1-0.6,0.9-0.4,0.6-1c-0.2-0.1,0-0.4,0-0.5c0.2,0,0.4-0.1,0.5-0.3c0.1-0.3-0.3-0.6,0.1-0.8
				c0.2,0.1,0.4-0.1,0.5-0.3c0.1-0.1,0-0.3,0-0.4c0.1-0.3,0.3-0.5,0.5-0.7c0.2,0.1,0.4,0,0.6-0.1V31.2z"/>
			<path fill="#FFFFFF" d="M175.9,13.1c0.1,0.1,0,0.3-0.1,0.4c-0.1,0.1-0.3,0.2-0.5,0c-0.2-0.1-0.2-0.3-0.2-0.6
				c0-0.1,0.2-0.2,0.3-0.2C175.6,12.8,175.8,12.9,175.9,13.1z"/>
			<path fill="#FFFFFF" d="M136,13.4c0.1,0.2-0.1,0.4-0.3,0.5c-0.2,0.1-0.5,0-0.5-0.3c-0.1-0.2,0-0.3,0.1-0.5
				C135.6,13,135.9,13.1,136,13.4z"/>
			<path d="M137.8,13.4c-0.3,0.1-0.6,0.2-0.7,0.5c-0.1,0.1-0.1,0.3,0,0.5c0.4,0.5,1.1,0.9,1.8,0.8c0.2,0,0.3-0.2,0.4-0.3
				c0-0.2,0-0.5-0.1-0.7c0.1-0.1,0.3,0,0.4,0c0.2,0.4,0.1,0.9-0.1,1.3c-0.2,0.4-0.7,0.6-1.1,0.7c-0.6,0-1.2-0.3-1.6-0.8
				c-0.2-0.4-0.4-0.8-0.2-1.3c0-0.3,0.5-0.5,0.5-0.9C137.3,13.2,137.5,13.3,137.8,13.4z"/>
			<path d="M174.7,14.1c0.1,0.2,0.1,0.5,0,0.8c-0.1,0-0.3,0-0.4-0.1c0-0.2,0.1-0.4,0-0.7c-0.1-0.2-0.3-0.2-0.5-0.2
				c-0.4,0.5,0.3,1.2-0.3,1.7c-0.2,0.2-0.4,0.2-0.7,0.3c-0.4,0-0.8-0.3-1-0.7c-0.2-0.3-0.2-0.7-0.1-1.1c0.1,0,0.3,0,0.5,0
				c-0.1,0.2-0.2,0.5-0.1,0.7c0.1,0.2,0.4,0.4,0.7,0.3c0.4-0.5-0.3-1.3,0.3-1.7c0.2-0.2,0.5-0.3,0.8-0.1
				C174.2,13.5,174.5,13.8,174.7,14.1z"/>
			<path d="M161.9,13.6c0.3,0.2,0.7-0.1,1,0.1c0.6,0.1,1.3-0.1,1.7,0.4c1,0.5,0.7,1.6,1.5,2.3c0.2,0.2,0.1,0.6,0.1,0.9
				c-0.3,0.1-0.7,0-1,0c0,0,0-0.1,0-0.2c0.1,0,0.5-0.3,0.1-0.3c-0.5,0.1-0.9-0.5-1.3,0c0,0.2,0.1,0.5,0,0.7c-0.4,0.2-0.8,0-1.2,0
				c-0.1-0.1,0.1-0.3,0.2-0.4c0.4-0.1-0.1-0.5,0-0.7c0-0.1,0-0.2-0.1-0.2c-0.1,0-0.2,0-0.3,0.1c0,0.4,0.2,0.8,0.1,1.3
				c-0.4,0-0.8,0-1.1,0c0.1-0.1,0.2-0.3,0.3-0.5c0-0.1-0.2-0.2-0.3-0.4c-0.8,0.1-0.7,1.5-1.7,1.1c-0.2,0-0.4,0.1-0.6,0
				c0-0.2,0.1-0.5,0.3-0.5c0.5,0,0.6-0.6,0.8-1c-0.1-0.2-0.3-0.1-0.4-0.2c-0.3,0.2-0.6-0.1-0.9,0.2c-0.3,0-0.4-0.2-0.6-0.4
				c-0.1-0.3,0.4-0.4,0.3-0.7c0.4-0.1,0-0.8,0.7-0.7c0.1-0.1,0.3-0.2,0.4-0.1c0.4-0.2,0.8-0.6,1.3-0.8
				C161.3,13.6,161.7,13.3,161.9,13.6z"/>
			<path fill="#FFFFFF" d="M161.8,13.8c0.3,0.1,0.4,0,0.7,0.1c0.6,0.2,1.4,0,1.9,0.3c0.3,0.3,0.8,0.7,0.8,0.9c0,0-0.1,0-0.1,0
				c0.3,0.4-0.2,0-0.2,0.3c0.1,0.4,0.7,0.4,0.8,0.9c-0.1-0.2-0.3-0.3-0.5-0.4c-0.1,0,0,0.1,0,0.1c0.1,0,0.1,0,0.2,0.1
				c-0.1-0.1-0.3,0-0.3-0.2c0-0.2-0.4-0.3-0.3-0.6c-0.3-0.1,0,0.2-0.3,0.1c-0.3,0.1,0.2,0.3-0.1,0.4c0,0,0.1,0.1,0.1,0.1
				c0,0-0.1,0-0.1,0c-0.1,0.1,0.1,0.2,0,0.3c-0.1,0.2-0.2-0.2-0.4,0c0.1,0.1,0.1,0.1,0.1,0.2c-0.2,0.1-0.3-0.4-0.3-0.1
				c0,0.1,0.1,0.1,0,0.1c-0.2,0-0.2,0.2-0.1,0.4c0,0.1,0,0.2,0,0.4c-0.3,0.1-0.7,0.1-1,0c0-0.3,0.5-0.2,0.4-0.5c0,0,0.1,0.1,0.1,0.1
				c0.1-0.1,0-0.1-0.1-0.2c-0.1,0-0.1-0.2-0.2-0.3c0.1-0.2-0.2-0.4,0-0.6c0-0.2,0.3-0.5,0.1-0.8c-0.1,0,0.1,0.2-0.1,0.1
				c0,0.2-0.1,0.6-0.3,0.8c-0.2,0-0.5,0.1-0.7-0.1c0,0,0.1-0.1,0-0.2c-0.3,0.4-0.7,0.8-1.1,1.1c-0.3,0.2-0.2,0.6-0.6,0.7
				c0,0,0-0.1-0.1-0.1c0,0,0,0.1,0,0.1c-0.3,0-0.6,0-0.8,0.1c-0.1-0.1,0.1-0.2,0.2-0.3c0.6-0.1,0.7-0.8,0.9-1.2
				c-0.2-0.1-0.4-0.2-0.5-0.2c0,0,0,0,0,0c-0.1-0.1-0.1,0-0.2,0c0,0,0,0,0,0.1c-0.3,0-0.7,0-0.9,0.1c-0.1-0.2,0.6-0.2,0.1-0.4
				c-0.1,0.1-0.2,0.1-0.3,0.2c-0.1-0.1-0.2-0.2-0.1-0.3c0.4-0.2,0.3-0.8,0.8-0.8c0,0,0.1,0,0.1-0.1c0-0.1-0.1,0-0.2,0
				c0-0.2,0.3-0.2,0.4-0.3c0,0.1,0.1,0.2,0.1,0.2c0-0.1,0-0.3,0.2-0.4c0.4-0.2,0.7-0.3,1-0.7C161.2,13.7,161.6,13.5,161.8,13.8z"/>
			<path fill="#FFFFFF" d="M176.3,14.1c0.1,0.2,0,0.5-0.2,0.6c-0.2,0.1-0.4,0-0.5-0.2c0-0.2,0-0.5,0.2-0.6
				C176,13.8,176.2,13.9,176.3,14.1z"/>
			<path d="M161.6,14.2c-0.2,0.1,0-0.1-0.1-0.2C161.7,13.9,161.6,14.1,161.6,14.2z"/>
			<path fill="#FFFFFF" d="M135.6,14.4c0,0.2-0.1,0.4-0.2,0.5c-0.2,0.1-0.3,0-0.5-0.1c-0.2-0.1-0.1-0.4,0-0.6
				C135,14,135.5,14.1,135.6,14.4z"/>
			<path d="M160,14.4C160,14.4,160,14.4,160,14.4C160.1,14.3,160,14.4,160,14.4z"/>
			<path d="M159.6,14.5c0,0,0,0.1,0,0.1C159.5,14.6,159.4,14.5,159.6,14.5C159.6,14.4,159.6,14.4,159.6,14.5z"/>
			<path fill="#FFFFFF" d="M176.8,15.2c0,0.2-0.1,0.5-0.3,0.5c-0.2,0-0.4,0-0.5-0.2c-0.1-0.2,0-0.5,0.2-0.6
				C176.4,14.9,176.7,14.9,176.8,15.2z"/>
			<path d="M160.4,15C160.5,15,160.4,15,160.4,15C160.4,14.9,160.4,15,160.4,15z"/>
			<path d="M159.2,15.1c0,0.1-0.1,0.1-0.2,0C159,15,159.2,15,159.2,15.1z"/>
			<path d="M160.6,15.1C160.6,15.2,160.5,15.1,160.6,15.1C160.6,15.1,160.6,15.1,160.6,15.1z"/>
			<path fill="#FFFFFF" d="M135.2,15.4c0,0.2,0,0.4-0.2,0.5c-0.2,0.1-0.3,0-0.5-0.1c-0.1-0.1-0.1-0.3-0.1-0.5
				C134.5,15,135.1,15.1,135.2,15.4z"/>
			<path d="M159.6,15.4C159.6,15.4,159.5,15.4,159.6,15.4C159.5,15.4,159.5,15.3,159.6,15.4z"/>
			<path d="M159.5,15.5C159.4,15.5,159.4,15.5,159.5,15.5C159.5,15.4,159.4,15.5,159.5,15.5z"/>
			<path d="M162.4,15.7C162.5,15.6,162.5,15.7,162.4,15.7c-0.1,0.1-0.3,0-0.3-0.2C162.2,15.6,162.3,15.7,162.4,15.7z"/>
			<path d="M163.8,15.8c-0.1,0-0.2-0.1-0.3-0.3C163.7,15.5,163.7,15.7,163.8,15.8z"/>
			<path fill="#FFFFFF" d="M165.4,15.7c-0.1,0-0.1-0.1-0.1-0.2C165.4,15.6,165.4,15.7,165.4,15.7z"/>
			<path d="M141.5,16.7c-0.1,1-0.9,2.3,0,3.2c0.8,0.8,0.8,2,1,3c0,0-0.1,0-0.1,0c-0.2-0.3-0.5-0.5-0.7-0.8c0.2,0.4,0.3,0.9,0.1,1.3
				c-0.2,0.5,0.5,0.7,0.5,1.2c0.1,0.4,0,0.9-0.3,1.1c0.4,0.6,0.3,1.7-0.1,2.2c0-0.2-0.1-0.5-0.2-0.7c0,0,0,0,0,0.1
				c0.1,0.8-0.3,1.4-0.5,2.1c-0.2,0-0.1-0.2-0.2-0.4c-0.4-0.9,0.3-1.7,0.3-2.6c-0.1,0-0.3,0.1-0.5,0c-0.2-0.1-0.2-0.4-0.2-0.6
				c0.1-0.3,0.4-0.5,0.7-0.6c0,0,0-0.1,0-0.2c-0.1-0.1-0.4,0.1-0.5,0c-0.4-0.4-0.2-1.1-0.1-1.6c0-0.1,0.2-0.1,0.3-0.2
				c-0.1-0.3-0.2-0.8,0-1.1c-0.1-0.4-0.1-0.9-0.3-1.3c-0.2,1.2,0,2.6-0.7,3.6c0,0-0.1,0-0.1,0c-0.2-1.3-0.4-2.9,0.1-4.1
				c1.2-1,0.6-2.7,1.3-3.9c0.2-0.1,0.8-1,0.7-0.2C141.8,16.3,141.6,16.5,141.5,16.7z"/>
			<path d="M164.1,16.3c-0.2-0.1-0.1-0.3-0.2-0.4C164,15.9,163.9,16.1,164.1,16.3z"/>
			<path d="M164.2,16C164.1,16,164.1,15.9,164.2,16C164.2,15.9,164.2,15.9,164.2,16z"/>
			<path d="M160.9,16.2c0,0-0.1-0.1,0-0.1c0.2,0.1,0-0.3,0.2,0C161,16,160.9,16.2,160.9,16.2z"/>
			<path fill="#FFFFFF" d="M177.1,16.2c0,0.1,0,0.3-0.1,0.5s-0.3,0.1-0.5,0.1c-0.2-0.1-0.3-0.3-0.2-0.5c0-0.1,0.2-0.2,0.3-0.3
				C176.8,15.9,177,16,177.1,16.2z"/>
			<path fill="#FFFFFF" d="M141.3,16.5c-0.1-0.2,0.2-0.4,0.4-0.5C141.6,16.2,141.5,16.5,141.3,16.5z"/>
			<path d="M163.9,16.2c-0.1,0-0.2,0-0.4-0.1C163.6,16,163.8,16,163.9,16.2z"/>
			<path fill="#FFFFFF" d="M162.4,16.5c0,0.2,0.2,0.5,0.1,0.7c-0.3,0.1-0.5,0-0.7,0c0-0.2,0.5,0,0.6-0.4c0,0,0-0.1-0.1-0.1
				c0,0-0.1,0-0.1,0c0,0.1-0.1,0-0.1,0.1c-0.1-0.2,0.2-0.1,0-0.3c-0.1-0.1,0,0.1,0.1,0.1c0,0,0.1,0,0.1,0c-0.1-0.1,0.1-0.2,0-0.3
				c0-0.1,0.1-0.1,0.1-0.2c-0.1,0-0.1,0,0,0C162.5,16.3,162.3,16.4,162.4,16.5z"/>
			<path fill="#FFFFFF" d="M134.8,16.5c0.1,0.2,0,0.4-0.1,0.5c-0.1,0.1-0.3,0.1-0.5,0.1c-0.1,0-0.2-0.2-0.2-0.3c0-0.2,0-0.4,0.2-0.5
				C134.5,16.2,134.8,16.2,134.8,16.5z"/>
			<path d="M160.9,16.3C160.8,16.4,160.7,16.3,160.9,16.3C160.8,16.2,160.8,16.3,160.9,16.3z"/>
			<path fill="#FFFFFF" d="M165.2,16.4C165.2,16.4,165.2,16.3,165.2,16.4c-0.1-0.2,0.1,0,0.1,0c0.1,0,0.1,0,0.2,0
				c-0.1-0.1-0.5,0.2-0.5-0.2C165.1,16.3,165.1,16.4,165.2,16.4z"/>
			<path d="M163.6,16.8c-0.1-0.1-0.1-0.2-0.2-0.2C163.5,16.6,163.9,16.9,163.6,16.8z"/>
			<path fill="#FFFFFF" d="M141.3,16.7c-0.2,0.8-0.4,1.6-0.4,2.4c0.3,0.8,1.1,1.4,1.2,2.3c0.1,0.3,0.1,0.7,0.1,1.1
				c-1-0.9-1.3-2.1-1.5-3.2c-0.6,0.8-0.3,2.1-0.4,3.2c-0.1,0.5-0.3,1-0.4,1.5c-0.2-1.2-0.5-2.9,0.3-4c-0.4,1.2-0.1,2.5-0.3,3.8
				c0.1-0.1,0.1-0.4,0.1-0.6c0.1-1.1-0.1-2.3,0.4-3.3c-0.1-0.2,0.2-0.4,0.2-0.6c0.2-0.9,0.3-1.7,0.6-2.5
				C141.2,16.6,141.3,16.7,141.3,16.7z"/>
			<path d="M162.4,16.7C162.3,16.7,162.3,16.7,162.4,16.7C162.3,16.7,162.4,16.6,162.4,16.7z"/>
			<path d="M163.6,16.9c-0.1,0-0.2-0.1-0.2-0.2C163.4,16.7,163.5,16.8,163.6,16.9z"/>
			<path fill="#FFFFFF" d="M165.3,17.2c0-0.1,0.4-0.2,0.3-0.5c0.1,0.2,0.2,0.3,0.3,0.5C165.7,17.2,165.5,17.2,165.3,17.2z"/>
			<path d="M170.7,17.1c0.1,0.7-0.8,1.2-0.4,1.8c-0.3,0.3-0.4,0.8-0.3,1.3c0.1,0,0,0.3,0.2,0.2c0.1-0.1,0.2,0,0.3,0
				c0.1-0.2,0.4-0.3,0.6-0.2c0.5,0.4,0.8,1,0.7,1.7c-0.2,0.4-0.3,0.9-0.3,1.4c-0.2,0-0.2-0.3-0.4,0c0.4,0.3,0.6,0.8,0.5,1.4
				c-0.2,0.2,0,0.3,0,0.5c0,0.2,0,0.3,0,0.5c-0.2,0-0.4,0-0.6-0.1c0.3,0.9-0.5,1.3-0.5,2.1c0,0.6-0.3,1.1-0.8,1.4
				c-0.2,0,0-0.3-0.1-0.4c0-0.7-0.5-1.6,0.2-2.1c-0.4-0.5,0.6-1.2-0.3-1.3c-0.1,0.1-0.2,0.3-0.4,0.3c-0.2-0.6,0.2-1.1,0.2-1.7
				c0.3-0.3-0.2-0.4-0.2-0.7c-0.3-0.4-0.2-1.1,0-1.5c0.1-0.2,0.4-0.4,0.6-0.6c-0.9-1.3,0-3,0.7-4.2C170.7,16.8,170.7,17,170.7,17.1z
				"/>
			<path d="M160.5,17.2c0,0-0.1,0,0,0.1c0,0,0,0,0,0c-0.1,0-0.1,0-0.1-0.1c0-0.1,0-0.2,0.1-0.1c0.2,0-0.1-0.2,0.1-0.2
				C160.5,17,160.4,17.1,160.5,17.2z"/>
			<path d="M163.8,17C163.8,17.1,163.7,17.1,163.8,17C163.7,17,163.8,17,163.8,17z"/>
			<path fill="#FFFFFF" d="M170.1,18.9c-0.4,0.4-0.3,1.2-0.1,1.6c0,0-0.1,0.1-0.1,0.1c-0.6-1.1-0.1-2.6,0.6-3.7
				C170.8,17.8,169.8,18.2,170.1,18.9z"/>
			<path fill="#FFFFFF" d="M177.4,17.3c0.1,0.2,0,0.5-0.2,0.6c-0.2,0.1-0.3,0-0.5-0.1c-0.1-0.1-0.2-0.3,0-0.5
				C176.7,16.9,177.3,17,177.4,17.3z"/>
			<path d="M163.8,17.4c-0.2-0.1-0.4-0.1-0.5-0.2C163.5,17.1,164.1,17.1,163.8,17.4z"/>
			<path fill="#FFFFFF" d="M134.6,17.6c0,0.2-0.1,0.4-0.2,0.5c-0.2,0.1-0.4,0-0.5-0.1c-0.1-0.1-0.1-0.4,0-0.5
				c0.1-0.1,0.2-0.2,0.4-0.2C134.4,17.3,134.6,17.4,134.6,17.6z"/>
			<path fill="#FFFFFF" d="M177.6,18.5c0,0.1,0,0.3-0.1,0.4c-0.1,0.1-0.3,0.1-0.5,0.1c-0.1,0-0.2-0.1-0.2-0.2c0-0.2,0-0.3,0.1-0.4
				c0-0.1,0.2-0.1,0.3-0.1C177.4,18.2,177.6,18.3,177.6,18.5z"/>
			<path fill="#FFFFFF" d="M134.3,18.5c0.1,0.1,0.1,0.3,0.1,0.5c-0.1,0.2-0.4,0.3-0.6,0.2c-0.2-0.1-0.3-0.4-0.2-0.6
				C133.7,18.3,134.1,18.3,134.3,18.5z"/>
			<path fill="#FFFFFF" d="M177.8,19.5c0.1,0.2,0,0.5-0.2,0.6c-0.2,0.1-0.4,0-0.6-0.2c0-0.1,0-0.3,0.1-0.4
				C177.2,19.2,177.7,19.2,177.8,19.5z"/>
			<path fill="#FFFFFF" d="M134.2,19.8c0,0.2,0,0.4-0.2,0.5c-0.2,0-0.4,0-0.5-0.1c-0.1-0.1-0.1-0.3,0-0.5
				C133.6,19.3,134.1,19.4,134.2,19.8z"/>
			<path fill="#FFFFFF" d="M141,21.9C141,21.9,140.9,21.9,141,21.9c-0.2-0.7-0.5-1.4-0.4-2.2C140.7,20.4,140.9,21.2,141,21.9z"/>
			<path d="M142.2,22.3c-0.3-0.8-0.6-1.5-1.1-2.2c-0.3-0.9,0.1,0,0.2,0.2C141.8,20.9,142,21.7,142.2,22.3z"/>
			<path fill="#FFFFFF" d="M171.4,20.5c0.6,0.6,0.4,1.5,0.1,2.1c0-0.8-1.5-1.1-1.3-2.1c0.1-0.1,0.4-0.1,0.5,0c0.4,0.4,0.5,1,0.7,1.5
				c0.1-0.2,0-0.5,0-0.8c-0.1-0.3-0.3-0.6-0.6-0.9C170.9,20.2,171.2,20.4,171.4,20.5z"/>
			<path fill="#FFFFFF" d="M177.9,20.7c0,0.2,0,0.5-0.3,0.5c-0.1,0.1-0.3,0-0.4-0.1c-0.1-0.1-0.1-0.4-0.1-0.5
				c0.1-0.1,0.2-0.1,0.3-0.2C177.6,20.4,177.9,20.5,177.9,20.7z"/>
			<path fill="#FFFFFF" d="M141.5,22c-0.1-0.2-0.4-0.1-0.4-0.4c0-0.2-0.1-0.4-0.1-0.5C141.1,21.4,141.3,21.7,141.5,22z"/>
			<path fill="#FFFFFF" d="M171.2,22.9c-0.3,0.3-1-0.1-1.3,0.3c0,0.1-0.1,0.1-0.2,0.2c-0.3-0.4-0.6-0.9-0.4-1.4
				c0.1-0.3,0.4-0.6,0.7-0.8C170.3,21.8,171.4,22.1,171.2,22.9z"/>
			<path fill="#FFFFFF" d="M178,21.7c0,0.2,0,0.5-0.3,0.6c-0.2,0-0.4-0.1-0.5-0.3c0-0.2,0-0.4,0.2-0.5
				C177.6,21.5,177.9,21.5,178,21.7z"/>
			<path fill="#FFFFFF" d="M141.5,22.3c0.1,0.3,0.3,0.8,0,1.1c-0.3,0-0.5-0.2-0.6-0.4c-0.2-0.3-0.2-0.8,0-1.1
				C141.3,21.9,141.4,22.2,141.5,22.3z"/>
			<path fill="#FFFFFF" d="M168.4,31.3c-0.9,2.9-4.9,3.2-7.1,3.9V22.6h7.1V31.3z"/>
			<path fill="#FFFFFF" d="M178,22.9c0.1,0.2,0,0.5-0.3,0.6c-0.1,0-0.3,0-0.4-0.1c-0.1-0.1-0.1-0.3-0.1-0.5c0-0.2,0.2-0.2,0.3-0.2
				C177.7,22.6,177.9,22.7,178,22.9z"/>
			<path fill="#FFFFFF" d="M155.6,38.1c-0.6-1-2.1-1.9-3.4-2.3c-2.4-0.7-4.8-1.3-7.1-2.2c-1.2-0.6-2.4-1.6-2.3-3.1l0-7.9h12.7V38.1z
				"/>
			<path d="M170,22.9c0,0.1-0.1,0.1-0.2,0c-0.1,0-0.1-0.1-0.1-0.2C169.9,22.7,170,22.8,170,22.9z"/>
			<path d="M149.4,23.3c0.3-0.1,0.6-0.2,0.9-0.1c0.5,0.1,0.9,0.6,1,1.1c0,0.2,0.1,0.3,0.1,0.4c0.1,0.2-0.2,0.9,0.3,0.4
				c0.7-0.2,1.2,0.3,1.6,0.7c0.6,1,0.4,2.5,0.2,3.7c-0.2,0.8-0.4,1.6-0.4,2.4c-0.2,0-0.4,0-0.1,0.2c0.2,0,0,0.1,0.1,0.1
				c0.1,0.2,0.2,0.4,0.1,0.6c-0.1,0-0.3,0.1-0.4,0.2c-0.1-0.1-0.3-0.3-0.5-0.3c0.1-0.1,0-0.2-0.1-0.3c-0.1,0-0.3,0-0.4,0
				c-0.2-0.3-0.3,0.1-0.5,0.1c-0.1,0-0.3,0-0.4,0.1c0.1,0.2,0,0.4-0.1,0.5c0.4,0.1,0.2,0.7,0.7,0.6c0.1,0.1,0.1,0.3,0.2,0.4h-4.8
				c0,0-0.1-0.1,0-0.2c0.2-0.4,0.7-0.1,0.8-0.6c0.2-0.2,0.6,0,0.8-0.2c-0.1,0-0.2-0.1-0.2-0.2c0-0.1,0.2-0.2,0-0.4
				c-0.2,0.2-0.5-0.5-0.5,0.1c-0.2-0.1-0.3,0.3-0.4,0.1c-0.1,0.1-0.3,0.2-0.1,0.3c-0.2,0.1,0,0.6-0.5,0.5c-0.1,0.2-0.4,0-0.6-0.1
				c0.1-0.2-0.3-0.6,0.1-0.7c0-0.1-0.2-0.1-0.3,0c0,0.1-0.1,0.1-0.1,0.1c0,0,0,0,0-0.1c-0.2,0-0.3,0-0.3,0.1c0.1,0.2-0.2,0-0.2,0.1
				c-0.1,0-0.2,0-0.3-0.1c-0.2-0.2,0.2-0.2,0.1-0.5c0,0,0.1,0,0.2-0.1c-0.3-0.1,0.2-0.4,0.1-0.6c0.2,0.1,0.5-0.2,0.6-0.1
				c0,0,0.1,0,0.2,0c-0.3-1.9-1-4.4,0-6.2c0.3-0.5,0.7-0.6,1.2-0.6c0.3,0,0.6,0.1,0.7,0.4c0.1,0.2,0,0.5,0.3,0.6
				c0.4-0.1,0.3-0.6,0.4-0.9c-0.2-0.1,0.1-0.3,0-0.5c0-0.3,0.6-0.3,0.3-0.7c0.4,0.1,1,0,1.4,0.2c0-0.1-0.1-0.3-0.1-0.4
				c-0.2-0.2-0.5-0.1-0.8-0.1c-0.3,0.1-0.6,0.3-0.9,0.2c-0.2-0.5-0.8-0.1-1.1-0.4c-0.3,0-0.5,0.1-0.7,0c0.2-0.1,0.6,0.1,0.9-0.1
				c0-0.1-0.3,0-0.2-0.2c0.3,0,0.5-0.3,0.8-0.2C148.7,23.2,149,23.5,149.4,23.3z"/>
			<path d="M141.6,23.1c0,0.1-0.1,0-0.2,0c0-0.1,0-0.1,0-0.1C141.5,23.1,141.5,23.1,141.6,23.1z"/>
			<path fill="#FFFFFF" d="M149.3,23.5c0.4-0.2,1-0.3,1.4,0c0.2,0.2,0.3,0.5,0.4,0.8c-0.5,0.2-0.3-0.6-0.7-0.7
				c-0.7-0.3-1.4,0.7-2-0.1c-0.1,0-0.3,0-0.4,0c0-0.1,0.1-0.1,0.2-0.2c-0.1-0.1-0.1-0.1-0.2-0.1c0.1-0.1,0.4-0.2,0.6-0.1
				C148.7,23.4,149,23.6,149.3,23.5z"/>
			<path d="M148.3,23.2C148.3,23.2,148.3,23.2,148.3,23.2C148.2,23.1,148.3,23.1,148.3,23.2z"/>
			<path fill="#FFFFFF" d="M171.2,23.5c0.2,0.3,0.4,0.7,0.2,1.1c-0.1,0.4-0.6,0.6-1,0.7c-0.1-0.1-0.4,0.1-0.3-0.2
				c0-0.1-0.1-0.4,0.1-0.5c-0.3-0.3-0.1-0.8-0.4-1.2c0.1-0.1,0.3-0.2,0.4-0.3C170.6,23.2,171,23.3,171.2,23.5z"/>
			<path fill="#FFFFFF" d="M141.4,23.8c0,0.4,0,0.9-0.4,1.1c-0.2,0-0.3-0.1-0.3-0.3c-0.1-0.4-0.1-0.9,0.2-1.3
				C141.1,23.5,141.3,23.6,141.4,23.8z"/>
			<path fill="#FFFFFF" d="M169.9,24.3c-0.1-0.2-0.3-0.4-0.2-0.7c0.1-0.2,0.1,0,0.2,0.1C169.9,23.9,169.9,24.1,169.9,24.3z"/>
			<path fill="#FFFFFF" d="M141.6,24c-0.1-0.1,0-0.2,0-0.3C141.6,23.7,141.6,23.9,141.6,24z"/>
			<path fill="#FFFFFF" d="M177.8,23.8c0.1,0.1,0.1,0.3,0.1,0.5c-0.1,0.2-0.4,0.3-0.6,0.2c-0.2-0.1-0.3-0.3-0.2-0.6
				c0-0.1,0.2-0.2,0.3-0.2C177.6,23.7,177.7,23.8,177.8,23.8z"/>
			<path fill="#FFFFFF" d="M169.7,24.7c-0.1-0.2-0.1-0.4-0.1-0.6C169.7,24.2,169.8,24.4,169.7,24.7z"/>
			<path d="M166,24.1c0.1,0,0.1,0.1,0.1,0.2c0,0.2,0.6,0,0.3,0.4c0.1,0.1,0.2,0.2,0.2,0.4c-0.1,0-0.4,0-0.5,0.1c0,0.2,0,0.4,0.1,0.6
				c-0.2,0.1-0.2,0.4-0.1,0.7c0,0,0,0.1,0,0.1c-0.4-0.1,0.1,0.4-0.2,0.3c-0.2,0.1,0.2,0.5-0.2,0.3c-0.1,0.2-0.1,0.5,0,0.7
				c0,0-0.1,0-0.1,0c0,0.6,0.7,0.6,1.1,1c0.2,0,0.4-0.1,0.6-0.2c0-0.8-0.8-1.3-0.9-2.1c-0.1-0.3,0.1-0.6,0.2-0.8
				c0.1-0.2,0.4-0.2,0.6-0.2c0.2,0,0.5,0.2,0.6,0.4c0,0.2,0,0.4,0.2,0.6c0.1-0.1,0.2,0,0.2,0.1c0,0.1,0,0.3-0.2,0.3
				c-0.2,0.1-0.4-0.1-0.4-0.3c0-0.2,0.1-0.6-0.2-0.8c-0.2,0-0.4,0.1-0.5,0.3c-0.2,1.1,1.4,1.7,0.8,2.9c-0.2,0.2-0.5,0.4-0.8,0.3
				c0,0.4-0.5,0.4-0.6,0.7c0.3,0.1,0.7-0.3,0.9,0.1c0,0.5-0.6,0.6-0.6,1.2c-0.5,0.1-1,0.1-1.5,0.1c-0.1-0.1,0.1-0.2,0.2-0.3
				c0.2-0.1,0.5-0.2,0.6-0.5c-0.2-0.2-0.3,0.3-0.4-0.1c-0.1,0.1-0.1,0.2-0.2,0.2c-0.1-0.1-0.2,0.1-0.3,0.1c-0.2,0.1-0.1,0.4-0.3,0.5
				c-0.5-0.1-1,0.1-1.4,0c0.1-0.2,0.3-0.5,0.6-0.6c0.1,0,0.4,0,0.2-0.2c-0.1-0.2-0.4,0.2-0.3-0.1c0,0,0,0,0-0.1
				c-0.1,0-0.3,0.2-0.5,0.3c-0.1,0-0.3,0-0.1-0.1c0-0.1,0.1-0.1,0.1-0.2c-0.4-0.1,0.2-0.3,0.2-0.5c0.1-0.3,0.2-0.6,0.5-0.7
				c0.3,0,0.8,0,1-0.1c-0.5,0-1.1-0.2-1.4-0.7c-0.8-0.3-1.8,0.4-2.3-0.6c0.5-0.1-0.2-0.5,0.2-0.6c0-0.1,0.1-0.3,0.3-0.2
				c0.2,0.2,0.4,0.4,0.7,0.4c0.1-0.2-0.2-0.3-0.2-0.4c-0.4-0.3-0.5-0.7-0.8-1.1c0.1-0.1,0.1-0.3,0.2-0.2c-0.1-0.2-0.3-0.3-0.2-0.6
				c0.2,0.1,0.2-0.1,0.2-0.2c0.3,0.2,0.8,0.5,0.7,1c0.1,0.2,0.2,0.4,0.4,0.6c0.2-0.3,0.9,0,0.9-0.6c0.1-0.1,0.4,0.2,0.4,0
				c-0.1-0.2-0.5-0.1-0.4-0.4c-0.2-0.1-0.8,0-0.7-0.4c0.2-0.1,0.6,0.2,0.8-0.1c0-0.2-0.1-0.6,0.2-0.5c0.3,0,0.6,0.2,0.9,0
				c0.3-0.1-0.2-0.7,0.3-0.5C165.8,24.2,165.9,24.2,166,24.1z"/>
			<path fill="#FFFFFF" d="M142.1,25.1c0,0.1,0,0.3-0.2,0.4c-0.2,0-0.4-0.1-0.4-0.3c-0.2-0.4,0-0.8,0.3-1.1
				C142.1,24.3,142.1,24.8,142.1,25.1z"/>
			<path d="M141,24.7c-0.1,0-0.1,0-0.1,0c-0.1-0.2,0.1-0.1,0.2-0.1c0.1-0.1,0.1-0.3,0.3-0.3C141.1,24.3,141.2,24.6,141,24.7z"/>
			<path fill="#FFFFFF" d="M165.9,24.3c0,0,0.1-0.1,0.1-0.1c0,0.1-0.1,0.2,0,0.3c0.6-0.2,0,0.3,0.4,0.4c-0.4,0.2-0.6-0.3-0.9-0.5
				C165.6,24,165.7,24.5,165.9,24.3z"/>
			<path fill="#FFFFFF" d="M150.7,24.5c0.2-0.1,0.6,0,0.6,0.3c0.1,0.3-0.1,0.1-0.2,0c-0.2,0.1-0.4-0.1-0.4,0.1c0,0.1,0.2,0,0.1,0.2
				c-0.2,0.1-0.3,0.2-0.4,0.4c-0.1,0.3,0.4,0.5,0.1,0.8c-0.1,0.2-0.1,0.6-0.5,0.6c0,0,0,0.1,0,0.1c0.1,0,0,0.1,0,0.1
				c-0.1,0.1-0.1,0-0.2-0.1c0-0.2-0.2,0-0.2-0.1c-0.1,0,0,0.1,0.1,0.2c0.1-0.1,0.1,0,0,0.1c-0.1,0.1-0.2-0.2-0.3,0
				c0,0.2-0.1-0.2-0.3-0.1c-0.1,0.1,0.5,0.6,0,0.2c-0.1,0.1,0,0.2,0,0.3c0.2,0.1-0.1,0.1-0.1,0.1c0,0,0.2-0.3,0-0.4
				c0,0,0,0.2-0.1,0.2c-0.1-0.1,0.1-0.2,0.1-0.3c-0.1,0-0.1-0.3-0.2-0.1c0.1,0.2-0.3,0.2-0.1,0.4c0.1,0.1,0.2,0.2,0.1,0.3
				c0,0,0-0.3-0.1-0.2c0,0.1,0,0.2,0.1,0.2c-0.1,0.1-0.2,0.1-0.4,0.2c0-0.3,0-0.7,0-1.1c0,0-0.1,0-0.1,0.1c0,0.2,0-0.1,0-0.1
				c-0.1-0.1-0.1,0.1-0.2-0.1c-0.1,0.1-0.1,0.3-0.1,0.4c0,0,0,0,0,0c-0.1,0.1-0.1,0-0.2,0c0-0.1,0-0.1,0-0.2c-0.1,0-0.1,0.1-0.1,0.2
				c0.1,0.4,0,0.8,0,1.2c-0.1-0.3,0-0.8-0.1-1.2c-0.1,0-0.3,0.1-0.4,0c0,0-0.1,0-0.1,0.1c0.1,0.1,0.2,0,0.3,0
				c-0.1,0.5,0.2,1.1,0,1.6c-0.1-0.4-0.1-1-0.1-1.4c-0.2,0.3,0,0.6,0,0.9c0.1,0.3,0.1,0.6,0.1,1c-0.1-0.6-0.1-1.3-0.3-1.8
				c0,1.1,0.3,2.1,0.2,3.1c-0.2-1-0.2-2-0.4-3c0,0,0,0-0.1,0c0.1,1,0.2,2,0.4,2.9c0,0.1,0,0.3-0.1,0.3c-0.1-1.1-0.2-2.1-0.4-3.2h0
				c-0.1,1.1,0.3,2.1,0.3,3.2c0,0-0.1,0-0.1,0c-0.1-1-0.3-2.1-0.4-3h0c0,1.1,0.2,2.1,0.4,3.1c-0.1,0.1-0.2,0.1-0.2,0.2
				c0,0.1,0.3,0,0.2,0.2c-0.1,0.1-0.2,0.2-0.3,0.2c-0.3-1.8-0.8-3.9-0.1-5.7c0.2-0.2,0.2-0.6,0.6-0.6c0.3,0,0.7,0,1,0
				c0.3,0.3,0.2,1.1,0.8,0.9c0.4-0.5,0.5-1.1,0.6-1.7c0-0.1,0.3-0.1,0.1-0.3C149.8,24.4,150.4,24.1,150.7,24.5z"/>
			<path fill="#FFFFFF" d="M169.4,25.2c0-0.2-0.1-0.5,0-0.7C169.3,24.7,169.8,25,169.4,25.2z"/>
			<path fill="#FFFFFF" d="M170,25c-0.1-0.1-0.2-0.3-0.1-0.4C170,24.6,170,24.8,170,25z"/>
			<path d="M170.8,24.8c-0.1,0-0.1,0-0.1-0.1c0.1,0,0.2-0.1,0.3-0.1C171,24.6,170.9,24.7,170.8,24.8z"/>
			<path d="M150.4,24.6C150.4,24.7,150.3,24.7,150.4,24.6c-0.2,0.1-0.2,0.1-0.2,0C150.2,24.6,150.3,24.5,150.4,24.6z"/>
			<path d="M150.9,24.6C150.9,24.7,150.9,24.7,150.9,24.6C150.7,24.7,150.8,24.6,150.9,24.6C150.9,24.6,150.9,24.6,150.9,24.6z"/>
			<path fill="#FFFFFF" d="M166.1,25c-0.1-0.1-0.4-0.2-0.6-0.4C165.8,24.7,165.9,24.8,166.1,25z"/>
			<path fill="#FFFFFF" d="M165.6,24.8c0.2,0.1,0.3,0.3,0.5,0.4c0.1,0.4-0.1,0.8,0,1.2c-0.1,0.2-0.1,0.6-0.3,0.6
				c-0.1,0.2,0,0.6-0.2,0.7c0,0,0-0.1-0.1,0c0,0.1-0.1,0.1-0.2,0.2c-0.1-0.1-0.1,0.2-0.3,0.1c-0.2,0.1,0,0.4-0.3,0.3
				c0,0,0-0.1,0-0.1c-0.2,0.2-0.1-0.1-0.3,0c0,0.2-0.3,0.1-0.4,0.1c0,0,0-0.1,0-0.1c-0.2,0.3-0.2-0.1-0.4,0c-0.1-0.2-0.3,0.1-0.5,0
				c-0.5,0.1-0.9,0-1.2-0.4c0.1,0,0.1-0.1,0.1-0.1c0-0.1-0.3-0.3-0.1-0.3c0.2,0-0.1-0.3,0.1-0.2c0.2,0.2,0.5,0.5,0.9,0.4
				c0.5-0.1,0.9-0.4,1.3-0.8c-0.4,0.1-0.7,0.5-1.1,0.6c-0.3-0.5-1-0.8-1-1.4c0.2,0,0.2-0.3,0.1-0.5c0.3,0.1,0.2-0.3,0.4,0
				c0.2,0.2,0,0.4,0.1,0.6c0.1,0.2,0.3,0.4,0.5,0.6c0,0-0.1,0.1,0,0.1c0.1,0.2,0.2,0,0.4,0.1c-0.3-0.2,0.1-0.3,0.2-0.4
				c0.2,0,0.4,0,0.5-0.2c0-0.3,0.4,0.1,0.5-0.2c0-0.3-0.3-0.3-0.4-0.5c0.1,0,0.3,0.1,0.4-0.1c0.1-0.2-0.1-0.3-0.2-0.4
				c-0.1,0-0.2-0.1-0.1-0.2c0-0.2,0.3-0.3,0.4-0.2C165,24.9,165.3,24.6,165.6,24.8z"/>
			<path fill="#FFFFFF" d="M177.8,25.1c0.1,0.2,0,0.5-0.3,0.6c-0.2,0-0.4,0-0.5-0.2c-0.1-0.2,0-0.5,0.2-0.6
				C177.4,24.8,177.7,24.8,177.8,25.1z"/>
			<path fill="#FFFFFF" d="M134.3,25.2c0.1,0.2,0,0.5-0.2,0.6c-0.2,0.1-0.5,0-0.6-0.2c-0.1-0.3,0.1-0.5,0.3-0.6
				C134,24.9,134.2,25,134.3,25.2z"/>
			<path d="M165.1,25.1c0,0-0.1,0-0.2,0c0,0-0.2-0.1,0-0.1C165,24.9,165.1,25,165.1,25.1z"/>
			<path fill="#FFFFFF" d="M171.5,25.4c-0.1,0-0.3,0-0.4-0.1C171.2,25,171.3,25.4,171.5,25.4c-0.1-0.2-0.2-0.4,0-0.4
				C171.6,25,171.6,25.2,171.5,25.4z"/>
			<path fill="#FFFFFF" d="M151.1,25c0.2,1.3-0.6,2.4-1.6,3c-0.7,0.3-1.7,0.7-1.9,1.6c-0.1,0.4-0.1,0.8,0,1.2
				c-0.3-0.4-0.3-1-0.1-1.4c0.7-1.5,2.9-1.3,3.2-3.1c0.2-0.4,0.1-0.9,0.2-1.3C151,25,151.1,25,151.1,25z"/>
			<path d="M141.7,25.4c-0.2-0.2,0.2-0.2,0.2-0.4C142,25.2,141.9,25.4,141.7,25.4z"/>
			<path fill="#FFFFFF" d="M153.3,26c0.7,1.9,0,3.9-0.2,5.8c0,0-0.1,0-0.1-0.1c0.2-1.2,0.4-2.3,0.5-3.5c-0.2-0.2,0.3-1.1-0.4-0.7
				c0.1,1.3-0.2,2.4-0.4,3.6c-0.2-0.3,0-0.7,0-1.1c0.2-0.7,0.3-1.6,0.2-2.4c-0.2,0.5,0,1.2-0.1,1.7c-0.1,0.2-0.4,2.1-0.2,0.7
				c0.1-0.8,0.4-1.6,0.2-2.4c0,0,0,0,0,0c0,0.7-0.2,1.3-0.3,2c0-0.6,0.3-1.5,0.1-2.2c-0.1,0.1,0,0.4,0,0.5c0.1,0.3-0.3,0.1-0.1,0.4
				c-0.1,0.1,0.1,0.4,0,0.4c-0.2-0.5,0-1-0.1-1.5c-0.1,0,0,0.3-0.1,0.2c-0.1,0-0.1,0.1,0,0.2c0,0,0.1,0,0.1,0c0,0.1-0.3-0.1-0.2,0.2
				c0,0,0,0.1,0.1,0c0,0,0,0.2,0,0.1c0,0.1,0,0.2,0,0.3c-0.1-0.1,0-0.3-0.1-0.4c0.1-0.3,0.1-0.6,0.1-0.9c0-0.1-0.1,0-0.1,0
				c0,0.3,0,0.6-0.1,0.9c-0.2-0.3,0-0.7,0-1.1c-0.1,0-0.1,0.2-0.2,0.3c-0.1,0.2,0,0.4-0.1,0.5c0.1-0.4,0-0.9-0.2-1.2
				c0-0.2,0.2-0.2,0.3-0.3c0,0.1,0,0.1,0.1,0.1c0.1,0,0.1-0.2,0.3-0.1c0.1,0-0.1,0-0.1,0c0,0.1,0.1,0.2,0.2,0.2
				c0.3-0.3,0.5,0.3,0.7,0c0.2,0.2-0.2,0.2-0.3,0.1c0,0,0-0.1-0.1-0.1c-0.2,0,0,0.2,0.1,0.3c0.2,0,0.4-0.1,0.6,0.1
				c0.2-0.2,0.3,0.3,0.5,0c0-0.3-0.7,0-0.3-0.3c0,0,0.1,0,0-0.1c-0.1-0.1-0.2,0.1-0.3-0.1c0.1-0.1,0.3-0.1,0.4,0c0,0,0.1,0.3,0,0.1
				c0,0-0.1,0-0.1,0c0,0.1,0.1,0.1,0.1,0.1c0.2-0.1,0.1,0.3,0.2,0.1c0.1-0.3-0.3-0.4-0.2-0.7c-0.1-0.5-0.7-0.5-1.1-0.7
				c-0.2,0.2-0.7,0.7-0.5,0c0.2-0.2,0.5-0.2,0.8-0.2C152.7,25.4,153.1,25.7,153.3,26z"/>
			<path fill="#FFFFFF" d="M164.5,25.4c0,0.1-0.2,0.1-0.3,0c-0.2-0.2-0.5,0-0.7-0.2C163.9,25.4,164.3,25.2,164.5,25.4z"/>
			<path fill="#FFFFFF" d="M150.6,25.7c0-0.1,0-0.3,0.2-0.3C150.8,25.5,150.7,26,150.6,25.7z"/>
			<path fill="#FFFFFF" d="M141.5,25.6c0,0.2-0.2,0.4-0.3,0.5c0-0.2-0.2,0-0.4-0.1c0,0,0,0,0,0.1c0,0-0.1-0.3,0-0.4
				C140.8,25.4,141.3,25.2,141.5,25.6z"/>
			<path fill="#FFFFFF" d="M170.6,26.9c-0.3-0.2-0.6-0.8-0.5-1.3c0.1-0.1,0.1-0.3,0.3-0.2c0.1,0,0.1,0.1,0.1,0.1
				c0,0.4-0.1,0.9,0,1.2c0-0.4,0.1-0.9,0.1-1.3c0.2,0,0.1,0.3,0.2,0.4C171,26.3,170.7,26.6,170.6,26.9z"/>
			<path fill="#FFFFFF" d="M141.9,27.6c-0.2-0.5-0.6-1.1-0.3-1.6c0.2,0.3,0.2,0.7,0.3,1.1c0.1-0.1,0-0.3,0-0.5
				c-0.1-0.3-0.1-0.6-0.2-0.9C142.1,26.2,142.1,27,141.9,27.6z"/>
			<path fill="#FFFFFF" d="M167.7,26c0.1,0.2,0,0.7,0.4,0.7c0,0.1-0.1,0.2-0.3,0.2c-0.3-0.3,0-1.3-0.7-1.1c-0.2,0.1-0.3,0.2-0.4,0.4
				c-0.3,1.2,1.8,1.9,0.6,3c-0.1,0-0.4,0.1-0.4-0.1c0.2,0,0.6-0.1,0.7-0.4c0-0.9-1-1.4-1-2.3c0-0.3,0.1-0.5,0.4-0.7
				C167.2,25.6,167.5,25.7,167.7,26z"/>
			<path d="M147.9,26c0.1,0.2,0.4,0.4,0.6,0.5c-0.2-0.1-0.3,0.5-0.3,0.1c0-0.1-0.2-0.1-0.1-0.2c-0.4,0.2,0.2,0.2-0.2,0.3
				c-0.1,0,0-0.1,0-0.1c-0.2-0.1-0.4,0.2-0.6,0c-0.1,0-0.3,0.1-0.4,0.2c-0.1,0-0.8,0-0.2-0.1c0.1,0,0-0.1,0-0.1
				c-0.1,0.1-0.1,0.1-0.2,0.1c0-0.3,0.4-0.4,0.4-0.7c0.3-0.2,0.6,0,0.9,0.2C147.8,25.9,147.9,25.9,147.9,26z"/>
			<path fill="#FFFFFF" d="M151.3,25.7c0,0.1,0,0.2,0,0.4C151.3,26,151.3,25.8,151.3,25.7z"/>
			<path fill="#FFFFFF" d="M152.1,25.8c-0.1,0-0.1,0.1-0.1,0C152,25.9,152.1,25.7,152.1,25.8z"/>
			<path fill="#FFFFFF" d="M177.7,26.2c0,0.2,0,0.5-0.2,0.6c-0.2,0.1-0.5,0-0.6-0.3c0-0.2,0-0.4,0.3-0.5
				C177.3,25.9,177.6,25.9,177.7,26.2z"/>
			<path d="M165.8,26c0,0.1,0,0.1-0.1,0.2C165.9,26.2,165.5,25.7,165.8,26z"/>
			<path fill="#FFFFFF" d="M134.4,26.3c0.1,0.2,0,0.5-0.2,0.6c-0.1,0-0.3,0-0.5-0.1c-0.1-0.1-0.1-0.3-0.1-0.5
				C133.8,25.9,134.3,26,134.4,26.3z"/>
			<path fill="#FFFFFF" d="M152.8,26.2c0,0.1,0.3,0,0.1,0.1c-0.1,0-0.2,0-0.3-0.1C152.7,26.2,152.7,26.2,152.8,26.2
				c-0.3,0-0.4-0.1-0.6-0.1C152.4,26,152.8,25.9,152.8,26.2z"/>
			<path d="M165.6,26.3c-0.1,0.1-0.1-0.2-0.1-0.3C165.6,26.1,165.6,26.2,165.6,26.3z"/>
			<path fill="#FFFFFF" d="M147.7,26.2C147.7,26.2,147.7,26.2,147.7,26.2C147.6,26.1,147.7,26.1,147.7,26.2z"/>
			<path fill="#FFFFFF" d="M147.1,26.4c-0.2-0.1,0.2,0,0-0.2C147.2,26,147.2,26.5,147.1,26.4z"/>
			<path fill="#FFFFFF" d="M152.5,26.4c-0.1,0-0.1-0.2-0.1-0.2C152.4,26.3,152.8,26.4,152.5,26.4z"/>
			<path fill="#FFFFFF" d="M152.2,26.4c0.1,0,0.2,0,0.2,0.1C152.3,26.6,152.2,26.3,152.2,26.4c0.1-0.2-0.5-0.1-0.1-0.2
				C152.1,26.3,152.1,26.3,152.2,26.4z"/>
			<path d="M165.3,26.3c0,0.1,0,0.2,0,0.2C165.3,26.4,165.1,26.1,165.3,26.3z"/>
			<path fill="#FFFFFF" d="M147.6,26.4c-0.1,0-0.1-0.1-0.1-0.1C147.6,26.3,147.7,26.4,147.6,26.4z"/>
			<path d="M149.2,26.5C149.1,26.5,149.1,26.5,149.2,26.5C148.9,26.4,149.1,26.4,149.2,26.5z"/>
			<path d="M151.8,26.7c-0.1,0.1-0.2,0-0.3-0.1C151.6,26.2,151.7,26.7,151.8,26.7z"/>
			<path d="M165.1,26.6c0,0,0,0.1,0,0.1c0-0.1-0.2-0.3,0-0.3C165.1,26.5,165.1,26.6,165.1,26.6z"/>
			<path d="M151.3,26.7c0-0.1-0.1-0.1,0-0.1C151.4,26.6,151.6,26.7,151.3,26.7z"/>
			<path fill="#FFFFFF" d="M170.1,26.6c-0.2,0.4,0,0.9,0,1.4c0.1-0.4,0-0.9,0.1-1.2c0.4,0.4,0.3,0.9,0.1,1.4
				c-0.1,0.2-0.2,0.4-0.5,0.5C170,28,169.4,27.2,170.1,26.6C170,26.6,170.1,26.6,170.1,26.6z"/>
			<path d="M147.3,26.7c0,0.1-0.2,0.1-0.1,0.2c0,0,0.1-0.1,0.1,0c0,0-0.1,0.1-0.2,0.1c0-0.2-0.1,0-0.2-0.1c0.1-0.1,0.1-0.3,0.3-0.4
				C147.3,26.7,147.2,26.7,147.3,26.7z"/>
			<path d="M147.8,26.7C147.7,26.7,147.6,26.6,147.8,26.7C147.8,26.6,147.8,26.6,147.8,26.7z"/>
			<path d="M149.4,26.9c0,0.1-0.1,0.1-0.2,0.1c0-0.2-0.4-0.1-0.1-0.2c0,0-0.1-0.1,0-0.1C149.5,26.6,149.1,26.8,149.4,26.9z"/>
			<path fill="#FFFFFF" d="M151.1,27.7c-0.1,0.4-0.1,0.8-0.2,1.2c0,0-0.1,0.1-0.1,0c0.1-0.2,0.2-0.5,0.1-0.6
				c-0.1,0.2-0.2,0.4-0.3,0.4c0,0,0.1,0,0.1,0c0,0.1-0.1,0.2,0,0.2c-0.1,0-0.2-0.1-0.2-0.2c0.1,0,0.1-0.2,0-0.2c0-0.1-0.1,0-0.2,0
				c-0.1,0-0.1,0.1-0.1,0c0-0.1,0.2-0.1,0.3-0.1c0,0.2,0.2,0.2,0.3,0c0-0.1,0.1-0.3,0-0.4c-0.2,0.2-0.1-0.4-0.4,0
				c-0.2-0.1,0.3-0.1,0.1-0.3c-0.1,0.2-0.3-0.1-0.4,0.1c-0.1-0.1,0.1-0.1,0.2-0.2c0.2,0.2,0.3-0.2,0.6-0.1c0.2-0.1,0-0.2-0.1-0.2
				c-0.1,0-0.1,0.1-0.1-0.1c0.1-0.1,0.2,0,0.3-0.1c-0.2-0.1,0.1-0.4,0.1-0.6C151.2,26.9,151.3,27.4,151.1,27.7z"/>
			<path d="M164.8,26.9C164.7,26.9,164.7,26.9,164.8,26.9c0,0-0.1-0.2,0-0.2C164.8,26.7,164.8,26.8,164.8,26.9z"/>
			<path d="M150,26.7C150,26.8,149.9,26.7,150,26.7C150,26.7,150,26.7,150,26.7z"/>
			<path d="M147.9,26.8c-0.1,0.1-0.1,0.1-0.2,0.1C147.7,26.8,147.9,26.7,147.9,26.8z"/>
			<path d="M146.8,26.8c0,0.1-0.3,0-0.4,0c-0.2-0.2,0.2,0,0.3-0.1C146.6,26.8,146.7,26.8,146.8,26.8z"/>
			<path d="M149.6,26.8C149.5,26.9,149.5,26.8,149.6,26.8C149.6,26.8,149.6,26.8,149.6,26.8z"/>
			<path d="M151.1,27.4c0-0.1-0.2-0.8,0-0.3C151.1,27.2,151.2,27.2,151.1,27.4z"/>
			<path d="M152.1,27c0,0-0.1,0-0.2,0C151.6,26.9,151.9,26.9,152.1,27C152,26.9,152.1,27,152.1,27z"/>
			<path d="M164.4,27c-0.1,0,0-0.1,0-0.2C164.6,26.9,164.4,27,164.4,27z"/>
			<path d="M147.5,27C147.4,27,147.5,27,147.5,27C147.7,26.9,147.5,27,147.5,27z"/>
			<path d="M152.6,27c-0.1,0-0.2,0-0.1-0.1C152.5,26.9,152.8,27,152.6,27z"/>
			<path d="M146.6,27.1C146.6,27,146.4,27.1,146.6,27.1C146.6,27,146.9,27,146.6,27.1z"/>
			<path d="M153.3,27.3c0-0.1-0.1-0.4,0-0.2C153.3,27.2,153.4,27.3,153.3,27.3z"/>
			<path fill="#FFFFFF" d="M177.4,27.3c0.1,0.2,0,0.5-0.2,0.6c-0.2,0.1-0.3,0-0.5-0.1c-0.1-0.2-0.1-0.4,0-0.6
				C176.9,26.9,177.3,27,177.4,27.3z"/>
			<path d="M153.1,27.3c-0.1,0-0.2-0.1-0.2-0.2C153,27.2,153.4,27.1,153.1,27.3z"/>
			<path fill="#FFFFFF" d="M134.7,27.4c0.1,0.2,0,0.3-0.1,0.4c-0.1,0.1-0.3,0.1-0.5,0.1c-0.2-0.1-0.2-0.3-0.2-0.5
				c0.1-0.1,0.1-0.2,0.2-0.2C134.4,27.1,134.6,27.1,134.7,27.4z"/>
			<path fill="#FFFFFF" d="M141.1,28.4c0-0.1,0-0.2,0.1-0.4c0.1-0.2,0.2-0.4,0.3-0.7c0.1,0.6-0.1,1.2-0.4,1.6
				c-0.3-0.6-0.2-1.4,0.2-1.9C141.2,27.6,140.9,28,141.1,28.4z"/>
			<path d="M146.9,27.1c0,0.1-0.2,0-0.2,0C146.6,27.1,146.8,27.2,146.9,27.1C146.9,27.1,146.9,27.1,146.9,27.1z"/>
			<path d="M152.5,27.3c-0.1,0.1-0.3,0-0.3-0.1C152.3,27.2,152.6,27,152.5,27.3z"/>
			<path d="M146.5,27.3c-0.1,0-0.2,0-0.2-0.1C146.4,27.1,146.5,27.2,146.5,27.3z"/>
			<path d="M153,27.3c-0.1,0-0.2,0-0.2-0.1C152.8,27.4,153.1,27.1,153,27.3z"/>
			<path d="M147,27.4c-0.2,0.1-0.4,0.2-0.6,0.4c-0.1,0-0.2,0-0.1-0.1c0.3,0.1,0.3-0.5,0.6-0.2C146.9,27.4,146.9,27.4,147,27.4z"/>
			<path fill="#FFFFFF" d="M149.5,27.6C149.5,27.7,149.5,27.6,149.5,27.6C149.4,27.5,149.7,27.6,149.5,27.6z"/>
			<path fill="#FFFFFF" d="M152.8,31.5C152.8,31.5,152.8,31.5,152.8,31.5c0-1.4,0.5-2.6,0.4-4C153.4,28.9,153.1,30.2,152.8,31.5z"/>
			<path d="M163.3,27.9c0,0-0.3,0-0.2-0.1C163.2,27.8,163.3,27.8,163.3,27.9z"/>
			<path fill="#FFFFFF" d="M150.1,28.1c0-0.2-0.5,0-0.2-0.2C149.9,28.1,150.3,28,150.1,28.1z"/>
			<path d="M146.5,30.8c-0.2-0.9-0.4-1.9-0.3-2.8C146.2,28.9,146.4,29.9,146.5,30.8z"/>
			<path fill="#FFFFFF" d="M151.7,28.3c0.1-0.1-0.2-0.1,0-0.2C151.7,28.1,151.9,28.9,151.7,28.3z"/>
			<path fill="#FFFFFF" d="M177.2,28.4c0,0.1,0,0.3-0.1,0.4c-0.1,0.1-0.4,0.2-0.6,0.1c-0.2-0.1-0.2-0.4-0.1-0.6
				c0.1-0.1,0.2-0.2,0.4-0.2C176.9,28.1,177.1,28.2,177.2,28.4z"/>
			<path fill="#FFFFFF" d="M166.6,29.6c-0.1,0.2-0.6,0.2-0.5,0.6c0.3,0.3,1-0.3,0.9,0.3c-0.3,0.1-0.5,0.4-0.5,0.8
				c-0.4,0-0.7,0.1-1.1,0c0.2-0.3,0.6-0.2,0.8-0.6c0.1-0.3-0.4-0.2-0.3-0.5c-0.2,0,0,0.6-0.2,0.2c0-0.1,0-0.2,0-0.3
				c-0.1,0.1,0,0.4-0.2,0.5c0-0.1,0.1-0.3,0-0.5c-0.1,0.2-0.1,0.4-0.3,0.6c0-0.2,0-0.5,0-0.7c-0.3,0-0.4,0.4-0.7,0.3
				c0-0.1,0-0.1,0-0.1c-0.1,0-0.2,0.1-0.2,0.2c0.2-0.1,0.3,0.4,0.5,0c0.1,0.3,0.3,0.5,0.1,0.8c-0.3,0.3-0.6-0.2-1,0.1
				c-0.4,0.1,0-0.2,0.1-0.3c0.1-0.1,0.4,0,0.4-0.3c0-0.1-0.1-0.1-0.1-0.2c-0.2-0.1,0-0.4,0-0.5c-0.2,0.1-0.4,0.4-0.6,0.6
				c0-0.4,0.4-0.6,0.4-1c0.4-0.5,1.1,0.1,1.6-0.3c-0.3-0.5-1-0.2-1.4-0.6c0-0.2,0.3,0,0.4-0.1c0.1,0.1,0.2,0,0.3,0
				c0,0,0.1-0.1,0.1-0.1c0,0,0.1,0.1,0.2,0.1c0.1-0.1,0.2-0.4,0.3-0.2c0.1,0,0.1-0.1,0.1-0.2C165.8,28.7,166.9,28.7,166.6,29.6z"/>
			<path fill="#FFFFFF" d="M134.9,28.4c0.1,0.2,0,0.5-0.3,0.6c-0.2,0.1-0.4-0.1-0.5-0.3c-0.1-0.2,0-0.5,0.2-0.6
				C134.6,28.2,134.8,28.2,134.9,28.4z"/>
			<path fill="#FFFFFF" d="M149.9,28.3C149.8,28.4,149.8,28.3,149.9,28.3C149.8,28.3,149.9,28.3,149.9,28.3z"/>
			<path fill="#FFFFFF" d="M150.1,28.3C150.2,28.5,150,28.4,150.1,28.3C150.1,28.3,150.1,28.3,150.1,28.3z"/>
			<path fill="#FFFFFF" d="M149.5,28.7c-0.2,0.3-0.1,0-0.2-0.1c0-0.1,0.2-0.2,0-0.2C149.5,28.4,149.4,28.6,149.5,28.7z"/>
			<path fill="#FFFFFF" d="M149.7,28.5C149.7,28.6,149.7,28.6,149.7,28.5c-0.1,0-0.2-0.1-0.1-0.2C149.7,28.4,149.8,28.5,149.7,28.5z
				"/>
			<path fill="#FFFFFF" d="M152.3,30.7c-0.5,0-0.2-0.7-0.4-0.9c0-0.4,0-0.8,0.1-1.2c-0.1,0.5-0.3-0.3-0.1,0c0.1-0.1,0-0.2,0.1-0.3
				C152.3,29.1,152,30,152.3,30.7z"/>
			<path fill="#FFFFFF" d="M150,28.5c0,0.1,0,0.1,0,0.1C149.9,28.6,149.9,28.6,150,28.5C150,28.5,150,28.5,150,28.5z"/>
			<path fill="#FFFFFF" d="M149.8,28.9c-0.1,0-0.1-0.1-0.1-0.1C149.7,28.6,149.9,28.8,149.8,28.9z"/>
			<path fill="#FFFFFF" d="M149.2,28.9c0.1,0.1,0.1,0.4,0.3,0.4c0,0.4,0.2,0.8,0.2,1.2c-0.1,0-0.1-0.1-0.2,0c0,0.1,0,0-0.1,0
				c-0.1-0.2-0.2,0.1-0.2-0.1c-0.1-0.1-0.2,0.1-0.2-0.1c0.1,0,0.1,0,0.2,0c0,0,0,0.1,0.1,0.2c0.1,0,0.1,0,0.2-0.1c0,0,0-0.1,0-0.1
				c-0.1,0-0.1-0.1-0.2-0.2c-0.2-0.1,0.2-0.5-0.1-0.4c-0.1-0.2-0.1,0-0.2,0c-0.1,0-0.1,0.2-0.2,0.3c0-0.1,0-0.4-0.1-0.5
				c-0.1,0.1-0.1-0.2,0-0.3c0-0.1,0.1-0.3,0.3-0.4C149,28.7,149.1,28.8,149.2,28.9z"/>
			<path fill="#FFFFFF" d="M149.7,29c0,0.1-0.1,0.1-0.1,0C149.5,29,149.6,28.9,149.7,29z"/>
			<path fill="#FFFFFF" d="M151.3,29.3c0.1,0.2,0.1,0.5,0.1,0.8c-0.2-0.1,0-0.4-0.2-0.5c-0.1,0.1,0.1,0.5-0.1,0.4
				c-0.1,0.1,0,0.1,0,0.2c0.1,0.1,0.2-0.1,0.2,0c0,0.1,0.1,0.2,0,0.3c0,0,0-0.1-0.1-0.1c0,0-0.1,0.1-0.1,0.1c0-0.2-0.2-0.3-0.2-0.6
				c-0.2,0-0.1,0.2-0.1,0.3c0.1,0.2,0.1,0.3,0.4,0.4c0,0-0.1,0.1-0.1,0.1c0,0,0-0.1-0.1,0c0,0-0.1,0.1,0,0c-0.1-0.1-0.1-0.3-0.2-0.5
				c0-0.1-0.1-0.1-0.1-0.2c-0.1,0.1,0.1,0.3-0.1,0.4c0-0.1,0-0.2-0.1-0.2c0.1-0.4,0-1,0.6-1.2C151.1,29,151.3,29.2,151.3,29.3z"/>
			<path fill="#FFFFFF" d="M176.7,29.3c0.1,0.1,0.1,0.3,0.1,0.5c-0.1,0.2-0.4,0.3-0.6,0.2c-0.2-0.1-0.2-0.4-0.1-0.6
				c0.1-0.1,0.2-0.2,0.3-0.2C176.5,29.1,176.6,29.2,176.7,29.3z"/>
			<path fill="#FFFFFF" d="M135.3,29.5c0.1,0.1,0,0.3-0.1,0.5c-0.1,0.1-0.3,0.1-0.5,0.1c-0.2-0.1-0.3-0.4-0.2-0.6
				c0.1-0.1,0.1-0.2,0.3-0.2C135,29.2,135.2,29.3,135.3,29.5z"/>
			<path fill="#FFFFFF" d="M148.4,29.9c0-0.1,0-0.5,0-0.1C148.4,29.9,148.4,29.9,148.4,29.9z"/>
			<path fill="#FFFFFF" d="M150,29.7c0,0.1-0.1,0.1-0.2,0C149.8,29.7,150,29.5,150,29.7z"/>
			<path fill="#FFFFFF" d="M151.9,30c-0.1-0.1-0.1-0.2-0.1-0.3C151.8,29.8,151.9,29.8,151.9,30z"/>
			<path fill="#FFFFFF" d="M148.1,30.3c0,0,0-0.1,0-0.2C148.1,30.2,148.2,30.2,148.1,30.3z"/>
			<path fill="#FFFFFF" d="M176.4,30.4c0.1,0.2,0,0.5-0.2,0.6c-0.2,0-0.4,0-0.6-0.3c0-0.2,0-0.5,0.3-0.5
				C176.1,30.2,176.3,30.2,176.4,30.4z"/>
			<path fill="#FFFFFF" d="M165,30.7c-0.1,0.1-0.1,0-0.1-0.1c0-0.1-0.1-0.3,0.1-0.3C165,30.3,165,30.5,165,30.7z"/>
			<path fill="#FFFFFF" d="M148.4,30.4c0.1,0,0.1-0.1,0.2,0.1C148.5,30.3,148.2,30.5,148.4,30.4C148.3,30.3,148.3,30.3,148.4,30.4z"
				/>
			<path fill="#FFFFFF" d="M135.7,30.6c0.1,0.3-0.1,0.4-0.3,0.5c-0.2,0-0.5-0.1-0.5-0.3c0-0.2,0.1-0.4,0.3-0.5
				C135.4,30.3,135.6,30.4,135.7,30.6z"/>
			<path fill="#FFFFFF" d="M147.8,31c0-0.2,0.1-0.4,0.2-0.5C148,30.6,147.9,30.8,147.8,31z"/>
			<path d="M166.6,30.6c-0.1,0-0.1-0.1,0-0.1C166.6,30.5,166.6,30.5,166.6,30.6z"/>
			<path fill="#FFFFFF" d="M152.3,30.9c0.2,0.1,0.1,0.3,0.2,0.5c-0.1-0.2-0.2,0.1-0.3-0.1c-0.1,0.2-0.3-0.1-0.3,0.2
				c-0.2,0.2-0.3-0.2-0.4-0.1c-0.1,0-0.1-0.1-0.1-0.2c0.2-0.2,0.1-0.7,0.5-0.6C151.9,30.7,152,31,152.3,30.9z"/>
			<path fill="#FFFFFF" d="M149.4,30.7c-0.1,0.1-0.2,0-0.3-0.1C149.2,30.7,149.3,30.6,149.4,30.7z"/>
			<path fill="#FFFFFF" d="M148.2,31.1c0.1-0.1,0.3-0.8,0.1-0.2C148.3,31,148.3,31.2,148.2,31.1z"/>
			<path fill="#FFFFFF" d="M147.7,31.2c-0.2,0-0.4,0-0.4-0.2c0-0.3,0.3-0.2,0.3,0C147.5,31.1,147.7,31.1,147.7,31.2z"/>
			<path fill="#FFFFFF" d="M148.6,31.3c-0.2,0,0.1-0.3,0.1-0.4C148.8,31,148.6,31.1,148.6,31.3z"/>
			<path fill="#FFFFFF" d="M148.1,31C148.1,31,148,31,148.1,31C147.9,30.9,148.1,30.9,148.1,31z"/>
			<path fill="#FFFFFF" d="M151.1,31.3c0-0.1-0.1-0.2,0-0.3C151.1,31,151.1,31.2,151.1,31.3z"/>
			<path fill="#FFFFFF" d="M148,31.4c0.2,0.1,0.4,0.4,0.6,0.2c0.2-0.1,0-0.3,0.2-0.5c0.1,0.1,0.1,0.3,0.1,0.4
				c-0.1,0.2-0.4,0.2-0.6,0.2c-0.3-0.7-1,0-1.3-0.6C147.3,31.3,147.7,31.4,148,31.4z"/>
			<path fill="#FFFFFF" d="M148,31.2c0,0-0.3,0-0.1,0C147.9,31.1,148,31.1,148,31.2z"/>
			<path fill="#FFFFFF" d="M151.6,31.7c0.1,0,0.1,0.1,0.1,0.2c-0.2,0.1-0.1-0.2-0.2-0.2c-0.2,0-0.3-0.1-0.4,0c-0.1-0.2-0.2,0-0.4,0
				c-0.1,0.1,0,0.3,0,0.3c-0.2-0.4,0.3-0.5,0.3-0.8C150.9,31.6,151.6,31.3,151.6,31.7z"/>
			<path fill="#FFFFFF" d="M176,31.4c0,0.1,0,0.3-0.1,0.5c-0.1,0.1-0.3,0.1-0.5,0.1c-0.2-0.1-0.2-0.4-0.2-0.6
				C175.3,31.1,175.9,31.1,176,31.4z"/>
			<path fill="#FFFFFF" d="M148.5,31.5c-0.1,0-0.2-0.1-0.3-0.2c0.2-0.2,0.1,0.2,0.4,0.1C148.6,31.5,148.6,31.5,148.5,31.5z"/>
			<path fill="#FFFFFF" d="M136.2,31.6c0.1,0.2-0.1,0.4-0.3,0.5c-0.2,0-0.5,0-0.5-0.3c-0.1-0.2,0-0.5,0.3-0.6
				C135.9,31.3,136.1,31.4,136.2,31.6z"/>
			<path fill="#FFFFFF" d="M147.3,31.7c-0.2,0-0.3-0.1-0.4,0c-0.2,0-0.3,0.2-0.5,0.2c0.1-0.2,0.4-0.4,0.6-0.6
				C147.1,31.6,147.4,31.5,147.3,31.7z"/>
			<path d="M151,31.6c0,0-0.1-0.1,0-0.2C151,31.5,151,31.5,151,31.6z"/>
			<path fill="#FFFFFF" d="M148.5,31.9c0.3,0.1,0.5-0.5,0.7-0.1c0.4,0.1,0.9-0.3,1.1,0.1c0,0.2,0.2,0.4,0,0.5c0.2,0.2,0,0.2-0.1,0.2
				c-0.1,0-0.2-0.1-0.3,0.1c0,0.4-0.2-0.1-0.3-0.1c-0.3,0.1-0.6,0.1-0.9,0.2c-0.2,0-0.2-0.2-0.3-0.3c-0.2-0.2,0.3-0.5,0-0.5
				c-0.2,0.1-0.5,0.1-0.7,0.1c-0.2-0.1-0.4-0.3-0.2-0.6C148,31.3,148.1,32,148.5,31.9z"/>
			<path fill="#FFFFFF" d="M152.7,31.9c0,0.2-0.3,0.2-0.4,0.3c-0.2,0-0.5,0.1-0.6-0.1c0-0.1,0-0.2,0-0.3
				C152,31.5,152.6,31.5,152.7,31.9z"/>
			<path fill="#FFFFFF" d="M151.6,32.2c-0.2,0.2-0.5,0.3-0.8,0.2c0-0.2,0-0.5,0-0.7c0.1,0.1,0,0.3,0.1,0.5c0,0,0,0.2,0.2,0.1
				c0.2-0.1,0.2-0.4,0.2-0.7C151.4,31.9,151.4,32.1,151.6,32.2z"/>
			<path fill="#FFFFFF" d="M151.1,32C151.1,32.1,151.1,32.1,151.1,32c-0.1,0-0.2-0.1-0.1-0.1C151.1,31.8,151.1,31.9,151.1,32z"/>
			<path fill="#FFFFFF" d="M147.7,32.3c-0.1,0.3-0.4,0.4-0.7,0.5c-0.2,0.1-0.2-0.1-0.3-0.3c0-0.2,0.2-0.5,0.4-0.6c0.1,0,0.2,0,0.3,0
				C147.4,32.1,147.6,32.2,147.7,32.3z"/>
			<path fill="#FFFFFF" d="M146.4,32.3c0.1,0.3-0.2,0.4-0.4,0.5c-0.2,0-0.5,0.1-0.6-0.2c0-0.2,0-0.4,0.3-0.5
				C145.9,32.1,146.5,32,146.4,32.3z"/>
			<path fill="#FFFFFF" d="M153.2,32.5c0,0.2,0,0.3-0.2,0.4c-0.3,0-0.5-0.2-0.6-0.4c0-0.2,0.2-0.2,0.3-0.3
				C153,32.1,153.1,32.3,153.2,32.5z"/>
			<path fill="#FFFFFF" d="M175.5,32.5c0.1,0.2,0,0.3-0.1,0.5c-0.1,0.1-0.2,0.1-0.3,0.1c-0.2,0-0.4-0.1-0.4-0.3
				c-0.1-0.2,0.1-0.5,0.3-0.6C175.2,32.1,175.4,32.3,175.5,32.5z"/>
			<path fill="#FFFFFF" d="M136.6,32.6c0.1,0.2,0,0.4-0.2,0.6c-0.1,0-0.3,0-0.5-0.1c-0.1-0.1-0.2-0.3-0.1-0.5
				c0.1-0.1,0.2-0.3,0.4-0.3C136.4,32.3,136.6,32.4,136.6,32.6z"/>
			<path fill="#FFFFFF" d="M148.2,32.6c-0.1,0-0.2,0-0.2-0.1c0-0.2,0.2-0.1,0.3-0.2C148.4,32.4,148.3,32.5,148.2,32.6z"/>
			<path fill="#FFFFFF" d="M145.4,32.9c0,0.1-0.1,0.2-0.1,0.2c-0.1,0-0.1-0.1-0.1-0.1C145.2,32.9,145.2,32.8,145.4,32.9
				C145.3,32.8,145.4,32.9,145.4,32.9z"/>
			<path fill="#FFFFFF" d="M150,33.2c0.3,0.1-0.1,0.3-0.1,0.4c-0.6,0-1,0.2-1.5,0.5c-0.4,0-0.9,0-1.3,0c0-0.1,0.1-0.2,0.2-0.3
				c0.1,0,0.3,0.1,0.4,0c-0.1-0.1,0.1-0.3,0.2-0.3c0.2-0.1,0.3,0.2,0.5,0c0.4,0.2,0-0.5,0.5-0.5c0.2,0,0.4,0.1,0.5-0.1
				C149.8,32.8,149.8,33.2,150,33.2z"/>
			<path fill="#FFFFFF" d="M146.9,33.4c0,0.2-0.2,0.2-0.4,0.2c-0.1,0-0.2-0.1-0.2-0.3c0-0.2,0-0.3,0.2-0.4
				C146.8,32.9,147.1,33.1,146.9,33.4z"/>
			<path fill="#FFFFFF" d="M175,33.5c0,0.3-0.1,0.4-0.3,0.5c-0.2,0-0.4-0.1-0.5-0.2c-0.1-0.2,0-0.5,0.3-0.6
				C174.7,33.1,174.9,33.3,175,33.5z"/>
			<path fill="#FFFFFF" d="M137.2,33.5c0.1,0.2,0,0.5-0.2,0.6c-0.2,0-0.5,0-0.6-0.3c0-0.2,0-0.5,0.2-0.5
				C136.9,33.2,137.1,33.3,137.2,33.5z"/>
			<path fill="#FFFFFF" d="M150.7,33.4c0.4,0,0.2,0.6,0.7,0.4c0,0.1,0.1,0.1,0.1,0.2l-2.7,0c0.4-0.5,1.2,0,1.5-0.6
				C150.5,33.5,150.5,33.5,150.7,33.4z"/>
			<path d="M143.3,35.3c-0.1,0.3-0.3,0.5-0.5,0.7c0.1-0.5-0.2-1-0.6-1.3c-0.2,0.1-0.4,0.3-0.6,0.5c0,0.4,1.1,0.5,0.3,0.9
				c-0.1,0-0.1-0.2-0.1-0.2c-0.4-0.8-0.8,0-1.2,0.2c-0.1,0.1-0.1,0.2-0.1,0.3c-0.3-0.2-0.6-0.6-0.8-0.9c0.1,0,0.3,0,0.5-0.1
				c0.5-0.5,1-0.9,1.5-1.4c0.1-0.1,0.1-0.2,0.1-0.3C142.3,34.2,142.7,34.8,143.3,35.3z"/>
			<path fill="#FFFFFF" d="M174.4,34.4c0,0.2-0.1,0.4-0.2,0.5c-0.2,0.1-0.5,0-0.6-0.2c-0.1-0.2,0-0.5,0.2-0.6
				C174.1,34.1,174.3,34.2,174.4,34.4z"/>
			<path fill="#FFFFFF" d="M137.8,34.5c0.1,0.2,0,0.5-0.3,0.6c-0.2,0.1-0.4-0.1-0.5-0.3c-0.1-0.2,0-0.5,0.3-0.5
				C137.5,34.2,137.7,34.3,137.8,34.5z"/>
			<path d="M171,36.4c-0.2,0.3-0.5,0.6-0.8,0.8c-0.1-0.6-0.9-1-1.3-1.5c-0.1,0-0.3,0-0.4,0c0.3-0.4-0.3-0.8,0.3-1.1
				c0.7,0.5,1.3,1.2,1.9,1.7C170.8,36.4,170.9,36.4,171,36.4z"/>
			<path fill="#FFFFFF" d="M173.7,35.2c0.1,0.2,0,0.5-0.2,0.6c-0.2,0-0.5-0.1-0.6-0.3c-0.1-0.2,0-0.5,0.3-0.6
				C173.4,35,173.6,35,173.7,35.2z"/>
			<path fill="#FFFFFF" d="M138.5,35.4c0,0.2,0,0.4-0.2,0.5c-0.2,0.1-0.5-0.1-0.6-0.2c-0.1-0.2,0-0.5,0.2-0.6
				C138.1,35.1,138.4,35.2,138.5,35.4z"/>
			<path fill="#FFFFFF" d="M173.1,36.1c0.1,0.1,0,0.3-0.1,0.4c-0.1,0.1-0.3,0.1-0.5,0.1c-0.2-0.1-0.3-0.4-0.2-0.6
				c0.1-0.1,0.2-0.2,0.3-0.2C172.8,35.9,173,36,173.1,36.1z"/>
			<path d="M145.1,36.7c0.3,0.6,0,1.4-0.4,1.9c-0.4,0.4-0.9,0.5-1.4,0.4c-0.5-0.1-0.9-0.6-1.1-1c-0.1-0.7,0.2-1.4,0.8-1.8
				c0.4-0.2,0.8-0.2,1.3-0.1C144.6,36.2,144.9,36.3,145.1,36.7z"/>
			<path fill="#FFFFFF" d="M139.1,36.3c0,0.1,0,0.3-0.1,0.4c-0.1,0.1-0.3,0.1-0.5,0.1c-0.2-0.1-0.2-0.4-0.2-0.6
				C138.5,35.9,139,36,139.1,36.3z"/>
			<path d="M168.1,36.5c0.1,0.1,0,0.3,0,0.5c0.4,0,0.8,0.2,1,0.6c0.1,0.4,0,0.8-0.2,1.1c-0.4,0.4-0.8,0.7-1.4,0.6
				c-0.3-0.1-0.6-0.2-0.7-0.5c0-0.2,0-0.5,0-0.7c-0.3,0-0.5-0.1-0.7-0.4c-0.2-0.4,0-0.8,0.3-1.1c0.2-0.2,0.5-0.4,0.9-0.4
				C167.7,36.1,168,36.2,168.1,36.5z"/>
			<path fill="#FFFFFF" d="M144.5,36.7c0,0.7-0.5,1.2-1,1.6c-0.2,0.1-0.5,0.2-0.6,0c-0.2-0.5,0.1-0.9,0.4-1.3
				C143.6,36.7,144.2,36.4,144.5,36.7z"/>
			<path fill="#FFFFFF" d="M167.5,36.9c0.1,0.2,0,0.5-0.2,0.5c-0.2,0-0.3,0-0.4-0.1c-0.1-0.2-0.1-0.4,0-0.6
				C167.1,36.6,167.4,36.7,167.5,36.9z"/>
			<path fill="#FFFFFF" d="M172.4,37c0,0.2,0,0.4-0.2,0.5c-0.2,0.1-0.5,0-0.6-0.2c-0.1-0.1,0-0.3,0.1-0.4c0-0.1,0.2-0.1,0.3-0.1
				C172.2,36.7,172.4,36.8,172.4,37z"/>
			<path fill="#FFFFFF" d="M139.8,37.1c0.1,0.2,0,0.3-0.1,0.5c-0.1,0.1-0.3,0.1-0.4,0c-0.1,0-0.2-0.1-0.2-0.3
				c-0.1-0.2,0-0.4,0.2-0.5C139.5,36.8,139.8,36.9,139.8,37.1z"/>
			<path d="M146.8,38c-0.2,0-0.4,0.2-0.5,0.4c-0.3,0.4-0.5,0.9-0.8,1.3c0,0.2,0,0.4,0.2,0.6c0.2,0.1,0.5,0.2,0.7,0.1
				c0.5-0.5,0.7-1.2,1.1-1.8c0-0.1,0-0.1,0-0.2c0.1,0.1,1.1,0.3,0.4,0.4c-0.6,0.7-0.6,2-1.8,2c-0.5,0-1-0.3-1.3-0.8
				c-0.2-0.9,0.7-1.6,1-2.4c0-0.1,0-0.2,0-0.3C146.1,37.5,146.5,37.7,146.8,38z"/>
			<path fill="#FFFFFF" d="M171.6,37.8c0,0.1,0,0.3-0.1,0.4c-0.1,0.1-0.3,0.1-0.5,0.1c-0.1,0-0.2-0.2-0.3-0.3c0-0.2,0.1-0.4,0.3-0.5
				C171.3,37.4,171.5,37.6,171.6,37.8z"/>
			<path d="M165.7,38c-0.1,0.8-0.1,1.7,0.3,2.3c-0.3,0.2-0.6,0.4-0.9,0.5c-0.3-0.7-0.3-1.7,0-2.4c-0.4,0.2-1,0.3-1.1,0.9
				c-0.1-0.3-0.2-0.6-0.3-0.9C164.4,38.4,165.2,36.8,165.7,38z"/>
			<path fill="#FFFFFF" d="M140.6,37.9c0,0.2,0,0.5-0.2,0.5c-0.2,0.1-0.3,0-0.4-0.1c-0.1-0.1-0.1-0.3-0.1-0.5
				C140,37.5,140.5,37.6,140.6,37.9z"/>
			<path fill="#FFFFFF" d="M168.3,37.8c0.1,0.2,0.2,0.4,0.1,0.6c-0.1,0.2-0.4,0.3-0.6,0.2c-0.2,0-0.3-0.2-0.4-0.4
				c0-0.2,0-0.5,0.2-0.6C168,37.6,168.2,37.7,168.3,37.8z"/>
			<path fill="#FFFFFF" d="M170.8,38.5c0.1,0.2,0,0.5-0.2,0.6c-0.3,0.1-0.4-0.1-0.5-0.3c0-0.2,0-0.4,0.2-0.5
				C170.4,38.2,170.7,38.3,170.8,38.5z"/>
			<path fill="#FFFFFF" d="M141.4,38.6c0.1,0.2,0,0.5-0.2,0.6c-0.2,0.1-0.3,0-0.5-0.1c-0.1-0.1-0.1-0.3,0-0.5c0-0.2,0.2-0.2,0.3-0.2
				C141.2,38.3,141.3,38.5,141.4,38.6z"/>
			<path d="M149.4,39.2c0,0.5,0.1,1.1,0.2,1.6c0.1-0.4,0.3-0.7,0.4-1.1c-0.2-0.5,0.4,0,0.6-0.1c-0.1,0.1-0.3,0.3-0.3,0.5
				c-0.2,0.7-0.5,1.4-0.7,2.2c-0.2,0-0.4-0.1-0.6-0.1c-0.2-0.7-0.3-1.4-0.5-2.1c-0.2,0.5-0.6,1.1-0.6,1.7c-0.2,0-0.5-0.1-0.6-0.3
				c0.2,0,0.2-0.2,0.3-0.3c0.2-0.6,0.6-1.3,0.8-1.9c0-0.1,0-0.2-0.1-0.3C148.8,38.9,149.1,39,149.4,39.2z"/>
			<path d="M163.9,41.2c0.1,0,0.1,0.1,0.2,0.2c-0.3,0.2-0.7,0.3-1,0.4c0.1-0.6-0.4-1.1-0.5-1.7c-0.1-0.2-0.5-0.1-0.4-0.3
				c0.4-0.2,0.1-0.9,0.7-0.9C163.2,39.6,163.5,40.4,163.9,41.2z"/>
			<path fill="#FFFFFF" d="M170,39.2c0.1,0.2,0,0.5-0.2,0.6c-0.1,0.1-0.3,0-0.4-0.1c-0.1-0.1-0.2-0.4,0-0.6
				C169.4,38.9,169.9,38.9,170,39.2z"/>
			<path fill="#FFFFFF" d="M142.3,39.4c0,0.1,0,0.3-0.1,0.4c-0.1,0.1-0.3,0.1-0.5,0.1c-0.2-0.1-0.3-0.3-0.2-0.5
				c0-0.1,0.2-0.2,0.3-0.2C142,39.1,142.2,39.2,142.3,39.4z"/>
			<path fill="#FFFFFF" d="M169.1,39.9c0.1,0.1,0,0.3-0.1,0.4c-0.1,0.1-0.3,0.1-0.5,0.1c-0.2-0.1-0.3-0.3-0.2-0.6
				c0.1-0.1,0.2-0.2,0.3-0.2C168.9,39.6,169,39.8,169.1,39.9z"/>
			<path d="M153.7,40.8c0.2,0.5,0.1,1.2-0.3,1.7c-0.8,0.8-1.9,0.1-2.7,0c0-0.1,0.2-0.1,0.2-0.3c0.1-0.8,0.4-1.5,0.5-2.3
				c0-0.1-0.1-0.1,0-0.2C152.1,40.1,153.3,39.8,153.7,40.8z"/>
			<path fill="#FFFFFF" d="M143.2,40.1c0,0.2-0.1,0.4-0.3,0.5c-0.2,0-0.4,0-0.5-0.2c-0.1-0.2,0-0.5,0.3-0.6
				C142.8,39.7,143.1,39.9,143.2,40.1z"/>
			<path d="M159.2,40.4c0.3,0.4,0.6,0.9,0.4,1.5c-0.1,0.3-0.3,0.7-0.6,0.9c-0.6,0.2-1.3,0.2-2,0.2c0-0.1,0.1-0.3,0.1-0.4
				c-0.1-0.7-0.1-1.4-0.2-2.1c0-0.1-0.2-0.2-0.3-0.2C157.5,40.2,158.6,39.8,159.2,40.4z"/>
			<path d="M156.3,40.3c0,0.2,0,0.5,0,0.7c-0.3-0.4-0.8-0.4-1.2-0.3c0,0.3-0.1,0.6,0,0.8c0.4,0.1,0.7-0.1,0.9-0.3c0.1,0.4,0,0.6,0,1
				c-0.2-0.2-0.5-0.4-0.9-0.3c-0.1,0.3,0,0.5-0.1,0.8c0.3,0.1,0.7,0.1,1,0c0.1-0.1,0.2-0.1,0.3-0.2c0,0.2,0,0.4,0,0.6
				c-0.8,0-1.6,0-2.4-0.1c0-0.1,0.2-0.2,0.3-0.4c0-0.7,0.1-1.4,0.1-2.2c0-0.1-0.2-0.2,0-0.3C154.9,40.2,155.6,40.3,156.3,40.3z"/>
			<path fill="#FFFFFF" d="M168.2,40.6c0,0.1,0,0.3-0.1,0.4c-0.1,0.1-0.3,0.1-0.5,0c-0.2-0.1-0.3-0.3-0.2-0.5
				C167.6,40.1,168.1,40.2,168.2,40.6z"/>
			<path fill="#FFFFFF" d="M144,40.6c0.1,0.2,0,0.5-0.2,0.6c-0.2,0.1-0.5-0.1-0.6-0.3c-0.1-0.2,0.1-0.4,0.3-0.5
				C143.8,40.3,143.9,40.5,144,40.6z"/>
			<path fill="#FFFFFF" d="M152.6,40.6c0.2,0.3,0.3,0.6,0.2,0.9c-0.1,0.3-0.2,0.7-0.6,0.8c-0.2,0-0.4,0.1-0.6-0.1
				c0.1-0.6,0.3-1.2,0.4-1.8C152.4,40.3,152.5,40.4,152.6,40.6z"/>
			<path fill="#FFFFFF" d="M158.5,40.7c0.3,0.4,0.5,0.9,0.2,1.3c-0.1,0.2-0.2,0.4-0.5,0.5c-0.3,0.1-0.3-0.2-0.3-0.4
				c0-0.5-0.1-1.1-0.1-1.7C158.1,40.5,158.3,40.6,158.5,40.7z"/>
			<path fill="#FFFFFF" d="M167.3,41.2c0,0.2-0.1,0.4-0.3,0.5c-0.2,0-0.4,0-0.5-0.2c0-0.2,0-0.4,0.1-0.5
				C166.9,40.7,167.2,40.9,167.3,41.2z"/>
			<path fill="#FFFFFF" d="M145,41.2c0.1,0.2,0,0.5-0.2,0.6c-0.2,0.1-0.5,0-0.5-0.3c-0.1-0.2,0-0.4,0.2-0.5
				C144.6,41,144.9,41,145,41.2z"/>
			<path fill="#FFFFFF" d="M166.3,41.6c0.1,0.2,0,0.4-0.2,0.6c-0.2,0.1-0.3,0-0.5-0.1c-0.1-0.1-0.1-0.3,0-0.5c0-0.1,0.1-0.2,0.2-0.2
				C166,41.4,166.2,41.4,166.3,41.6z"/>
			<path fill="#FFFFFF" d="M146,41.7c0.1,0.2,0,0.4-0.1,0.5c-0.2,0.1-0.4,0.1-0.5,0c-0.2-0.1-0.2-0.4-0.1-0.5
				c0.1-0.1,0.2-0.2,0.4-0.2C145.7,41.5,145.9,41.6,146,41.7z"/>
			<path fill="#FFFFFF" d="M165.3,42.2c0,0.2,0,0.4-0.2,0.5c-0.2,0.1-0.4,0-0.5-0.1c-0.1-0.1-0.1-0.3-0.1-0.5c0-0.1,0.1-0.1,0.3-0.2
				C165,41.8,165.2,42,165.3,42.2z"/>
			<path fill="#FFFFFF" d="M147,42.3c0,0.2-0.1,0.5-0.3,0.5c-0.2,0-0.3,0-0.4-0.1c-0.1-0.1-0.1-0.3-0.1-0.5
				C146.3,41.8,146.9,41.9,147,42.3z"/>
			<path fill="#FFFFFF" d="M164.3,42.6c0.1,0.2-0.1,0.4-0.3,0.5c-0.2,0-0.5,0-0.5-0.3c-0.1-0.1,0-0.3,0.1-0.4
				C163.8,42.2,164.2,42.3,164.3,42.6z"/>
			<path fill="#FFFFFF" d="M148,42.7c0,0.2,0,0.4-0.2,0.5c-0.1,0-0.3,0-0.4-0.1c-0.2-0.1-0.2-0.4-0.1-0.5
				C147.4,42.3,147.9,42.4,148,42.7z"/>
			<path fill="#FFFFFF" d="M163.2,43c0.1,0.2,0,0.4-0.2,0.5c-0.2,0.1-0.4,0-0.6-0.2c-0.1-0.2,0-0.5,0.2-0.6
				C162.9,42.7,163.1,42.8,163.2,43z"/>
			<path fill="#FFFFFF" d="M149.1,43.1c0,0.2-0.1,0.4-0.3,0.5c-0.2,0.1-0.5,0-0.6-0.2c0-0.2,0-0.5,0.3-0.6c0.1,0,0.2,0,0.3,0
				C148.9,42.9,149,43,149.1,43.1z"/>
			<path fill="#FFFFFF" d="M162.2,43.4c0,0.2,0,0.4-0.2,0.5c-0.2,0.1-0.5,0-0.6-0.2c-0.1-0.2,0.1-0.4,0.3-0.5
				C161.9,43,162.1,43.1,162.2,43.4z"/>
			<path fill="#FFFFFF" d="M150.1,43.4c0,0.2-0.1,0.5-0.3,0.6c-0.3,0.1-0.4-0.1-0.5-0.3c0-0.2,0.1-0.4,0.2-0.5
				C149.7,43,150,43.2,150.1,43.4z"/>
			<path fill="#FFFFFF" d="M161.1,43.6c0,0.2,0,0.4-0.2,0.5c-0.2,0-0.3,0-0.4-0.1c-0.1-0.1-0.2-0.4-0.1-0.5
				C160.5,43.3,161,43.3,161.1,43.6z"/>
			<path fill="#FFFFFF" d="M151.1,43.6c0.1,0.2,0,0.5-0.3,0.6c-0.2,0-0.5,0-0.5-0.3c0-0.2,0-0.3,0.1-0.4
				C150.6,43.3,151,43.4,151.1,43.6z"/>
			<path fill="#FFFFFF" d="M160,43.8c0,0.1,0,0.3-0.1,0.5c-0.1,0.1-0.3,0.1-0.5,0.1c-0.2-0.1-0.3-0.4-0.2-0.6
				C159.4,43.5,159.8,43.6,160,43.8z"/>
			<path fill="#FFFFFF" d="M152.2,43.9c0.1,0.2,0,0.4-0.1,0.5c-0.1,0.1-0.4,0.2-0.5,0c-0.2-0.1-0.2-0.4-0.2-0.6
				c0-0.1,0.2-0.1,0.3-0.2C151.9,43.6,152.1,43.7,152.2,43.9z"/>
			<path fill="#FFFFFF" d="M158.9,44c0,0.2,0,0.4-0.2,0.5c-0.2,0.1-0.3,0-0.5-0.1c-0.1-0.1-0.1-0.3-0.1-0.5
				C158.2,43.6,158.8,43.7,158.9,44z"/>
			<path fill="#FFFFFF" d="M153.2,43.9c0.1,0.1,0.1,0.3,0.1,0.4c-0.1,0.1-0.1,0.2-0.3,0.2c-0.2,0-0.4,0-0.5-0.2
				c-0.1-0.2,0-0.5,0.3-0.6C153,43.7,153.1,43.8,153.2,43.9z"/>
			<path fill="#FFFFFF" d="M157.8,44.1c0,0.2-0.1,0.4-0.3,0.5c-0.2,0.1-0.3,0-0.5-0.1c-0.1-0.1-0.1-0.3-0.1-0.5
				c0-0.1,0.2-0.2,0.3-0.2C157.5,43.8,157.7,44,157.8,44.1z"/>
			<path fill="#FFFFFF" d="M154.4,44.1c0.1,0.2,0,0.5-0.3,0.6c-0.2,0-0.5-0.1-0.5-0.3c-0.1-0.2,0.1-0.4,0.2-0.5
				C154,43.9,154.3,43.9,154.4,44.1z"/>
			<path fill="#FFFFFF" d="M155.4,44c0.1,0.1,0.1,0.3,0.1,0.5c-0.1,0.1-0.3,0.3-0.5,0.2c-0.2-0.1-0.3-0.3-0.2-0.6
				c0-0.1,0.2-0.2,0.3-0.2C155.2,43.9,155.3,44,155.4,44z"/>
			<path fill="#FFFFFF" d="M156.6,44.2c0.1,0.2,0,0.3-0.1,0.5c-0.1,0.1-0.3,0.1-0.5,0c-0.2-0.1-0.3-0.4-0.2-0.6
				C156,43.8,156.6,43.9,156.6,44.2z"/>
			<polygon fill="#FFFFFF" points="144.5,12.4 144.6,12.7 145,12.8 144.7,13 144.8,13.4 144.5,13.1 144.2,13.4 144.3,13 144,12.8 
				144.4,12.7 			"/>
			<polygon fill="#FFFFFF" points="146,12.4 146.1,12.7 146.5,12.8 146.2,13 146.3,13.4 146,13.1 145.7,13.4 145.8,13 145.5,12.8 
				145.9,12.7 			"/>
			<polygon fill="#FFFFFF" points="147.7,12.4 147.8,12.7 148.2,12.8 147.9,13 148,13.4 147.7,13.1 147.4,13.4 147.5,13 147.2,12.8 
				147.6,12.7 			"/>
			<polygon fill="#FFFFFF" points="149.2,12.4 149.3,12.7 149.7,12.8 149.4,13 149.5,13.4 149.2,13.1 148.9,13.4 149,13 148.7,12.8 
				149.1,12.7 			"/>
			<polygon fill="#FFFFFF" points="150.8,12.4 150.9,12.7 151.3,12.8 151,13 151.1,13.4 150.8,13.1 150.5,13.4 150.6,13 150.3,12.8 
				150.7,12.7 			"/>
			<polygon fill="#FFFFFF" points="152.3,12.4 152.4,12.7 152.8,12.8 152.5,13 152.6,13.4 152.3,13.1 152,13.4 152.1,13 151.8,12.8 
				152.2,12.7 			"/>
			<polygon fill="#FFFFFF" points="153.8,12.4 153.9,12.7 154.3,12.8 154,13 154.1,13.4 153.8,13.1 153.5,13.4 153.6,13 153.3,12.8 
				153.7,12.7 			"/>
			<polygon fill="#FFFFFF" points="153,11.2 153.1,11.6 153.5,11.6 153.2,11.8 153.3,12.2 153,12 152.7,12.2 152.8,11.8 152.5,11.6 
				152.9,11.6 			"/>
			<polygon fill="#FFFFFF" points="151.5,11.2 151.6,11.6 152,11.6 151.7,11.8 151.8,12.2 151.5,12 151.1,12.2 151.3,11.8 
				150.9,11.6 151.3,11.6 			"/>
			<polygon fill="#FFFFFF" points="149.9,11.2 150.1,11.6 150.5,11.6 150.1,11.8 150.3,12.2 149.9,12 149.6,12.2 149.7,11.8 
				149.4,11.6 149.8,11.6 			"/>
			<polygon fill="#FFFFFF" points="148.4,11.2 148.5,11.6 148.9,11.6 148.6,11.8 148.7,12.2 148.4,12 148.1,12.2 148.2,11.8 
				147.9,11.6 148.3,11.6 			"/>
			<polygon fill="#FFFFFF" points="146.8,11.2 147,11.6 147.4,11.6 147,11.8 147.2,12.2 146.8,12 146.5,12.2 146.6,11.8 146.3,11.6 
				146.7,11.6 			"/>
			<polygon fill="#FFFFFF" points="145.3,11.2 145.5,11.6 145.8,11.6 145.5,11.8 145.6,12.2 145.3,12 145,12.2 145.1,11.8 
				144.8,11.6 145.2,11.6 			"/>
			<polygon points="157.9,12.8 158.1,13.5 158.8,13.5 158.3,13.9 158.5,14.6 157.9,14.2 157.3,14.6 157.5,13.9 157,13.5 157.7,13.5 
							"/>
			<rect x="155.8" y="20.1" stroke="#000000" stroke-width="6.135058e-02" width="12.6" height="2.3"/>
			<path stroke="#000000" stroke-width="6.135058e-02" d="M156.7,37.2c0.8-0.6,1.6-1,2.5-1.3c1.1-0.4,1.9-0.6,1.9-0.6V22.6h-5.3
				l0,15.4C155.8,38.1,156.2,37.6,156.7,37.2z"/>
			<path fill="#FFFFFF" d="M158.1,24.5c0.2,0.1,0.2-0.3,0.3,0c0.1,0.1,0.2-0.2,0.2,0.1c-0.2,0-0.7,0.2-0.6-0.2
				C158.1,24.4,158.1,24.5,158.1,24.5z"/>
			<path fill="#FFFFFF" d="M158.9,25.4c-0.3,0.1-0.7,0-1.1,0c0.1-0.2,0.1-0.5,0.2-0.7c0.2,0,0.4,0,0.6,0
				C158.7,25,158.8,25.2,158.9,25.4z"/>
			<path fill="#FFFFFF" stroke="#000000" stroke-width="0.1227" d="M159.4,25c0.1,0,0.2,0,0.2-0.1C159.6,24.7,159.6,25.1,159.4,25
				C159.2,25.1,159.3,24.6,159.4,25C159.3,24.9,159.3,24.9,159.4,25z"/>
			<path fill="#FFFFFF" stroke="#000000" stroke-width="0.1227" d="M157.3,25c0.1,0,0.2,0,0.2-0.1C157.5,24.7,157.5,25.1,157.3,25
				C157.1,25.1,157.2,24.6,157.3,25C157.2,24.9,157.2,24.9,157.3,25z"/>
			<path d="M158.5,24.9C158.5,24.9,158.6,25,158.5,24.9C158.4,24.9,158.5,24.8,158.5,24.9z"/>
			<path d="M158.3,25c-0.1,0,0-0.1,0-0.1C158.3,24.8,158.2,25,158.3,25z"/>
			<path fill="#FFFFFF" d="M157.6,25.7c-0.2,0.1-0.1-0.1-0.3-0.2c-0.1,0-0.3,0-0.4,0c0-0.1,0-0.3,0.1-0.4
				C157.6,24.8,157.5,25.4,157.6,25.7z"/>
			<path fill="#FFFFFF" d="M159.8,25.5c-0.1,0.1-0.5-0.1-0.5,0.2c-0.2,0.1-0.2-0.2-0.1-0.3C158.9,24.9,160,25,159.8,25.5z"/>
			<path d="M159.6,25.4c-0.1,0,0-0.1,0-0.2C159.6,25.2,159.7,25.3,159.6,25.4z"/>
			<path d="M159.3,25.4c-0.1,0,0-0.1,0-0.1C159.4,25.2,159.3,25.3,159.3,25.4z"/>
			<path d="M157.2,25.3c0,0,0,0.1,0,0.1C157.1,25.4,157,25.3,157.2,25.3C157.1,25.2,157.1,25.2,157.2,25.3z"/>
			<path d="M157.4,25.4c-0.1,0,0-0.1,0-0.1C157.4,25.3,157.4,25.3,157.4,25.4z"/>
			<path d="M158.4,25.3c0,0,0,0.1,0,0.1C158.3,25.4,158.3,25.3,158.4,25.3C158.4,25.2,158.4,25.2,158.4,25.3z"/>
			<path fill="#FFFFFF" stroke="#000000" stroke-width="6.135058e-02" d="M158.9,25.6c0.1,0.1-0.1,0.1,0,0.2c0.1,0,0.3,0,0.4,0
				c0-0.3,0.3-0.2,0.5-0.2c0,0.1,0,0.2,0,0.3c-1,0-2,0-2.9,0c-0.1-0.1,0-0.5,0.2-0.3c0.1,0,0.2,0.3,0.5,0.2c0.1,0,0.1,0,0.2-0.1
				c0,0,0-0.1,0-0.1C158.2,25.6,158.5,25.6,158.9,25.6z"/>
			<path fill="#FFFFFF" d="M160,26.2c-1.1,0-2.2,0-3.3,0c0,0,0,0,0,0C157.8,26.1,158.9,26.1,160,26.2C160,26.1,160,26.1,160,26.2z"
				/>
			<rect x="157.1" y="26.3" fill="#FFFFFF" width="2.8" height="0.1"/>
			<path fill="#FFFFFF" stroke="#000000" stroke-width="6.135058e-02" d="M159.9,29.5c1,0.5-0.2,0.3-0.5,0.4c0-0.4-0.4-0.8-0.7-1.1
				c-0.2,0-0.4-0.1-0.5,0.1c0,0-0.2,0.1-0.3,0.2c-0.2,0.2-0.4,0.4-0.4,0.7c-0.2,0-0.5,0-0.8,0c0.1-0.1,0.3-0.2,0.4-0.4v-2.8h2.8
				V29.5z"/>
			<path fill="#FFFFFF" stroke="#000000" stroke-width="0.1227" d="M158.3,27.3c0,0.1,0.1,0.2,0,0.3c0,0-0.1,0.1-0.1,0.1
				c-0.1,0.3,0.3,0.5,0,0.7c-0.2,0-0.8,0.1-0.6-0.2c0.1,0,0-0.3,0.1-0.4c-0.1-0.1-0.2-0.3-0.1-0.4c0-0.1,0.2-0.2,0.3-0.2
				C158,27,158.2,27.1,158.3,27.3z"/>
			<path fill="#FFFFFF" stroke="#000000" stroke-width="0.1227" d="M159.4,27.4c0,0.1,0,0.3-0.1,0.3c0,0.3,0,0.5,0.1,0.7
				c-0.3,0.1-0.6,0-0.8,0c0-0.3,0.1-0.4,0.1-0.7c-0.1,0-0.1-0.1-0.1-0.1c0-0.2,0.1-0.4,0.3-0.5C159.1,27,159.4,27.2,159.4,27.4z"/>
			<path d="M158.2,27.4c-0.1-0.1-0.3-0.3-0.5-0.1c0,0.1-0.2,0.1-0.2,0.2c0-0.1,0-0.3,0.2-0.3C157.9,27.1,158.1,27.2,158.2,27.4z"/>
			<path d="M159.3,27.3C159.4,27.6,159.3,27.4,159.3,27.3c-0.2-0.2-0.4-0.1-0.5-0.1c0,0-0.2,0.2-0.1,0
				C158.9,27.1,159.2,27.1,159.3,27.3z"/>
			<path d="M158.1,28.2c-0.1,0.1-0.4,0.1-0.5,0C157.7,28.2,157.9,28.2,158.1,28.2z"/>
			<path d="M159.3,28.2c-0.1,0.1-0.4,0.1-0.5,0C159,28.2,159.1,28.2,159.3,28.2z"/>
			<path fill="#FFFFFF" stroke="#000000" stroke-width="0.1227" d="M158.5,29.3c-0.1,0-0.2-0.2-0.2-0.3c0,0,0,0,0-0.1
				C158.7,28.8,158.5,29.1,158.5,29.3z"/>
			<path fill="#FFFFFF" stroke="#000000" stroke-width="6.135058e-02" d="M158.3,29.3c-0.8,0.3-0.3,1.5-0.5,2.1c0,0-1.2,0-1.2,0
				c-0.1-0.1-0.1-0.2,0-0.4c0.3,0,0.7,0.1,1.1,0c0-0.1,0-0.3,0-0.4c-0.3,0.1-0.1-0.2-0.2-0.2c-0.3-0.1-1,0.3-0.8-0.3
				c0.4,0,0.7,0,1,0c0.1-0.2,0.1-0.5,0.2-0.6C157.9,29.2,158.3,28.9,158.3,29.3z"/>
			<path fill="#FFFFFF" stroke="#000000" stroke-width="6.135058e-02" d="M159.2,29.9c0.4,0,0.8,0,1.1,0c0,0.1,0,0.3,0,0.4
				c-0.3,0-0.7,0-1,0c0,0.2-0.1,0.1-0.1,0.2c0,0.1-0.1,0.4,0.1,0.4c0.3,0,0.7,0,1,0c0,0.1,0,0.3,0,0.4c-0.4,0-0.9,0-1.3,0
				c-0.2-0.7,0.3-1.7-0.4-2.1c-0.1-0.3,0.2-0.3,0.3-0.1C159.1,29.4,159.2,29.7,159.2,29.9z"/>
			<path fill="#FFFFFF" stroke="#000000" stroke-width="0.1227" d="M158.1,31.4c0-0.6,0-1.1,0-1.7c0,0,0-0.1,0.1-0.1
				C158.1,30.2,158.1,30.7,158.1,31.4C158.1,31.4,158.1,31.3,158.1,31.4z"/>
			<path fill="#FFFFFF" stroke="#000000" stroke-width="0.1227" d="M157.3,30.7c0.1,0,0.2,0,0.2,0.1c0.1,0.2-0.1,0.1-0.2,0.1
				c-0.2-0.1-0.8,0.2-0.6-0.4C157,30.6,157.3,30.4,157.3,30.7z"/>
			<path fill="#FFFFFF" stroke="#000000" stroke-width="0.1227" d="M160.2,30.9c-0.3,0-0.6,0-0.8,0c-0.1-0.2,0.2-0.1,0.1-0.3
				C159.8,30.6,160.4,30.4,160.2,30.9z"/>
			<rect x="142.9" y="13.9" fill="#FFFFFF" width="1" height="8.4"/>
			<rect x="143.9" y="13.9" stroke="#000000" stroke-width="6.135058e-02" width="1" height="8.4"/>
			<rect x="145.8" y="13.9" stroke="#000000" stroke-width="6.135058e-02" width="1" height="8.4"/>
			<rect x="147.8" y="13.9" stroke="#000000" stroke-width="6.135058e-02" width="1" height="8.4"/>
			<rect x="149.7" y="13.9" stroke="#000000" stroke-width="6.135058e-02" width="1" height="8.4"/>
			<rect x="151.7" y="13.9" stroke="#000000" stroke-width="6.135058e-02" width="1" height="8.4"/>
			<rect x="153.6" y="13.9" stroke="#000000" stroke-width="6.135058e-02" width="1" height="8.4"/>
			<rect x="144.9" y="13.9" fill="#FFFFFF" width="1" height="8.4"/>
			<rect x="146.8" y="13.9" fill="#FFFFFF" width="1" height="8.4"/>
			<rect x="148.8" y="13.9" fill="#FFFFFF" width="1" height="8.4"/>
			<rect x="150.7" y="13.9" fill="#FFFFFF" width="1" height="8.4"/>
			<rect x="152.6" y="13.9" fill="#FFFFFF" width="1" height="8.4"/>
			<rect x="154.6" y="13.9" fill="#FFFFFF" width="1" height="8.4"/>
		</g>
	</g>
</g>
<g id="Layer_2" display="none">
	<rect x="-13.3" y="-413" display="inline" opacity="0.12" width="876.1" height="768"/>
</g>
</svg>
